<svg width="16" height="16" viewBox="0 0 16 16" fill="none" xmlns="http://www.w3.org/2000/svg">
<path fill-rule="evenodd" clip-rule="evenodd" d="M15 2V1H1V2V3V5H2H3L3 3H13V5H14H15V3V2ZM8.75778 15C8.36658 14.4156 8.10865 13.7344 8.02746 13L3 13V12H2H1V13V14V15H8.75778Z" fill="#9AA7B0" fill-opacity="0.8"/>
<path opacity="0.8" d="M4 6L8 4L12 6L8 8L4 6Z" fill="#9AA7B0"/>
<path opacity="0.8" fill-rule="evenodd" clip-rule="evenodd" d="M11 7.50002L8 9.00002L5 7.50002V6.50002L4 6V11H8.25606C8.82053 9.40297 10.2609 8.21971 12 8.02746V6L11 6.5V7.50002Z" fill="#9AA7B0"/>
<path fill-rule="evenodd" clip-rule="evenodd" d="M13.8787 14.5858C13.4835 14.8476 13.0095 15 12.5 15C11.1193 15 10 13.8807 10 12.5C10 11.9905 10.1524 11.5165 10.4142 11.1213L13.8787 14.5858ZM14.5858 13.8787C14.8476 13.4835 15 13.0095 15 12.5C15 11.1193 13.8807 10 12.5 10C11.9905 10 11.5165 10.1524 11.1213 10.4142L14.5858 13.8787ZM16 12.5C16 14.433 14.433 16 12.5 16C10.567 16 9 14.433 9 12.5C9 10.567 10.567 9 12.5 9C14.433 9 16 10.567 16 12.5Z" fill="#E05555"/>
</svg>
