<svg width="16" height="16" viewBox="0 0 16 16" fill="none" xmlns="http://www.w3.org/2000/svg">
<path fill-rule="evenodd" clip-rule="evenodd" d="M15 2V1H1V2V3V5H2H3L3 3H13V5H14H15V3V2ZM11.875 15V13.75L11.0714 13L3 13V12H2H1V13V14V15H11.875Z" fill="#9AA7B0" fill-opacity="0.8"/>
<path opacity="0.7" d="M4 6L8 4L12 6L8 8L4 6Z" fill="#40B6E0"/>
<path opacity="0.7" fill-rule="evenodd" clip-rule="evenodd" d="M11 7.50002L8 9.00002L5 7.50002V6.50002L4 6V11H10V11C10 10.0717 10.3687 9.1815 11.0251 8.52513C11.3111 8.23916 11.6414 8.00779 12 7.83772V6L11 6.5V7.50002Z" fill="#40B6E0"/>
<path d="M12.875 16H14.125V14.75H12.875V16ZM13.5 8.5C12.837 8.5 12.2011 8.76339 11.7322 9.23223C11.2634 9.70107 11 10.337 11 11H12.25C12.25 10.312 12.813 9.75 13.5 9.75C14.188 9.75 14.75 10.313 14.75 11C14.75 12.25 12.875 12.094 12.875 14.125H14.125C14.125 12.719 16 12.562 16 11C16 10.337 15.7366 9.70107 15.2678 9.23223C14.7989 8.76339 14.163 8.5 13.5 8.5Z" fill="#AFB1B3"/>
</svg>
