<svg width="16" height="17" viewBox="0 0 16 17" fill="none" xmlns="http://www.w3.org/2000/svg">
<g clip-path="url(#clip0_420_269)">
<path fill-rule="evenodd" clip-rule="evenodd" d="M10.3542 10.0039H9V11.0039H9.53513C9.75287 10.6275 10.0302 10.2899 10.3542 10.0039ZM13 9.00391V8.00391H9V9.00391H13Z" fill="#62B543" fill-opacity="0.7"/>
<path d="M3 6.00391H13V7.00391H3V6.00391Z" fill="#9AA7B0" fill-opacity="0.8"/>
<path fill-rule="evenodd" clip-rule="evenodd" d="M2.25 2.00391H13.75C14.0815 2.00391 14.3995 2.1356 14.6339 2.37002C14.8683 2.60444 15 2.92239 15 3.25391V9.53904C14.6905 9.36 14.3548 9.22124 14 9.12992V5.00391H2V7.00391H1V3.25391C1 2.92239 1.1317 2.60444 1.36612 2.37002C1.60054 2.1356 1.91848 2.00391 2.25 2.00391ZM9.12602 12.0039H9V13.0039C9 12.6586 9.04375 12.3235 9.12602 12.0039Z" fill="#9AA7B0" fill-opacity="0.8"/>
<path fill-rule="evenodd" clip-rule="evenodd" d="M8 8.00391H0V15.0039H8V8.00391ZM7 12.0039H4V13.0039H7V12.0039ZM3.03421 10.4181L3.74132 11.1252L3.03421 11.8323L1.62 13.2465L0.912893 12.5394L2.32711 11.1252L0.912893 9.71101L1.62 9.00391L3.03421 10.4181Z" fill="#40B6E0"/>
<path d="M16 13.0039C16 14.6608 14.6569 16.0039 13 16.0039C11.3431 16.0039 10 14.6608 10 13.0039C10 11.3471 11.3431 10.0039 13 10.0039C14.6569 10.0039 16 11.3471 16 13.0039Z" fill="#62B543"/>
</g>
<defs>
<clipPath id="clip0_420_269">
<rect width="16" height="16" fill="white" transform="translate(0 0.00390625)"/>
</clipPath>
</defs>
</svg>
