<svg width="16" height="16" viewBox="0 0 16 16" fill="none" xmlns="http://www.w3.org/2000/svg">
<path fill-rule="evenodd" clip-rule="evenodd" d="M4 5.5V10.5L8 11.5L12 10V6L8 4.5L4 5.5ZM4.6 10.0315L5.69995 10.3065V5.69348L4.6 5.96847V10.0315ZM7.4 10.7315L6.29995 10.4565V5.54348L7.4 5.26847V10.7315Z" fill="#B99BF8" fill-opacity="0.7"/>
<circle cx="3.5" cy="12.5" r="1.5" fill="#40B6E0" fill-opacity="0.7"/>
<path fill-rule="evenodd" clip-rule="evenodd" d="M8 15C11.866 15 15 11.866 15 8C15 6.97998 14.7818 6.01092 14.3896 5.13693C14.1634 5.39788 13.884 5.61148 13.5683 5.76091C13.8467 6.45277 14 7.20849 14 8C14 11.3137 11.3137 14 8 14C7.20849 14 6.45277 13.8467 5.76091 13.5683C5.61148 13.884 5.39788 14.1634 5.13693 14.3896C6.01092 14.7818 6.97998 15 8 15ZM8 2C8.79151 2 9.54723 2.15326 10.2391 2.43173C10.3885 2.11603 10.6021 1.83663 10.8631 1.61039C9.98908 1.21817 9.02002 1 8 1C4.13401 1 1 4.13401 1 8C1 9.02002 1.21817 9.98908 1.61039 10.8631C1.83663 10.6021 2.11603 10.3885 2.43173 10.2391C2.15326 9.54723 2 8.79151 2 8C2 4.68629 4.68629 2 8 2Z" fill="#40B6E0" fill-opacity="0.7"/>
<circle cx="12.5" cy="3.5" r="1.5" fill="#40B6E0" fill-opacity="0.7"/>
</svg>
