<svg width="16" height="16" viewBox="0 0 16 16" fill="none" xmlns="http://www.w3.org/2000/svg">
<path fill-rule="evenodd" clip-rule="evenodd" d="M8.73269 14.9621C8.49188 14.9872 8.24744 15 8 15C6.97998 15 6.01092 14.7818 5.13693 14.3896C5.39788 14.1634 5.61148 13.884 5.76091 13.5683C6.45277 13.8467 7.20849 14 8 14C8.08516 14 8.1699 13.9982 8.25419 13.9947C8.37511 14.3382 8.53652 14.6626 8.73269 14.9621ZM14.9621 8.73269C14.9872 8.49188 15 8.24744 15 8C15 6.97998 14.7818 6.01092 14.3896 5.13693C14.1634 5.39788 13.884 5.61148 13.5683 5.76091C13.8467 6.45277 14 7.20849 14 8C14 8.08516 13.9982 8.1699 13.9947 8.25419C14.3382 8.37511 14.6626 8.53652 14.9621 8.73269ZM10.2391 2.43173C9.54723 2.15326 8.79151 2 8 2C4.68629 2 2 4.68629 2 8C2 8.79151 2.15326 9.54723 2.43173 10.2391C2.11603 10.3885 1.83663 10.6021 1.61039 10.8631C1.21817 9.98908 1 9.02002 1 8C1 4.13401 4.13401 1 8 1C9.02002 1 9.98908 1.21817 10.8631 1.61039C10.6021 1.83663 10.3885 2.11603 10.2391 2.43173ZM3.5 14C4.32843 14 5 13.3284 5 12.5C5 11.6716 4.32843 11 3.5 11C2.67157 11 2 11.6716 2 12.5C2 13.3284 2.67157 14 3.5 14ZM14 3.5C14 4.32843 13.3284 5 12.5 5C11.6716 5 11 4.32843 11 3.5C11 2.67157 11.6716 2 12.5 2C13.3284 2 14 2.67157 14 3.5Z" fill="#40B6E0" fill-opacity="0.7"/>
<path fill-rule="evenodd" clip-rule="evenodd" d="M4 10.5V5.5L8 4.5L12 6V8.02746C10.0998 8.23752 8.55613 9.63078 8.12216 11.4542L8 11.5L4 10.5ZM5.69995 10.3065L4.6 10.0315V5.96847L5.69995 5.69348V10.3065ZM6.29995 10.4565L7.4 10.7315V5.26847L6.29995 5.54348V10.4565Z" fill="#B99BF8" fill-opacity="0.7"/>
<path fill-rule="evenodd" clip-rule="evenodd" d="M12.5 16C14.433 16 16 14.433 16 12.5C16 10.567 14.433 9 12.5 9C10.567 9 9 10.567 9 12.5C9 14.433 10.567 16 12.5 16ZM10.7322 11.4393L11.4393 10.7322L12.5 11.7929L13.5607 10.7323L14.2678 11.4394L13.2071 12.5L14.2678 13.5607L13.5607 14.2678L12.5 13.2071L11.4393 14.2678L10.7322 13.5607L11.7929 12.5L10.7322 11.4393Z" fill="#E05555"/>
</svg>
