<svg width="16" height="16" viewBox="0 0 16 16" fill="none" xmlns="http://www.w3.org/2000/svg">
<path fill-rule="evenodd" clip-rule="evenodd" d="M4 10.5V5.5L8 4.5L12 6V9.12602C10.9868 9.38681 10.1289 10.0346 9.59341 10.9025L8 11.5L4 10.5ZM5.69995 10.3065L4.6 10.0315V5.96847L5.69995 5.69348V10.3065ZM6.29995 10.4565L7.4 10.7315V5.26847L6.29995 5.54348V10.4565Z" fill="#B99BF8" fill-opacity="0.7"/>
<path fill-rule="evenodd" clip-rule="evenodd" d="M9.45217 14.8492C8.98368 14.948 8.49791 15 8 15C6.97998 15 6.01092 14.7818 5.13693 14.3896C5.39788 14.1634 5.61148 13.884 5.76091 13.5683C6.45277 13.8467 7.20849 14 8 14C8.37625 14 8.7444 13.9654 9.10146 13.8991C9.17833 14.2338 9.29718 14.5524 9.45217 14.8492ZM14.8492 9.45217C14.948 8.98368 15 8.49791 15 8C15 6.97998 14.7818 6.01092 14.3896 5.13693C14.1634 5.39788 13.884 5.61148 13.5683 5.76091C13.8467 6.45277 14 7.20849 14 8C14 8.37625 13.9654 8.7444 13.8991 9.10146C14.2338 9.17833 14.5524 9.29718 14.8492 9.45217ZM10.2391 2.43173C9.54723 2.15326 8.79151 2 8 2C4.68629 2 2 4.68629 2 8C2 8.79151 2.15326 9.54723 2.43173 10.2391C2.11603 10.3885 1.83663 10.6021 1.61039 10.8631C1.21817 9.98908 1 9.02002 1 8C1 4.13401 4.13401 1 8 1C9.02002 1 9.98908 1.21817 10.8631 1.61039C10.6021 1.83663 10.3885 2.11603 10.2391 2.43173ZM3.5 14C4.32843 14 5 13.3284 5 12.5C5 11.6716 4.32843 11 3.5 11C2.67157 11 2 11.6716 2 12.5C2 13.3284 2.67157 14 3.5 14ZM14 3.5C14 4.32843 13.3284 5 12.5 5C11.6716 5 11 4.32843 11 3.5C11 2.67157 11.6716 2 12.5 2C13.3284 2 14 2.67157 14 3.5Z" fill="#40B6E0" fill-opacity="0.7"/>
<path d="M16 13C16 14.6569 14.6569 16 13 16C11.3431 16 10 14.6569 10 13C10 11.3431 11.3431 10 13 10C14.6569 10 16 11.3431 16 13Z" fill="#62B543"/>
</svg>
