<svg width="16" height="16" viewBox="0 0 16 16" fill="none" xmlns="http://www.w3.org/2000/svg">
<path fill-rule="evenodd" clip-rule="evenodd" d="M11.875 13.8305C10.7655 14.5694 9.43302 15 8 15C6.97998 15 6.01092 14.7818 5.13693 14.3896C5.39788 14.1634 5.61148 13.884 5.76091 13.5683C6.45277 13.8467 7.20849 14 8 14C9.16464 14 10.2518 13.6682 11.172 13.0939L11.875 13.75V13.8305ZM14.9981 7.83684C14.9762 6.87663 14.7609 5.96419 14.3896 5.13693C14.1634 5.39788 13.884 5.61148 13.5683 5.76091C13.7915 6.31551 13.9343 6.91114 13.9821 7.53335C14.3356 7.5825 14.6781 7.68525 14.9981 7.83684ZM10.2391 2.43173C9.54723 2.15326 8.79151 2 8 2C4.68629 2 2 4.68629 2 8C2 8.79151 2.15326 9.54723 2.43173 10.2391C2.11603 10.3885 1.83663 10.6021 1.61039 10.8631C1.21817 9.98908 1 9.02002 1 8C1 4.13401 4.13401 1 8 1C9.02002 1 9.98908 1.21817 10.8631 1.61039C10.6021 1.83663 10.3885 2.11603 10.2391 2.43173ZM3.5 14C4.32843 14 5 13.3284 5 12.5C5 11.6716 4.32843 11 3.5 11C2.67157 11 2 11.6716 2 12.5C2 13.3284 2.67157 14 3.5 14ZM14 3.5C14 4.32843 13.3284 5 12.5 5C11.6716 5 11 4.32843 11 3.5C11 2.67157 11.6716 2 12.5 2C13.3284 2 14 2.67157 14 3.5Z" fill="#40B6E0" fill-opacity="0.7"/>
<path fill-rule="evenodd" clip-rule="evenodd" d="M4 10.5V5.5L8 4.5L12 6V7.83772C11.6414 8.00779 11.3111 8.23916 11.0251 8.52513C10.4287 9.12151 10.0698 9.91095 10.0092 10.7466L8 11.5L4 10.5ZM5.69995 10.3065L4.6 10.0315V5.96847L5.69995 5.69348V10.3065ZM6.29995 10.4565L7.4 10.7315V5.26847L6.29995 5.54348V10.4565Z" fill="#B99BF8" fill-opacity="0.7"/>
<path d="M12.875 16H14.125V14.75H12.875V16ZM13.5 8.5C12.837 8.5 12.2011 8.76339 11.7322 9.23223C11.2634 9.70107 11 10.337 11 11H12.25C12.25 10.312 12.813 9.75 13.5 9.75C14.188 9.75 14.75 10.313 14.75 11C14.75 12.25 12.875 12.094 12.875 14.125H14.125C14.125 12.719 16 12.562 16 11C16 10.337 15.7366 9.70107 15.2678 9.23223C14.7989 8.76339 14.163 8.5 13.5 8.5Z" fill="#AFB1B3"/>
</svg>
