<svg width="12" height="13" viewBox="0 0 12 13" fill="none" xmlns="http://www.w3.org/2000/svg">
<path fill-rule="evenodd" clip-rule="evenodd" d="M4.46428 1.2V1.20981C4.08806 1.25803 3.76657 1.51669 3.64293 1.88303L1.04559 9.57887C0.858438 10.1334 1.27087 10.7079 1.85612 10.7079H3.76529C4.13232 10.7079 4.45845 10.4737 4.57582 10.126L4.81555 9.41565L6.5 10.495V9.62664L3.37914 7.62683H5.29401L5.97651 5.89239L6.5 7.45913V5.15196L5.42384 1.93115H7.51293C7.56626 1.93115 7.61364 1.96517 7.6307 2.0157L9.16738 6.56884L10.1282 7.12933L8.32346 1.7819C8.20609 1.43413 7.87996 1.2 7.51293 1.2H4.46428Z" fill="#40B6E0" fill-opacity="0.7"/>
<path fill-rule="evenodd" clip-rule="evenodd" d="M7.5 12.0039L12 9.37891L7.5 6.75391V12.0039Z" fill="#62B543"/>
</svg>
