<svg width="16" height="16" viewBox="0 0 16 16" fill="none" xmlns="http://www.w3.org/2000/svg">
<path fill-rule="evenodd" clip-rule="evenodd" d="M16 14.3666L16 11.4583L16 11.4583L15.9999 11.4583L13.5 10L11.0001 11.4583L11 11.4583V11.4583V14.3666L11 14.3666L11 14.3666L13.5 15.8333L16 14.3666L16 14.3666L16 14.3666Z" fill="#40B6E0"/>
<path opacity="0.7" fill-rule="evenodd" clip-rule="evenodd" d="M2.87872 2.90381C0.563236 5.2193 0.359892 8.84706 2.26867 11.393L3.56217 10.0995C2.78688 9.01162 2.88726 7.49146 3.86332 6.5154L5.50512 4.8736L4.52022 3.8887L5.50512 2.90381L7.14656 4.54536L8.45981 3.23211L9.44471 4.217L8.13145 5.53026L9.44467 6.84344L10.7579 5.53022L11.7428 6.51512L10.4296 7.82834L12.0711 9.4698L11.5767 9.96423L13.5 8.84229L13.7967 9.01539C14.3038 6.89119 13.7286 4.56128 12.0711 2.90381C9.5327 0.365398 5.41713 0.365398 2.87872 2.90381ZM10 13.4913V10.884L10.9571 10.3256L10.1013 9.4698L8.45989 11.112C7.48377 12.0881 5.96371 12.1878 4.87575 11.4124L3.58187 12.7062C5.45365 14.1096 7.91014 14.3713 10 13.4913Z" fill="#B99BF8"/>
</svg>
