<svg width="16" height="16" viewBox="0 0 16 16" fill="none" xmlns="http://www.w3.org/2000/svg">
<path opacity="0.7" fill-rule="evenodd" clip-rule="evenodd" d="M14.1899 7.8411C14.69 8.39849 14.9771 9.11683 15 9.86783C14.9702 10.6935 14.6251 11.4758 14.0368 12.0514C13.4485 12.6271 12.6623 12.9517 11.8422 12.9576C11.7873 12.9734 11.7306 12.9818 11.6734 12.9827H5.29022C5.17667 12.9921 5.06078 12.9976 4.94333 12.9976C3.93629 13.0336 2.95607 12.6664 2.21708 11.9762C1.4781 11.286 1.04049 10.329 1 9.3146C1.02639 8.41032 1.37372 7.54555 1.97895 6.87726C2.58417 6.20897 3.40718 5.78148 4.29856 5.67237C4.59214 4.87607 5.12405 4.19136 5.82074 3.71294C6.51743 3.23451 7.34446 2.98601 8.18744 3.00182C9.23024 2.97014 10.2434 3.35364 11.0076 4.06924C11.7717 4.78485 12.2253 5.77494 12.27 6.82506C13.0093 6.9236 13.6898 7.28372 14.1899 7.8411ZM6 7H4V9H6V7ZM6 10H4V12H6V10ZM7 10H9V12H7V10ZM12 10H10V12H12V10ZM7 7H9V9H7V7Z" fill="#40B6E0"/>
</svg>
