<svg width="16" height="16" viewBox="0 0 16 16" fill="none" xmlns="http://www.w3.org/2000/svg">
<circle cx="3.5" cy="12.5" r="1.5" fill="#40B6E0" fill-opacity="0.7"/>
<path fill-rule="evenodd" clip-rule="evenodd" d="M8.00005 15C11.1205 15 13.764 12.9582 14.6676 10.1378L13.4331 10.5493C12.4747 12.5883 10.4022 14 8.00005 14C7.20854 14 6.45282 13.8467 5.76096 13.5683C5.61153 13.884 5.39793 14.1634 5.13698 14.3896C6.01097 14.7818 6.98003 15 8.00005 15ZM14.3897 5.13693C14.4952 5.37205 14.5881 5.61405 14.6676 5.86206L13.8653 5.59464C14.0608 5.46698 14.2373 5.3127 14.3897 5.13693ZM10.2391 2.43173C10.3886 2.11603 10.6022 1.83663 10.8631 1.61039C9.98913 1.21817 9.02007 1 8.00005 1C4.64333 1 1.83845 3.36269 1.15771 6.51577L2.30469 6.10727C3.09731 3.72102 5.3477 2 8.00005 2C8.79156 2 9.54727 2.15326 10.2391 2.43173ZM2.30469 9.89274L1.15772 9.48423C1.26129 9.96399 1.41405 10.4254 1.61044 10.8631C1.83668 10.6021 2.11608 10.3885 2.43178 10.2391C2.38599 10.1253 2.34359 10.0098 2.30469 9.89274Z" fill="#40B6E0" fill-opacity="0.7"/>
<circle cx="12.5" cy="3.5" r="1.5" fill="#40B6E0" fill-opacity="0.7"/>
<path d="M1 7L2.5 6.5V9.5L1 9V7Z" fill="#B99BF8"/>
<path d="M9 6L12 5.5L15 6.5V9.5L12 10.5L9 10V6Z" fill="#B99BF8"/>
<path fill-rule="evenodd" clip-rule="evenodd" d="M3 10.8571V5.14286L7.57143 4L10.7674 5.19848L8.5 5.57638V10.4235L10.7676 10.8014L7.57143 12L3 10.8571ZM4.9428 10.636L3.68571 10.3218V5.67825L4.9428 5.36397V10.636ZM5.62852 10.8075L6.88571 11.1218V4.87825L5.62852 5.19255V10.8075Z" fill="#B99BF8"/>
</svg>
