<svg width="13" height="13" viewBox="0 0 13 13" fill="none" xmlns="http://www.w3.org/2000/svg">
<rect x="1" y="1" width="1.5" height="3" fill="#AFB1B3"/>
<rect x="10.5" y="1" width="1.5" height="3" fill="#AFB1B3"/>
<rect x="2" y="1" width="9" height="1.5" fill="#AFB1B3"/>
<rect x="12" y="12" width="1.5" height="3" transform="rotate(-180 12 12)" fill="#AFB1B3"/>
<rect x="2.5" y="12" width="1.5" height="3" transform="rotate(-180 2.5 12)" fill="#AFB1B3"/>
<rect x="11" y="12" width="9" height="1.5" transform="rotate(-180 11 12)" fill="#AFB1B3"/>
<path d="M3.5 5L6.5 3.5L9.5 5L6.5 6.5L3.5 5Z" fill="#AFB1B3"/>
<path fill-rule="evenodd" clip-rule="evenodd" d="M4.25 5.375L3.5 5V9H9.5V5L8.75 5.375V6.125L6.5 7.25L4.25 6.125V5.375Z" fill="#AFB1B3"/>
</svg>
