<svg width="16" height="16" viewBox="0 0 16 16" fill="none" xmlns="http://www.w3.org/2000/svg">
<rect opacity="0.7" x="4" y="4" width="2" height="2" fill="#9AA7B0"/>
<rect opacity="0.7" x="4" y="7" width="2" height="2" fill="#9AA7B0"/>
<rect opacity="0.7" x="7" y="5.5" width="2" height="2" fill="#9AA7B0"/>
<path opacity="0.7" fill-rule="evenodd" clip-rule="evenodd" d="M10 7H12V8.02746C11.2656 8.10865 10.5844 8.36658 10 8.75777V7ZM9 9.67133V8.5H7V10.5H8.46776C8.61497 10.2038 8.79386 9.92608 9 9.67133Z" fill="#9AA7B0"/>
<rect opacity="0.7" x="4" y="10" width="2" height="2" fill="#9AA7B0"/>
<path fill-rule="evenodd" clip-rule="evenodd" d="M15 2V1H1V2V3V5H2H3V3H13L13 5H14H15L15 3V2ZM8.75778 15C8.36658 14.4156 8.10865 13.7344 8.02746 13L3 13L3 12H2H1V13V14V15H8.75778Z" fill="#9AA7B0" fill-opacity="0.8"/>
<circle cx="12.5" cy="12.5" r="3" stroke="#E05555"/>
<rect x="10.3787" y="11.0858" width="1" height="5" transform="rotate(-45 10.3787 11.0858)" fill="#E05555"/>
</svg>
