<svg width="16" height="16" viewBox="0 0 16 16" fill="none" xmlns="http://www.w3.org/2000/svg">
<g clip-path="url(#clip0_2207_72791)">
<path d="M2.66653 4.18667C2.62565 4.18439 2.5872 4.16654 2.55909 4.13677C2.53098 4.10701 2.51535 4.06761 2.51541 4.02667C2.51541 3.55517 2.32811 3.10299 1.99472 2.76959C1.66132 2.43619 1.20913 2.24889 0.737637 2.24889C0.696698 2.24895 0.657293 2.23332 0.62753 2.20521C0.597767 2.1771 0.579911 2.13865 0.577637 2.09778C0.577637 2.07677 0.581775 2.05596 0.589816 2.03655C0.597857 2.01714 0.609642 1.9995 0.6245 1.98464C0.639357 1.96978 0.656995 1.958 0.676407 1.94996C0.695819 1.94192 0.716625 1.93778 0.737637 1.93778C1.20913 1.93778 1.66132 1.75048 1.99472 1.41708C2.32811 1.08368 2.51541 0.631496 2.51541 0.16C2.51535 0.119061 2.53098 0.079656 2.55909 0.0498931C2.5872 0.0201303 2.62565 0.00227432 2.66653 0V0C2.68754 0 2.70834 0.00413852 2.72775 0.0121793C2.74717 0.02022 2.76481 0.0320055 2.77966 0.0468629C2.79452 0.0617203 2.80631 0.0793586 2.81435 0.0987706C2.82239 0.118183 2.82653 0.138988 2.82653 0.16C2.82653 0.631496 3.01383 1.08368 3.34722 1.41708C3.68062 1.75048 4.13281 1.93778 4.6043 1.93778C4.62531 1.93778 4.64612 1.94192 4.66553 1.94996C4.68494 1.958 4.70258 1.96978 4.71744 1.98464C4.7323 1.9995 4.74408 2.01714 4.75212 2.03655C4.76016 2.05596 4.7643 2.07677 4.7643 2.09778C4.76203 2.13865 4.74417 2.1771 4.71441 2.20521C4.68465 2.23332 4.64524 2.24895 4.6043 2.24889C4.13281 2.24889 3.68062 2.43619 3.34722 2.76959C3.01383 3.10299 2.82653 3.55517 2.82653 4.02667C2.82653 4.0691 2.80967 4.1098 2.77966 4.1398C2.74966 4.16981 2.70896 4.18667 2.66653 4.18667Z" fill="#40B6E0" fill-opacity="0.6"/>
<path fill-rule="evenodd" clip-rule="evenodd" d="M15.2798 2.90668C14.7198 2.01779 13.4131 1.61779 11.5909 1.88446C10.9775 1.97736 10.3715 2.114 9.77755 2.29335C10.2589 2.45704 10.7163 2.68423 11.1376 2.96891L11.7776 2.83557C12.1011 2.78493 12.4279 2.75819 12.7553 2.75557C13.6442 2.75557 14.2487 2.97779 14.5331 3.40446C14.8709 3.97335 14.5864 4.94224 13.7509 6.07113C13.6337 6.21521 13.5138 6.35694 13.3915 6.49628C13.3744 6.40465 13.355 6.3133 13.3332 6.22235C12.9958 4.81507 12.1134 3.59939 10.8799 2.84262C9.64636 2.08585 8.1628 1.84995 6.7554 2.18679C5.70552 2.43807 4.75374 2.99505 4.02043 3.78729C3.28713 4.57954 2.80524 5.57145 2.63571 6.63759C2.46619 7.70373 2.61664 8.79619 3.06804 9.77682C3.39866 10.495 3.87985 11.1296 4.47521 11.6396C4.40574 11.6536 4.33615 11.667 4.26644 11.68C2.87978 11.8845 1.88422 11.68 1.54644 11.1111C1.20867 10.5422 1.49311 9.57335 2.32867 8.44446C2.38 8.38029 2.41281 8.33053 2.44592 8.28032L2.44592 8.28031C2.4816 8.2262 2.51762 8.17156 2.57755 8.09779C2.51531 7.61684 2.51531 7.12986 2.57755 6.64891C2.20701 7.02959 1.86811 7.43983 1.56422 7.87557C0.461999 9.35113 0.159777 10.6667 0.719777 11.6C1.01426 11.995 1.40746 12.3056 1.85992 12.5007C2.31238 12.6957 2.80818 12.7683 3.29755 12.7111C3.68155 12.7125 4.06503 12.6828 4.44422 12.6222C4.82605 12.5532 5.20466 12.4702 5.5793 12.3734C6.40038 12.7851 7.3146 12.9842 8.23747 12.9483C8.49432 12.9384 8.74909 12.9103 9 12.8648V11.0486C7.91526 11.622 6.76721 12.0666 5.5793 12.3734C5.44063 12.3039 5.30463 12.2283 5.17168 12.1467C4.92547 11.9956 4.69272 11.826 4.47521 11.6396C6.06555 11.3204 7.59326 10.7474 9 9.94333V9H10.5453C11.5969 8.29161 12.5536 7.45026 13.3915 6.49628C13.4697 6.91695 13.498 7.34379 13.4767 7.76804C13.0538 8.20428 12.6063 8.61559 12.1365 9H13.2719C13.3874 8.59734 13.4558 8.18394 13.4767 7.76804C13.8252 7.40859 14.157 7.03222 14.4709 6.64002C15.5376 5.16446 15.8398 3.84002 15.2798 2.90668Z" fill="#40B6E0" fill-opacity="0.6"/>
<path d="M10 10H16V16H10V10Z" fill="#9AA7B0"/>
</g>
<defs>
<clipPath id="clip0_2207_72791">
<rect width="16" height="16" fill="white"/>
</clipPath>
</defs>
</svg>
