<svg width="16" height="16" viewBox="0 0 16 16" fill="none" xmlns="http://www.w3.org/2000/svg">
<path d="M12.875 16H14.125V14.75H12.875V16ZM13.5 8.5C12.837 8.5 12.2011 8.76339 11.7322 9.23223C11.2634 9.70107 11 10.337 11 11H12.25C12.25 10.312 12.813 9.75 13.5 9.75C14.188 9.75 14.75 10.313 14.75 11C14.75 12.25 12.875 12.094 12.875 14.125H14.125C14.125 12.719 16 12.562 16 11C16 10.337 15.7366 9.70107 15.2678 9.23223C14.7989 8.76339 14.163 8.5 13.5 8.5Z" fill="#AFB1B3"/>
<path fill-rule="evenodd" clip-rule="evenodd" d="M1 2H2H4V3H2V13H4V14H2H1V2ZM12 2H14H15V3V7.83772C14.6848 7.68821 14.3478 7.58608 14 7.53588V3H12V2Z" fill="#9AA7B0" fill-opacity="0.8"/>
<path opacity="0.7" fill-rule="evenodd" clip-rule="evenodd" d="M3 10.6603L7.5 13.2583V8.04802L3 5.77702V10.6603ZM13 7.53588V5.77702L8.5 8.04802V13.2583L10.2597 12.2424L10 12V11C10 10.0717 10.3687 9.1815 11.0251 8.52513C11.5625 7.98776 12.2566 7.64317 13 7.53588ZM7.99999 7.22803L12.869 4.8111L8 2L3.13103 4.8111L7.99999 7.22803Z" fill="#40B6E0"/>
</svg>
