<svg width="16" height="16" viewBox="0 0 16 16" fill="none" xmlns="http://www.w3.org/2000/svg">
<path d="M13.5 16C14.8807 16 16 14.8807 16 13.5C16 12.1193 14.8807 11 13.5 11C12.1193 11 11 12.1193 11 13.5C11 14.8807 12.1193 16 13.5 16Z" fill="url(#paint0_linear_888_72541)"/>
<path fill-rule="evenodd" clip-rule="evenodd" d="M14.8496 2.99609C14.9499 2.32617 15 1.66081 15 1H14.5625C14.3118 1 14.0635 1.01139 13.8174 1.03418C13.5713 1.05697 13.3252 1.08659 13.0791 1.12305C12.5596 1.20052 12.0446 1.30534 11.5342 1.4375C11.0238 1.56966 10.5247 1.73828 10.0371 1.94336C9.54948 2.14844 9.08236 2.38997 8.63574 2.66797C8.18913 2.94596 7.77441 3.26497 7.3916 3.625H3.87793L2.77051 4.73926L4.52051 6.48926L4.47949 6.53027C4.37012 6.63965 4.26302 6.74447 4.1582 6.84473C4.05339 6.94499 3.96452 7.05436 3.8916 7.17285C3.81868 7.29134 3.75944 7.41667 3.71387 7.54883C3.66829 7.68099 3.64551 7.83138 3.64551 8C3.65007 8.20964 3.6888 8.4056 3.76172 8.58789C3.83464 8.77018 3.94401 8.93424 4.08984 9.08008L6.91992 11.9102C7.07031 12.056 7.23665 12.1676 7.41895 12.2451C7.60124 12.3226 7.79492 12.3613 8 12.3613C8.17318 12.3659 8.32357 12.3431 8.45117 12.293C8.57878 12.2428 8.70182 12.1813 8.82031 12.1084C8.9388 12.0355 9.04818 11.9489 9.14844 11.8486C9.2487 11.7484 9.35124 11.6436 9.45605 11.5342L9.51074 11.4795L10.2442 12.213C10.6205 11.2618 11.4016 10.5149 12.375 10.1847V8.41016C12.8398 7.91341 13.2386 7.37565 13.5713 6.79688C13.904 6.2181 14.1751 5.60742 14.3848 4.96484C14.5944 4.32227 14.7493 3.66602 14.8496 2.99609ZM11.3018 6.98828C11.0921 7.07943 10.8665 7.125 10.625 7.125C10.3789 7.12044 10.151 7.07487 9.94141 6.98828C9.73177 6.90169 9.5472 6.77637 9.3877 6.6123C9.22819 6.44824 9.10286 6.26139 9.01172 6.05176C8.92057 5.84212 8.875 5.61654 8.875 5.375C8.87956 5.12891 8.92513 4.90104 9.01172 4.69141C9.09831 4.48177 9.22363 4.2972 9.3877 4.1377C9.55176 3.97819 9.73861 3.85286 9.94824 3.76172C10.1579 3.67057 10.3835 3.625 10.625 3.625C10.8711 3.62956 11.099 3.67513 11.3086 3.76172C11.5182 3.84831 11.7028 3.97363 11.8623 4.1377C12.0218 4.30176 12.1471 4.48861 12.2383 4.69824C12.3294 4.90788 12.375 5.13346 12.375 5.375C12.3704 5.62109 12.3249 5.84896 12.2383 6.05859C12.1517 6.26823 12.0264 6.4528 11.8623 6.6123C11.6982 6.77181 11.5114 6.89714 11.3018 6.98828ZM1.15039 13.7559C1.06836 14.0247 1.01823 14.2799 1 14.5215V15H1.47852C1.73828 14.9863 2.0026 14.9362 2.27148 14.8496C2.54036 14.763 2.8138 14.6559 3.0918 14.5283C3.36979 14.4007 3.63184 14.2617 3.87793 14.1113C4.12402 13.9609 4.34505 13.8151 4.54102 13.6738C4.75065 13.5189 4.94661 13.3594 5.12891 13.1953C5.3112 13.0312 5.49577 12.8604 5.68262 12.6826L5.91504 12.457L3.54297 10.085L3.31738 10.3174C3.12142 10.5179 2.93913 10.7161 2.77051 10.9121C2.60189 11.1081 2.43783 11.3177 2.27832 11.541C2.13704 11.7279 1.99577 11.9443 1.85449 12.1904C1.71322 12.4365 1.58105 12.6917 1.45801 12.9561C1.33496 13.2204 1.23242 13.487 1.15039 13.7559Z" fill="#ACAFB1"/>
<defs>
<linearGradient id="paint0_linear_888_72541" x1="11" y1="11" x2="11" y2="16" gradientUnits="userSpaceOnUse">
<stop stop-color="#528CC7"/>
<stop offset="1" stop-color="#4989CC"/>
</linearGradient>
</defs>
</svg>
