<svg width="16" height="16" viewBox="0 0 16 16" fill="none" xmlns="http://www.w3.org/2000/svg">
<g clip-path="url(#clip0_2212_72758)">
<path d="M2.66653 4.18667C2.62565 4.18439 2.5872 4.16654 2.55909 4.13677C2.53098 4.10701 2.51535 4.06761 2.51541 4.02667V4.02667C2.51541 3.55517 2.32811 3.10299 1.99472 2.76959C1.66132 2.43619 1.20913 2.24889 0.737637 2.24889C0.696698 2.24895 0.657293 2.23332 0.62753 2.20521C0.597767 2.1771 0.579911 2.13865 0.577637 2.09778C0.577637 2.07677 0.581775 2.05596 0.589816 2.03655C0.597857 2.01714 0.609642 1.9995 0.6245 1.98464C0.639357 1.96978 0.656995 1.958 0.676407 1.94996C0.695819 1.94192 0.716625 1.93778 0.737637 1.93778C1.20913 1.93778 1.66132 1.75048 1.99472 1.41708C2.32811 1.08368 2.51541 0.631496 2.51541 0.16C2.51535 0.119061 2.53098 0.079656 2.55909 0.0498931C2.5872 0.0201303 2.62565 0.00227432 2.66653 0V0C2.68754 0 2.70834 0.00413852 2.72775 0.0121793C2.74717 0.02022 2.76481 0.0320055 2.77966 0.0468629C2.79452 0.0617203 2.80631 0.0793586 2.81435 0.0987706C2.82239 0.118183 2.82653 0.138988 2.82653 0.16V0.16C2.82653 0.631496 3.01383 1.08368 3.34722 1.41708C3.68062 1.75048 4.13281 1.93778 4.6043 1.93778C4.62531 1.93778 4.64612 1.94192 4.66553 1.94996C4.68494 1.958 4.70258 1.96978 4.71744 1.98464C4.7323 1.9995 4.74408 2.01714 4.75212 2.03655C4.76016 2.05596 4.7643 2.07677 4.7643 2.09778C4.76203 2.13865 4.74417 2.1771 4.71441 2.20521C4.68465 2.23332 4.64524 2.24895 4.6043 2.24889V2.24889C4.13281 2.24889 3.68062 2.43619 3.34722 2.76959C3.01383 3.10299 2.82653 3.55517 2.82653 4.02667C2.82653 4.0691 2.80967 4.1098 2.77966 4.1398C2.74966 4.16981 2.70896 4.18667 2.66653 4.18667V4.18667Z" fill="#40B6E0" fill-opacity="0.6"/>
<path fill-rule="evenodd" clip-rule="evenodd" d="M11.5909 1.88446C13.4131 1.61779 14.7198 2.01779 15.2798 2.90668C15.8398 3.84002 15.5376 5.16446 14.4709 6.64002C14.157 7.03222 13.8252 7.40859 13.4767 7.76804C13.498 7.34379 13.4698 6.91695 13.3915 6.49628C13.5139 6.35694 13.6337 6.21521 13.7509 6.07113C14.5865 4.94224 14.8709 3.97335 14.5331 3.40446C14.2487 2.97779 13.6442 2.75557 12.7554 2.75557C12.4279 2.75819 12.1011 2.78493 11.7776 2.83557L11.1376 2.96891C10.7163 2.68423 10.2589 2.45704 9.77757 2.29335C10.3715 2.114 10.9775 1.97736 11.5909 1.88446ZM13.3915 6.49628C12.2909 7.74947 10.9851 8.80828 9.52869 9.62668C8.57441 10.225 7.55831 10.7135 6.4999 11.0845V10C6.4999 9.45345 6.18423 9.06986 5.9284 8.85288C5.66523 8.62967 5.34295 8.47151 5.03037 8.35758C4.3966 8.12661 3.58693 8 2.7427 8C2.69219 8 2.64181 8.00045 2.59159 8.00135C2.54941 7.54909 2.56364 7.09096 2.63573 6.63759C2.80526 5.57145 3.28715 4.57954 4.02045 3.78729C4.75376 2.99505 5.70554 2.43807 6.75542 2.18679C8.16282 1.84995 9.64638 2.08585 10.8799 2.84262C12.1134 3.59939 12.9958 4.81507 13.3332 6.22235C13.355 6.3133 13.3744 6.40465 13.3915 6.49628ZM13.2693 9.00892C13.3864 8.60345 13.4557 8.18701 13.4767 7.76804C13.0044 8.25523 12.5014 8.71133 11.971 9.13359C12.2993 9.04644 12.6443 9 13 9C13.0905 9 13.1803 9.00301 13.2693 9.00892ZM9.00226 12.8644C9.03064 12.0125 9.32541 11.228 9.80594 10.5917C8.76426 11.2234 7.65464 11.731 6.4999 12.1055V12.7348C7.06083 12.8981 7.64739 12.9712 8.23749 12.9483C8.4951 12.9383 8.75062 12.9101 9.00226 12.8644ZM1.56424 7.87557C1.50468 7.9553 1.44746 8.03457 1.39258 8.11333C1.76213 8.0483 2.15859 8.01037 2.56599 8.00185C2.5156 7.55215 2.51947 7.09791 2.57757 6.64891C2.20703 7.02959 1.86813 7.43983 1.56424 7.87557Z" fill="#40B6E0" fill-opacity="0.6"/>
<path d="M2.92347 13.4779C2.9812 13.4511 3.03236 13.4119 3.07337 13.3632V13.3763C3.16948 13.2471 3.21318 13.0864 3.19569 12.9263C3.20525 12.7717 3.16381 12.6182 3.07774 12.4895C3.04054 12.4377 2.99121 12.3959 2.93408 12.3677C2.87694 12.3396 2.81376 12.3258 2.75008 12.3278C2.68439 12.3248 2.61897 12.338 2.55956 12.3662C2.50015 12.3944 2.44856 12.4367 2.40932 12.4895C2.31556 12.6149 2.27054 12.7702 2.28262 12.9263C2.27046 13.0818 2.3138 13.2366 2.40495 13.3632C2.44596 13.4119 2.49712 13.4511 2.55485 13.4779C2.61258 13.5048 2.67548 13.5187 2.73916 13.5187C2.80283 13.5187 2.86574 13.5048 2.92347 13.4779Z" fill="#40B6E0" fill-opacity="0.6"/>
<path fill-rule="evenodd" clip-rule="evenodd" d="M2.7428 9C4.25387 9 5.5 9.45902 5.5 10V15C5.5 15.5443 4.26826 16 2.7572 16C1.24613 16 0 15.5436 0 15V10C0 9.45639 1.23174 9 2.7428 9ZM2.75523 10.5C3.85419 10.5 4.75 10.2721 4.75 10C4.75 9.72951 3.84372 9.5 2.74477 9.5C1.64581 9.5 0.75 9.7282 0.75 10C0.75 10.2718 1.65628 10.5 2.75523 10.5ZM4.33158 12.0438V13.5205H5V13.8525H3.92528V12.0438H4.33158ZM0.985094 12.6555C1.05185 12.7119 1.12703 12.7576 1.2079 12.7909C1.34607 12.8457 1.47111 12.9291 1.57488 13.0355C1.64923 13.1197 1.68834 13.2292 1.6841 13.3414C1.68739 13.4185 1.67203 13.4953 1.63933 13.5653C1.60663 13.6353 1.55755 13.6963 1.49624 13.7433C1.34321 13.8426 1.16294 13.8914 0.980726 13.8831C0.819075 13.8879 0.658674 13.8534 0.513266 13.7826V13.3763C0.645528 13.5043 0.822918 13.5749 1.00694 13.5729C1.07637 13.5767 1.14523 13.5584 1.20353 13.5205C1.22515 13.5051 1.24278 13.4848 1.25494 13.4613C1.2671 13.4377 1.27344 13.4116 1.27343 13.3851C1.27343 13.3579 1.26712 13.3312 1.25498 13.3069C1.24285 13.2826 1.22524 13.2615 1.20353 13.2453C1.12146 13.1821 1.03196 13.1293 0.937038 13.088C0.639961 12.9569 0.50016 12.7822 0.50016 12.5594C0.498254 12.4845 0.513389 12.4102 0.544421 12.3421C0.575452 12.274 0.621568 12.2138 0.67928 12.1662C0.829059 12.052 1.01587 11.9975 1.20353 12.0133C1.35228 12.0085 1.50058 12.0322 1.64041 12.0832V12.4589C1.51201 12.3712 1.35894 12.3268 1.20353 12.3322C1.13888 12.3289 1.07481 12.3457 1.02004 12.3802C0.998424 12.3956 0.980796 12.4159 0.968634 12.4395C0.956473 12.463 0.950133 12.4891 0.950144 12.5157C0.943226 12.565 0.955757 12.6152 0.985094 12.6555ZM3.62384 12.922C3.62825 13.1167 3.57833 13.3088 3.47967 13.4768C3.38717 13.6362 3.24192 13.7582 3.069 13.8219L3.59325 14.3069H3.07337L2.70202 13.87C2.54777 13.8671 2.39703 13.8234 2.26515 13.7433C2.13728 13.6642 2.03431 13.5506 1.96807 13.4156C1.89666 13.2734 1.86069 13.116 1.86322 12.9569C1.8589 12.7826 1.89793 12.61 1.97681 12.4545C2.0484 12.3139 2.15917 12.1971 2.29573 12.1181C2.44144 12.0379 2.60561 11.9972 2.77192 12.0001C2.92498 11.9991 3.07564 12.0383 3.2088 12.1137C3.34021 12.1912 3.44641 12.305 3.51462 12.4414C3.59 12.5902 3.62752 12.7552 3.62384 12.922Z" fill="#40B6E0" fill-opacity="0.6"/>
<path d="M16 13C16 14.6569 14.6569 16 13 16C11.3431 16 10 14.6569 10 13C10 11.3431 11.3431 10 13 10C14.6569 10 16 11.3431 16 13Z" fill="#62B543"/>
</g>
<defs>
<clipPath id="clip0_2212_72758">
<rect width="16" height="16" fill="white"/>
</clipPath>
</defs>
</svg>
