<svg width="16" height="16" viewBox="0 0 16 16" fill="none" xmlns="http://www.w3.org/2000/svg">
<g clip-path="url(#clip0_2212_72719)">
<path d="M2.66653 4.18667C2.62565 4.18439 2.5872 4.16654 2.55909 4.13677C2.53098 4.10701 2.51535 4.06761 2.51541 4.02667V4.02667C2.51541 3.55517 2.32811 3.10299 1.99472 2.76959C1.66132 2.43619 1.20913 2.24889 0.737637 2.24889C0.696698 2.24895 0.657293 2.23332 0.62753 2.20521C0.597767 2.1771 0.579911 2.13865 0.577637 2.09778C0.577637 2.07677 0.581775 2.05596 0.589816 2.03655C0.597857 2.01714 0.609642 1.9995 0.6245 1.98464C0.639357 1.96978 0.656995 1.958 0.676407 1.94996C0.695819 1.94192 0.716625 1.93778 0.737637 1.93778C1.20913 1.93778 1.66132 1.75048 1.99472 1.41708C2.32811 1.08368 2.51541 0.631496 2.51541 0.16C2.51535 0.119061 2.53098 0.079656 2.55909 0.0498931C2.5872 0.0201303 2.62565 0.00227432 2.66653 0V0C2.68754 0 2.70834 0.00413852 2.72775 0.0121793C2.74717 0.02022 2.76481 0.0320055 2.77966 0.0468629C2.79452 0.0617203 2.80631 0.0793586 2.81435 0.0987706C2.82239 0.118183 2.82653 0.138988 2.82653 0.16V0.16C2.82653 0.631496 3.01383 1.08368 3.34722 1.41708C3.68062 1.75048 4.13281 1.93778 4.6043 1.93778C4.62531 1.93778 4.64612 1.94192 4.66553 1.94996C4.68494 1.958 4.70258 1.96978 4.71744 1.98464C4.7323 1.9995 4.74408 2.01714 4.75212 2.03655C4.76016 2.05596 4.7643 2.07677 4.7643 2.09778C4.76203 2.13865 4.74417 2.1771 4.71441 2.20521C4.68465 2.23332 4.64524 2.24895 4.6043 2.24889V2.24889C4.13281 2.24889 3.68062 2.43619 3.34722 2.76959C3.01383 3.10299 2.82653 3.55517 2.82653 4.02667C2.82653 4.0691 2.80967 4.1098 2.77966 4.1398C2.74966 4.16981 2.70896 4.18667 2.66653 4.18667V4.18667Z" fill="#40B6E0" fill-opacity="0.6"/>
<path d="M13.8756 15.0222C13.8426 15.0222 13.8109 15.0091 13.7876 14.9858C13.7642 14.9624 13.7511 14.9308 13.7511 14.8978C13.7511 14.5182 13.6003 14.1542 13.3319 13.8858C13.0636 13.6175 12.6996 13.4667 12.32 13.4667C12.287 13.4667 12.2553 13.4536 12.232 13.4302C12.2087 13.4069 12.1956 13.3752 12.1956 13.3422C12.1956 13.3092 12.2087 13.2776 12.232 13.2542C12.2553 13.2309 12.287 13.2178 12.32 13.2178C12.6996 13.2178 13.0636 13.067 13.3319 12.7986C13.6003 12.5302 13.7511 12.1662 13.7511 11.7867C13.7511 11.7537 13.7642 11.722 13.7876 11.6987C13.8109 11.6753 13.8426 11.6622 13.8756 11.6622C13.9086 11.6622 13.9402 11.6753 13.9636 11.6987C13.9869 11.722 14 11.7537 14 11.7867C14 12.1662 14.1508 12.5302 14.4192 12.7986C14.6875 13.067 15.0516 13.2178 15.4311 13.2178C15.4641 13.2178 15.4958 13.2309 15.5191 13.2542C15.5424 13.2776 15.5556 13.3092 15.5556 13.3422C15.5556 13.3752 15.5424 13.4069 15.5191 13.4302C15.4958 13.4536 15.4641 13.4667 15.4311 13.4667C15.2432 13.4667 15.0571 13.5037 14.8835 13.5756C14.7098 13.6475 14.5521 13.7529 14.4192 13.8858C14.2863 14.0187 14.1809 14.1765 14.1089 14.3501C14.037 14.5238 14 14.7099 14 14.8978C14 14.9308 13.9869 14.9624 13.9636 14.9858C13.9402 15.0091 13.9086 15.0222 13.8756 15.0222Z" fill="#9AA7B0" fill-opacity="0.8"/>
<path fill-rule="evenodd" clip-rule="evenodd" d="M11.5908 1.88446C13.413 1.61779 14.7197 2.01779 15.2797 2.90668C15.8397 3.84002 15.5374 5.16446 14.4708 6.64002C14.1569 7.03222 13.8251 7.40859 13.4766 7.76804C13.4979 7.34379 13.4696 6.91695 13.3913 6.49628C13.5137 6.35694 13.6336 6.21521 13.7508 6.07113C14.5863 4.94224 14.8708 3.97335 14.533 3.40446C14.2486 2.97779 13.6441 2.75557 12.7552 2.75557C12.4278 2.75819 12.101 2.78493 11.7774 2.83557L11.1374 2.96891C10.7162 2.68423 10.2588 2.45704 9.77744 2.29335C10.3714 2.114 10.9774 1.97736 11.5908 1.88446ZM13.3913 6.49628C12.2907 7.74947 10.9849 8.80828 9.52855 9.62668C8.05073 10.5533 6.42464 11.2164 4.72273 11.5878C4.7404 11.401 4.74976 11.2051 4.74976 11C4.74976 9.49224 4.18357 8.29862 3.63848 7.49915C3.36506 7.09813 3.09123 6.78744 2.88256 6.57413C2.8071 6.49699 2.7396 6.43202 2.68301 6.37957C2.88499 5.41178 3.34652 4.51524 4.02032 3.78729C4.75363 2.99505 5.70541 2.43807 6.75529 2.18679C8.16269 1.84995 9.64625 2.08585 10.8798 2.84262C12.1133 3.59939 12.9957 4.81507 13.3331 6.22235C13.3549 6.3133 13.3743 6.40465 13.3913 6.49628ZM13.2692 9.00891C13.3863 8.60345 13.4556 8.18701 13.4766 7.76804C13.0042 8.25525 12.5012 8.71136 11.9708 9.13364C12.2992 9.04646 12.6442 9 13 9C13.0905 9 13.1802 9.003 13.2692 9.00891ZM9.00226 12.8644C9.03065 12.0124 9.32547 11.2279 9.80606 10.5916C8.49018 11.3896 7.0659 11.9895 5.57918 12.3734C5.44052 12.3039 5.30451 12.2283 5.17157 12.1467C5.00686 12.0457 4.84818 11.9363 4.69605 11.8191C4.65715 12.1039 4.59839 12.3663 4.52396 12.6076C4.87873 12.5415 5.23067 12.4634 5.57918 12.3734C6.40027 12.7851 7.31449 12.9842 8.23736 12.9483C8.49502 12.9383 8.75058 12.9101 9.00226 12.8644ZM2.5399 7.69441C2.36623 7.47767 2.20621 7.30915 2.08667 7.19243L2.08667 7.19242C2.20621 7.30914 2.36623 7.47766 2.5399 7.69439L2.5399 7.69441ZM2.57324 7.73641L2.57324 7.73639C2.72681 7.93164 2.88955 8.16371 3.04343 8.43022C2.88955 8.16372 2.72681 7.93165 2.57324 7.73641Z" fill="#40B6E0" fill-opacity="0.6"/>
<path d="M3.75 11C3.75 13.5 2.125 14 2.125 14C2.125 14 1.875 13.75 1.875 13V7C1.875 7 3.75 8.5 3.75 11Z" fill="#12924F"/>
<path d="M0 11C0 13.5 1.625 14 1.625 14C1.625 14 1.875 13.75 1.875 13V7C1.875 7 0 8.5 0 11Z" fill="#10AA50"/>
<path d="M1.625 14L1.75 15H2L2.125 14C2.125 14 1.875 13.75 1.875 13C1.875 13.75 1.625 14 1.625 14Z" fill="#B8C4C2"/>
<path d="M16 13C16 14.6569 14.6569 16 13 16C11.3431 16 10 14.6569 10 13C10 11.3431 11.3431 10 13 10C14.6569 10 16 11.3431 16 13Z" fill="#62B543"/>
</g>
<defs>
<clipPath id="clip0_2212_72719">
<rect width="16" height="16" fill="white"/>
</clipPath>
</defs>
</svg>
