<svg width="16" height="16" viewBox="0 0 16 16" fill="none" xmlns="http://www.w3.org/2000/svg">
<g clip-path="url(#clip0_2212_72534)">
<path d="M2.66653 4.18667C2.62565 4.18439 2.5872 4.16654 2.55909 4.13677C2.53098 4.10701 2.51535 4.06761 2.51541 4.02667V4.02667C2.51541 3.55517 2.32811 3.10299 1.99472 2.76959C1.66132 2.43619 1.20913 2.24889 0.737637 2.24889C0.696698 2.24895 0.657293 2.23332 0.62753 2.20521C0.597767 2.1771 0.579911 2.13865 0.577637 2.09778C0.577637 2.07677 0.581775 2.05596 0.589816 2.03655C0.597857 2.01714 0.609642 1.9995 0.6245 1.98464C0.639357 1.96978 0.656995 1.958 0.676407 1.94996C0.695819 1.94192 0.716625 1.93778 0.737637 1.93778C1.20913 1.93778 1.66132 1.75048 1.99472 1.41708C2.32811 1.08368 2.51541 0.631496 2.51541 0.16C2.51535 0.119061 2.53098 0.079656 2.55909 0.0498931C2.5872 0.0201303 2.62565 0.00227432 2.66653 0V0C2.68754 0 2.70834 0.00413852 2.72775 0.0121793C2.74717 0.02022 2.76481 0.0320055 2.77966 0.0468629C2.79452 0.0617203 2.80631 0.0793586 2.81435 0.0987706C2.82239 0.118183 2.82653 0.138988 2.82653 0.16V0.16C2.82653 0.631496 3.01383 1.08368 3.34722 1.41708C3.68062 1.75048 4.13281 1.93778 4.6043 1.93778C4.62531 1.93778 4.64612 1.94192 4.66553 1.94996C4.68494 1.958 4.70258 1.96978 4.71744 1.98464C4.7323 1.9995 4.74408 2.01714 4.75212 2.03655C4.76016 2.05596 4.7643 2.07677 4.7643 2.09778C4.76203 2.13865 4.74417 2.1771 4.71441 2.20521C4.68465 2.23332 4.64524 2.24895 4.6043 2.24889V2.24889C4.13281 2.24889 3.68062 2.43619 3.34722 2.76959C3.01383 3.10299 2.82653 3.55517 2.82653 4.02667C2.82653 4.0691 2.80967 4.1098 2.77966 4.1398C2.74966 4.16981 2.70896 4.18667 2.66653 4.18667V4.18667Z" fill="#40B6E0" fill-opacity="0.6"/>
<path fill-rule="evenodd" clip-rule="evenodd" d="M11.5911 1.88446C13.4133 1.61779 14.72 2.01779 15.28 2.90668C15.84 3.84002 15.5377 5.16446 14.4711 6.64002C14.1572 7.03222 13.8254 7.40859 13.4769 7.76804C13.4982 7.34379 13.4699 6.91695 13.3917 6.49628C13.514 6.35694 13.6339 6.21521 13.7511 6.07113C14.5866 4.94224 14.8711 3.97335 14.5333 3.40446C14.2489 2.97779 13.6444 2.75557 12.7555 2.75557C12.4281 2.75819 12.1013 2.78493 11.7777 2.83557L11.1377 2.96891C10.7165 2.68423 10.2591 2.45704 9.77774 2.29335C10.3717 2.114 10.9777 1.97736 11.5911 1.88446ZM10.5455 9C11.5971 8.29161 12.5538 7.45026 13.3917 6.49628C13.3746 6.40465 13.3552 6.3133 13.3334 6.22235C12.996 4.81507 12.1136 3.59939 10.8801 2.84262C9.64655 2.08585 8.16299 1.84995 6.75559 2.18679C5.70571 2.43807 4.75393 2.99505 4.02062 3.78729C3.28732 4.57954 2.80543 5.57145 2.6359 6.63759C2.53575 7.26744 2.54728 7.90648 2.66656 8.52622C3.0058 8.40939 3.49544 8.28 4.00012 8.28C4.92012 8.28 5.79017 8.71 5.79017 8.71C5.79017 8.71 6.29348 8.6325 6.52017 8.59C7.00017 8.5 7.43017 8.18 7.43017 8.18L8.88017 7.16003L9.00017 8.93C9.00017 8.93 8.99181 9.52357 8.88017 9.88077C8.8638 9.93314 8.84257 9.98888 8.81848 10.0455C8.8792 10.0119 8.93971 9.9779 9 9.94344V9H10.5455ZM12.1367 9C12.6065 8.61559 13.0539 8.20428 13.4769 7.76804C13.456 8.18394 13.3876 8.59734 13.272 9H12.1367ZM9 11.0487C8.76893 11.1708 8.53498 11.2871 8.29839 11.3975C8.24928 11.5261 8.18761 11.6732 8.11017 11.84C7.72017 12.68 6.91017 12.77 6.91017 12.77C6.91017 12.77 6.89106 12.7904 6.85636 12.8256C7.30732 12.9246 7.77139 12.9664 8.23766 12.9483C8.49444 12.9384 8.74915 12.9103 9 12.8648V11.0487ZM4.00012 11.84L4.0001 12.6789L4.00014 12.6789L4.00012 11.84ZM1.48007 8.59C1.36355 8.56815 1.24997 8.53275 1.14478 8.49166C1.26852 8.28992 1.40846 8.08435 1.56441 7.87557C1.86831 7.43983 2.2072 7.02959 2.57775 6.64891C2.5155 7.12986 2.5155 7.61684 2.57775 8.09779C2.51781 8.17156 2.48179 8.2262 2.44611 8.28031L2.44611 8.28032C2.413 8.33053 2.3802 8.38029 2.32886 8.44446C2.26504 8.53068 2.20443 8.61597 2.14708 8.70022C2.00488 8.67805 1.65762 8.62329 1.48007 8.59Z" fill="#40B6E0" fill-opacity="0.6"/>
<path fill-rule="evenodd" clip-rule="evenodd" d="M7.99955 9C6.97459 9.71749 6.27901 9.55808 5.98827 9.70561C5.83902 9.78137 5.75851 9.9045 5.71559 10.0065C5.42634 9.56223 4.91065 9.27803 4.07579 9.27803L4.05382 9.27827L4.03185 9.27803L4.00003 9.27833L3.96815 9.27803L3.94618 9.27827L3.92421 9.27803C3.08947 9.27803 2.57372 9.56229 2.28441 10.0065C2.24143 9.90462 2.16092 9.78089 2.01173 9.70567C1.72105 9.55814 1.02541 9.71755 0.000446458 9.00006C0.000446458 9.00006 -0.0101213 9.14848 0.0715719 9.37005C0.153265 9.59162 0.453499 10.0528 0.513879 10.604C0.521775 10.6763 0.534955 10.7563 0.554369 10.8397L0.757415 10.8567L0.605012 11.0188C0.675484 11.2289 0.788584 11.4422 0.961648 11.597L1.31609 11.4098L1.18595 11.7449C1.39066 11.8389 1.65236 11.8636 1.98483 11.7686C1.96702 11.8315 1.95117 11.9049 1.94939 11.9778C1.94393 12.1987 1.83872 12.6843 3.1261 12.896C3.1261 12.896 3.31442 12.9374 3.39487 13.1307C3.39487 13.1307 3.41387 13.2393 3.99136 13.2456V13.2458H3.9935L3.99944 13.2457H4.00804C4.58554 13.2394 4.60454 13.1309 4.60454 13.1309C4.68498 12.9375 4.87336 12.8961 4.87336 12.8961C6.16063 12.6844 6.05483 12.1988 6.04996 11.9779C6.04818 11.905 6.03286 11.8317 6.01452 11.7687C6.18431 11.8172 6.33559 11.834 6.47024 11.8276L6.45148 11.583L6.58536 11.8146L6.58833 11.814L6.58963 11.6165L6.71769 11.7827C6.94746 11.7083 7.11381 11.5511 7.23243 11.3651L7.01692 11.1306L7.33057 11.1827C7.40021 11.0285 7.44385 10.8673 7.46861 10.724L7.23588 10.6359L7.48381 10.6199C7.48381 10.6193 7.48392 10.6185 7.48404 10.6179L7.32552 10.5318L7.498 10.5126C7.5791 10.0022 7.85083 9.5791 7.92783 9.37059C8.00953 9.14973 7.99896 9.00059 7.99896 9.00059" fill="url(#paint0_linear_2212_72534)"/>
<path fill-rule="evenodd" clip-rule="evenodd" d="M7.99866 9.00059L7.99955 9C7.99955 9 8.01012 9.14843 7.92842 9.36999C7.85136 9.5785 7.57962 10.0017 7.49858 10.512L7.32605 10.5312L7.48457 10.6173L7.48433 10.6192L7.2364 10.6352L7.46914 10.7234C7.44438 10.8667 7.40074 11.028 7.3311 11.1821L7.01745 11.1298L7.23296 11.3644C7.11446 11.5504 6.94798 11.7077 6.71834 11.7821L6.59028 11.6158L6.58897 11.8133L6.58601 11.8139L6.45213 11.5824L6.47089 11.827C6.33671 11.8339 6.18609 11.8166 6.01718 11.7686C5.94576 11.6102 5.88657 11.4258 5.87719 11.3441C5.80772 10.7756 5.86531 10.6118 5.86531 10.6118C5.9945 10.1547 7.1575 9.9501 7.55231 9.61579C7.82957 9.38104 7.95104 9.12895 7.99878 9.00059H7.99866ZM2.07709 11.5238C2.04004 11.6125 2.05453 11.611 1.98328 11.7685C1.65152 11.8635 1.39035 11.8388 1.18594 11.7449L1.31608 11.4099L0.961642 11.5971C0.788578 11.4422 0.675478 11.229 0.605006 11.0188L0.757409 10.8567L0.554363 10.8398C0.536214 10.762 0.522693 10.6833 0.513873 10.604C0.453493 10.0528 0.1532 9.59085 0.0715659 9.36999C-0.0100679 9.14914 0.0004405 9 0.0004405 9L0.00180594 9.00089C0.0628149 9.15764 0.150003 9.30288 0.25965 9.43043C0.440313 9.63627 0.59705 9.73405 0.766967 9.80684L1.358 10.0524C1.45376 10.0877 1.83414 10.2543 1.96701 10.3799C2.09988 10.5055 2.15249 10.5663 2.1573 10.7938C2.1621 11.0213 2.13931 11.1759 2.13693 11.2236C2.13456 11.2714 2.11419 11.4351 2.07709 11.5238V11.5238Z" fill="url(#paint1_linear_2212_72534)"/>
<path fill-rule="evenodd" clip-rule="evenodd" d="M4.60511 11.0981L5.34854 10.8428C5.39908 10.8232 5.45037 10.8057 5.50231 10.7902L5.50611 10.7889L5.50623 10.789C5.56263 10.7727 5.62081 10.7597 5.65863 10.7618C5.75374 10.7678 5.76811 10.866 5.76811 10.866C5.76811 10.866 5.69538 10.802 5.54767 10.8687C5.56548 10.9254 5.56346 10.9904 5.54915 11.0587C5.4972 11.3052 5.29469 11.5145 4.9808 11.5145C4.75383 11.5145 4.55809 11.4077 4.46701 11.2535C4.35926 11.2416 4.2135 11.2287 4.23903 11.2212C4.26456 11.2136 4.48245 11.14 4.60511 11.0981V11.0981Z" fill="#308B6F"/>
<path fill-rule="evenodd" clip-rule="evenodd" d="M5.5344 10.9612C5.5344 10.9612 5.49877 10.8977 5.38152 10.9259C5.26426 10.9542 4.49097 11.2287 4.49097 11.2287C4.49097 11.2287 4.61374 11.5134 5.0342 11.4851C5.47336 11.4556 5.56699 11.0053 5.53386 10.9606" fill="#C42649"/>
<path fill-rule="evenodd" clip-rule="evenodd" d="M3.97702 12.538C2.96844 12.5087 2.5031 12.0648 2.43174 11.9903C2.41949 11.9869 2.40763 11.9822 2.39635 11.9764C2.33627 11.9445 2.29993 11.9019 2.28848 11.8497C2.26906 11.7606 2.33004 11.6803 2.3333 11.6775L2.34897 11.6558C2.3485 11.6564 2.31347 11.7717 2.32742 11.8339C2.33526 11.8691 2.37907 11.903 2.4236 11.9267C2.49882 11.9666 2.6967 11.94 2.94725 11.9061C3.23014 11.868 3.61189 11.8171 4.02986 11.8319C4.44782 11.8165 4.82957 11.868 5.11241 11.9061C5.36295 11.94 5.56078 11.9667 5.63606 11.9267C5.68058 11.903 5.7244 11.8691 5.73224 11.8339C5.74625 11.771 5.71116 11.6558 5.71069 11.6558L5.72636 11.6776C5.72897 11.6809 5.7906 11.7619 5.77118 11.8497C5.75972 11.902 5.72345 11.9445 5.66331 11.9764C5.65203 11.9823 5.64017 11.987 5.62792 11.9904C5.55668 12.0649 5.09062 12.5087 4.0827 12.5381V12.5397C4.06508 12.5397 4.04747 12.5395 4.02986 12.5393L3.97643 12.5397V12.5381L3.97702 12.538Z" fill="#308B6F"/>
<path fill-rule="evenodd" clip-rule="evenodd" d="M3.94239 12.4792C3.84927 12.4727 3.75642 12.4626 3.66406 12.4491C3.65088 12.436 3.62565 12.4065 3.63034 12.3776C3.63663 12.3387 3.70574 12.2173 3.70574 12.2173L3.70645 12.2143L3.823 12.0214L3.93669 12.251C3.96418 12.3165 4.00876 12.4472 3.94239 12.4786V12.4792ZM3.5534 12.4317C3.44554 12.4127 3.33876 12.388 3.23351 12.3577C3.22757 12.337 3.21896 12.2778 3.27139 12.1551L3.27768 12.1403L3.34192 12.0092L3.47414 12.2078C3.51213 12.2702 3.58059 12.3937 3.5534 12.4317V12.4317ZM3.12973 12.3252C3.03911 12.2949 2.9508 12.2582 2.86548 12.2153C2.85319 12.1699 2.89237 12.0975 2.91814 12.0567L2.82671 12.1938L2.93874 12.025L3.05653 12.173C3.08028 12.2078 3.13044 12.284 3.12973 12.324V12.3252ZM2.62604 11.9927C2.70767 11.9878 2.78907 11.9797 2.87005 11.9682C2.87598 12.0201 2.8162 12.1277 2.79429 12.1646L2.78924 12.1722C2.71535 12.1335 2.65753 12.0699 2.62598 11.9927H2.62604ZM2.93915 11.9574L3.28368 11.9191C3.30386 11.9539 3.25732 12.0751 3.23214 12.135L3.17456 12.2527L3.17467 12.2528H3.17444L2.93915 11.9574ZM3.42136 11.908L3.75763 11.8905C3.80513 11.9309 3.75169 12.051 3.7299 12.0932L3.59662 12.3138L3.51273 12.1878C3.46523 12.1133 3.37588 11.9563 3.4213 11.908H3.42136ZM3.91413 11.8884L4.01933 11.8906C4.05445 11.8893 4.08958 11.8886 4.12471 11.8884C4.13778 11.9022 4.15143 11.9207 4.15642 11.9421C4.16722 11.988 4.11456 12.1291 4.11456 12.1291V12.1295L4.01939 12.3219L3.9244 12.1299V12.1292C3.9244 12.1292 3.8718 11.9881 3.88254 11.9422C3.88759 11.9208 3.90119 11.9023 3.91425 11.8885L3.91413 11.8884ZM4.28127 11.8904L4.6176 11.908C4.66195 11.9546 4.57747 12.1056 4.52974 12.1822L4.44211 12.3138L4.31019 12.0954C4.29 12.0554 4.23301 11.9315 4.28127 11.8904V11.8904ZM4.75522 11.9191L5.03171 11.9487C5.04715 12.0211 4.86429 12.2533 4.86429 12.2533L4.80812 12.1387C4.78331 12.0794 4.7348 11.9552 4.75469 11.9191H4.75522ZM5.16886 11.9682L5.41227 11.9927C5.38072 12.0699 5.3229 12.1335 5.24901 12.1722L5.24604 12.1678C5.22597 12.1342 5.16173 12.0217 5.16886 11.9683V11.9682ZM5.17361 12.2145C5.08826 12.2575 4.99993 12.2942 4.90929 12.3244C4.90858 12.2829 4.96035 12.2049 4.9841 12.1713L5.10016 12.0255L5.12403 12.0612C5.14968 12.1026 5.18518 12.1709 5.17361 12.2145V12.2145ZM4.80551 12.357C4.69532 12.389 4.58626 12.4131 4.48491 12.431C4.45725 12.3921 4.52926 12.2648 4.56667 12.2031L4.69621 12.0086L4.76152 12.1428L4.76639 12.1543C4.81881 12.2769 4.81091 12.3361 4.80438 12.357H4.80551ZM4.37508 12.449L4.09604 12.4792C4.02865 12.4473 4.07567 12.3129 4.10304 12.2486L4.21585 12.022L4.33281 12.2155L4.3334 12.2179C4.3334 12.2179 4.40251 12.3387 4.4088 12.3782C4.41343 12.4071 4.38826 12.4365 4.37514 12.4496L4.37508 12.449Z" fill="#FFFFFE"/>
<path fill-rule="evenodd" clip-rule="evenodd" d="M3.95643 9.6156C4.01604 9.65325 3.90965 9.69089 3.73528 9.7201C3.56091 9.74931 3.36089 9.66577 3.36089 9.6156C3.36089 9.56544 3.60336 9.47757 3.70975 9.46504C3.81614 9.45251 3.95649 9.6156 3.95649 9.6156H3.95643ZM4.51035 9.49413C4.57186 9.50274 4.60695 9.54163 4.5718 9.57131C4.53666 9.601 4.42694 9.64897 4.29965 9.62309C4.17236 9.5972 4.12837 9.53243 4.18548 9.49366C4.2426 9.45489 4.51035 9.49366 4.51035 9.49366V9.49413ZM4.29662 9.73458C4.4593 9.72508 4.33011 9.90391 4.23428 9.90854C4.13846 9.91317 4.0237 9.89447 4.04287 9.83331C4.06205 9.77216 4.2965 9.73452 4.2965 9.73452L4.29662 9.73458ZM3.81311 9.87493C3.86239 9.94262 3.67152 9.92332 3.64438 9.89749C3.61725 9.87167 3.6369 9.83236 3.68167 9.82013C3.72643 9.8079 3.81311 9.87493 3.81311 9.87493ZM4.97083 9.63793C5.02284 9.66049 4.95884 9.68127 4.91633 9.6745C4.87382 9.66773 4.70948 9.62012 4.77633 9.59732C4.84318 9.57452 4.97083 9.63787 4.97083 9.63787V9.63793ZM3.11326 9.64167C3.14437 9.63929 3.21377 9.62991 3.17304 9.6628C3.13232 9.69569 3.02711 9.76629 2.97683 9.76629C2.92654 9.76629 2.93616 9.72164 2.9792 9.68631C3.02224 9.65099 3.11326 9.64167 3.11326 9.64167Z" fill="#46A093"/>
<path fill-rule="evenodd" clip-rule="evenodd" d="M4.40383 11.3052C4.40383 11.3052 4.45946 11.6709 5.12707 11.6745C5.12707 11.6745 4.57077 11.6339 4.40383 11.3052ZM3.62608 11.3052C3.62608 11.3052 3.57045 11.6709 2.90283 11.6745C2.90283 11.6745 3.45913 11.6339 3.62608 11.3052Z" fill="#308B6F"/>
<path fill-rule="evenodd" clip-rule="evenodd" d="M5.15458 11.0454C5.15458 11.0454 4.65564 11.1654 4.67357 11.2536C4.6915 11.3418 4.84948 11.4159 5.00022 11.3842C5.15096 11.3525 5.24364 11.1866 5.27303 11.1372C5.30242 11.0878 5.31251 10.989 5.15458 11.0455" fill="#F6305C"/>
<path fill-rule="evenodd" clip-rule="evenodd" d="M4.84587 11.14C4.84587 11.14 4.68439 11.1789 4.68071 11.2495C4.67702 11.3201 4.91819 11.1683 4.97863 11.1436C5.03906 11.1189 4.98219 11.0942 4.84581 11.14" fill="#FFFFFE"/>
<path fill-rule="evenodd" clip-rule="evenodd" d="M3.56306 11.2534C3.47198 11.4076 3.2763 11.5144 3.04927 11.5144C2.73538 11.5144 2.53275 11.3051 2.48086 11.0586C2.46661 10.9909 2.46519 10.926 2.4824 10.8686C2.33469 10.802 2.26196 10.866 2.26196 10.866C2.26196 10.866 2.27633 10.7671 2.37144 10.7618C2.4092 10.7597 2.46744 10.7727 2.52384 10.789L2.52396 10.7889L2.52776 10.7902C2.59461 10.8098 2.65826 10.8338 2.68213 10.8429L3.42556 11.0981L3.79163 11.2212C3.81716 11.2287 3.67141 11.2416 3.56365 11.2535L3.56306 11.2534Z" fill="#308B6F"/>
<path fill-rule="evenodd" clip-rule="evenodd" d="M2.49577 10.9612C2.49577 10.9612 2.5314 10.8977 2.64865 10.9259C2.76591 10.9542 3.5392 11.2287 3.5392 11.2287C3.5392 11.2287 3.41643 11.5134 2.99597 11.4851C2.55681 11.4556 2.46318 11.0053 2.49631 10.9606" fill="#C42649"/>
<path fill-rule="evenodd" clip-rule="evenodd" d="M2.87588 11.0454C2.87588 11.0454 3.37483 11.1654 3.3569 11.2536C3.33897 11.3418 3.18098 11.4159 3.03024 11.3842C2.8795 11.3525 2.78683 11.1866 2.75744 11.1372C2.72805 11.0878 2.71796 10.989 2.87588 11.0455" fill="#F6305C"/>
<path fill-rule="evenodd" clip-rule="evenodd" d="M3.18442 11.14C3.18442 11.14 3.3459 11.1789 3.34946 11.2495C3.35303 11.3201 3.11198 11.1683 3.05161 11.1436C2.99123 11.1189 3.04804 11.0942 3.18442 11.14Z" fill="#FFFFFE"/>
<path fill-rule="evenodd" clip-rule="evenodd" d="M2.53174 11.2888L3.24418 11.5122C3.24418 11.5122 2.87573 11.665 2.53174 11.2887" fill="#83E883"/>
<path fill-rule="evenodd" clip-rule="evenodd" d="M5.51347 11.2888L4.80103 11.5122C4.80103 11.5122 5.16954 11.665 5.51347 11.2887" fill="#82E782"/>
<path d="M10 10H16V16H10V10Z" fill="#9AA7B0"/>
</g>
<defs>
<linearGradient id="paint0_linear_2212_72534" x1="4.00003" y1="9" x2="4.00003" y2="13.2453" gradientUnits="userSpaceOnUse">
<stop stop-color="#A5FFAF"/>
<stop offset="1" stop-color="#64E178"/>
</linearGradient>
<linearGradient id="paint1_linear_2212_72534" x1="3.99996" y1="11.8284" x2="3.99996" y2="9" gradientUnits="userSpaceOnUse">
<stop stop-color="#23C386"/>
<stop offset="1" stop-color="#139E83"/>
</linearGradient>
<clipPath id="clip0_2212_72534">
<rect width="16" height="16" fill="white"/>
</clipPath>
</defs>
</svg>
