<svg width="16" height="16" viewBox="0 0 16 16" fill="none" xmlns="http://www.w3.org/2000/svg">
<g clip-path="url(#clip0_2215_72827)">
<path d="M2.66653 4.18667C2.62565 4.18439 2.5872 4.16654 2.55909 4.13677C2.53098 4.10701 2.51535 4.06761 2.51541 4.02667V4.02667C2.51541 3.55517 2.32811 3.10299 1.99472 2.76959C1.66132 2.43619 1.20913 2.24889 0.737637 2.24889C0.696698 2.24895 0.657293 2.23332 0.62753 2.20521C0.597767 2.1771 0.579911 2.13865 0.577637 2.09778C0.577637 2.07677 0.581775 2.05596 0.589816 2.03655C0.597857 2.01714 0.609642 1.9995 0.6245 1.98464C0.639357 1.96978 0.656995 1.958 0.676407 1.94996C0.695819 1.94192 0.716625 1.93778 0.737637 1.93778C1.20913 1.93778 1.66132 1.75048 1.99472 1.41708C2.32811 1.08368 2.51541 0.631496 2.51541 0.16C2.51535 0.119061 2.53098 0.079656 2.55909 0.0498931C2.5872 0.0201303 2.62565 0.00227432 2.66653 0V0C2.68754 0 2.70834 0.00413852 2.72775 0.0121793C2.74717 0.02022 2.76481 0.0320055 2.77966 0.0468629C2.79452 0.0617203 2.80631 0.0793586 2.81435 0.0987706C2.82239 0.118183 2.82653 0.138988 2.82653 0.16V0.16C2.82653 0.631496 3.01383 1.08368 3.34722 1.41708C3.68062 1.75048 4.13281 1.93778 4.6043 1.93778C4.62531 1.93778 4.64612 1.94192 4.66553 1.94996C4.68494 1.958 4.70258 1.96978 4.71744 1.98464C4.7323 1.9995 4.74408 2.01714 4.75212 2.03655C4.76016 2.05596 4.7643 2.07677 4.7643 2.09778C4.76203 2.13865 4.74417 2.1771 4.71441 2.20521C4.68465 2.23332 4.64524 2.24895 4.6043 2.24889V2.24889C4.13281 2.24889 3.68062 2.43619 3.34722 2.76959C3.01383 3.10299 2.82653 3.55517 2.82653 4.02667C2.82653 4.0691 2.80967 4.1098 2.77966 4.1398C2.74966 4.16981 2.70896 4.18667 2.66653 4.18667V4.18667Z" fill="#40B6E0" fill-opacity="0.6"/>
<path fill-rule="evenodd" clip-rule="evenodd" d="M11.5909 1.88446C13.4131 1.61779 14.7198 2.01779 15.2798 2.90668C15.8398 3.84002 15.5376 5.16446 14.4709 6.64002C14.157 7.03222 13.8252 7.40859 13.4767 7.76804C13.498 7.34379 13.4697 6.91695 13.3915 6.49628C13.5138 6.35694 13.6337 6.21521 13.7509 6.07113C14.5864 4.94224 14.8709 3.97335 14.5331 3.40446C14.2487 2.97779 13.6442 2.75557 12.7553 2.75557C12.4279 2.75819 12.1011 2.78493 11.7776 2.83557L11.1376 2.96891C10.7163 2.68423 10.2589 2.45704 9.77756 2.29335C10.3715 2.114 10.9775 1.97736 11.5909 1.88446ZM7.99992 10.4664C8.33934 10.3047 8.67294 10.1303 9 9.94333V9H10.5453C11.5969 8.29161 12.5536 7.45026 13.3915 6.49628C13.3744 6.40465 13.355 6.3133 13.3332 6.22235C12.9958 4.81507 12.1134 3.59939 10.8799 2.84262C9.64637 2.08585 8.16281 1.84995 6.75541 2.18679C5.70553 2.43807 4.75374 2.99505 4.02044 3.78729C3.28713 4.57954 2.80524 5.57145 2.63572 6.63759C2.5637 7.09051 2.54943 7.54817 2.59145 8H7.99992V10.4664ZM7.99992 11.5329C8.33863 11.3834 8.67221 11.2219 9 11.0486V12.8648C8.74909 12.9103 8.49432 12.9384 8.23748 12.9483C8.15821 12.9514 8.07901 12.9528 7.99992 12.9524V11.5329ZM1.4729 8H2.56577C2.5156 7.55091 2.51953 7.09729 2.57756 6.64891C2.20702 7.02959 1.86812 7.43983 1.56423 7.87557C1.53315 7.91718 1.50271 7.95865 1.4729 8ZM13.4767 7.76804C13.4558 8.18394 13.3874 8.59734 13.2719 9H12.1365C12.6063 8.61559 13.0538 8.20428 13.4767 7.76804Z" fill="#40B6E0" fill-opacity="0.6"/>
<path fill-rule="evenodd" clip-rule="evenodd" d="M7 9H0V15H7V9ZM1 11H2V12H1V11ZM1 13H2V14H1V13ZM4 13H3V14H4V13ZM3 11H4V12H3V11ZM6 13H5V14H6V13ZM5 11H6V12H5V11Z" fill="#9AA7B0" fill-opacity="0.8"/>
<path d="M10 10H16V16H10V10Z" fill="#9AA7B0"/>
</g>
<defs>
<clipPath id="clip0_2215_72827">
<rect width="16" height="16" fill="white"/>
</clipPath>
</defs>
</svg>
