<svg width="16" height="16" viewBox="0 0 16 16" fill="none" xmlns="http://www.w3.org/2000/svg">
<g clip-path="url(#clip0_2215_72875)">
<path d="M2.66653 4.18667C2.62565 4.18439 2.5872 4.16654 2.55909 4.13677C2.53098 4.10701 2.51535 4.06761 2.51541 4.02667V4.02667C2.51541 3.55517 2.32811 3.10299 1.99472 2.76959C1.66132 2.43619 1.20913 2.24889 0.737637 2.24889C0.696698 2.24895 0.657293 2.23332 0.62753 2.20521C0.597767 2.1771 0.579911 2.13865 0.577637 2.09778C0.577637 2.07677 0.581775 2.05596 0.589816 2.03655C0.597857 2.01714 0.609642 1.9995 0.6245 1.98464C0.639357 1.96978 0.656995 1.958 0.676407 1.94996C0.695819 1.94192 0.716625 1.93778 0.737637 1.93778C1.20913 1.93778 1.66132 1.75048 1.99472 1.41708C2.32811 1.08368 2.51541 0.631496 2.51541 0.16C2.51535 0.119061 2.53098 0.079656 2.55909 0.0498931C2.5872 0.0201303 2.62565 0.00227432 2.66653 0V0C2.68754 0 2.70834 0.00413852 2.72775 0.0121793C2.74717 0.02022 2.76481 0.0320055 2.77966 0.0468629C2.79452 0.0617203 2.80631 0.0793586 2.81435 0.0987706C2.82239 0.118183 2.82653 0.138988 2.82653 0.16V0.16C2.82653 0.631496 3.01383 1.08368 3.34722 1.41708C3.68062 1.75048 4.13281 1.93778 4.6043 1.93778C4.62531 1.93778 4.64612 1.94192 4.66553 1.94996C4.68494 1.958 4.70258 1.96978 4.71744 1.98464C4.7323 1.9995 4.74408 2.01714 4.75212 2.03655C4.76016 2.05596 4.7643 2.07677 4.7643 2.09778C4.76203 2.13865 4.74417 2.1771 4.71441 2.20521C4.68465 2.23332 4.64524 2.24895 4.6043 2.24889V2.24889C4.13281 2.24889 3.68062 2.43619 3.34722 2.76959C3.01383 3.10299 2.82653 3.55517 2.82653 4.02667C2.82653 4.0691 2.80967 4.1098 2.77966 4.1398C2.74966 4.16981 2.70896 4.18667 2.66653 4.18667V4.18667Z" fill="#40B6E0" fill-opacity="0.6"/>
<path fill-rule="evenodd" clip-rule="evenodd" d="M15.2798 2.90668C14.7198 2.01779 13.4131 1.61779 11.5909 1.88446C10.9775 1.97736 10.3715 2.114 9.77756 2.29335C10.2589 2.45704 10.7163 2.68423 11.1376 2.96891L11.7776 2.83557C12.1011 2.78493 12.4279 2.75819 12.7553 2.75557C13.6442 2.75557 14.2487 2.97779 14.5331 3.40446C14.8709 3.97335 14.5864 4.94224 13.7509 6.07113C13.6337 6.21521 13.5138 6.35694 13.3915 6.49628C13.3744 6.40465 13.355 6.3133 13.3332 6.22235C12.9958 4.81507 12.1134 3.59939 10.8799 2.84262C9.64637 2.08585 8.16281 1.84995 6.75541 2.18679C5.70553 2.43807 4.75374 2.99505 4.02044 3.78729C3.28713 4.57954 2.80524 5.57145 2.63572 6.63759C2.5637 7.09051 2.54943 7.54817 2.59145 8H7.99992V10.4664C8.52427 10.2166 9.03475 9.93638 9.52867 9.62668C10.985 8.80828 12.2909 7.74947 13.3915 6.49628C13.4697 6.91695 13.498 7.34379 13.4767 7.76804C12.4441 8.83315 11.265 9.74964 9.97312 10.4889C9.33958 10.884 8.68011 11.2327 7.99992 11.5329V12.9524C8.07901 12.9528 8.15821 12.9514 8.23748 12.9483C9.31619 12.9065 10.3583 12.5456 11.2319 11.9115C12.1055 11.2773 12.7715 10.3983 13.1455 9.38564C13.3383 8.86352 13.4491 8.31796 13.4767 7.76804C13.8252 7.40859 14.157 7.03222 14.4709 6.64002C15.5376 5.16446 15.8398 3.84002 15.2798 2.90668ZM1.4729 8C1.50271 7.95865 1.53315 7.91718 1.56423 7.87557C1.86812 7.43983 2.20702 7.02959 2.57756 6.64891C2.51953 7.09729 2.5156 7.55091 2.56577 8H1.4729Z" fill="#40B6E0" fill-opacity="0.6"/>
<path fill-rule="evenodd" clip-rule="evenodd" d="M7 9H0V15H7V9ZM1 11H2V12H1V11ZM1 13H2V14H1V13ZM4 13H3V14H4V13ZM3 11H4V12H3V11ZM6 13H5V14H6V13ZM5 11H6V12H5V11Z" fill="#9AA7B0" fill-opacity="0.8"/>
<path d="M13.8756 15.0222C13.8426 15.0222 13.8109 15.0091 13.7876 14.9858C13.7642 14.9624 13.7511 14.9308 13.7511 14.8978C13.7511 14.5182 13.6003 14.1542 13.3319 13.8858C13.0636 13.6175 12.6996 13.4667 12.32 13.4667C12.287 13.4667 12.2553 13.4536 12.232 13.4302C12.2087 13.4069 12.1956 13.3752 12.1956 13.3422C12.1956 13.3092 12.2087 13.2776 12.232 13.2542C12.2553 13.2309 12.287 13.2178 12.32 13.2178C12.6996 13.2178 13.0636 13.067 13.3319 12.7986C13.6003 12.5302 13.7511 12.1662 13.7511 11.7867C13.7511 11.7537 13.7642 11.722 13.7876 11.6987C13.8109 11.6753 13.8426 11.6622 13.8756 11.6622C13.9086 11.6622 13.9402 11.6753 13.9636 11.6987C13.9869 11.722 14 11.7537 14 11.7867C14 12.1662 14.1508 12.5302 14.4192 12.7986C14.6875 13.067 15.0516 13.2178 15.4311 13.2178C15.4641 13.2178 15.4958 13.2309 15.5191 13.2542C15.5424 13.2776 15.5556 13.3092 15.5556 13.3422C15.5556 13.3752 15.5424 13.4069 15.5191 13.4302C15.4958 13.4536 15.4641 13.4667 15.4311 13.4667C15.2432 13.4667 15.0571 13.5037 14.8835 13.5756C14.7098 13.6475 14.5521 13.7529 14.4192 13.8858C14.2863 14.0187 14.1809 14.1765 14.1089 14.3501C14.037 14.5238 14 14.7099 14 14.8978C14 14.9308 13.9869 14.9624 13.9636 14.9858C13.9402 15.0091 13.9086 15.0222 13.8756 15.0222Z" fill="#40B6E0" fill-opacity="0.6"/>
</g>
<defs>
<clipPath id="clip0_2215_72875">
<rect width="16" height="16" fill="white"/>
</clipPath>
</defs>
</svg>
