<svg width="16" height="16" viewBox="0 0 16 16" fill="none" xmlns="http://www.w3.org/2000/svg">
<g clip-path="url(#clip0_2212_72402)">
<path d="M2.66665 4.18667C2.62577 4.18439 2.58732 4.16654 2.55921 4.13677C2.5311 4.10701 2.51547 4.06761 2.51554 4.02667V4.02667C2.51554 3.55517 2.32824 3.10299 1.99484 2.76959C1.66144 2.43619 1.20925 2.24889 0.737759 2.24889C0.69682 2.24895 0.657415 2.23332 0.627652 2.20521C0.597889 2.1771 0.580033 2.13865 0.577759 2.09778C0.577759 2.07677 0.581897 2.05596 0.589938 2.03655C0.597979 2.01714 0.609764 1.9995 0.624622 1.98464C0.639479 1.96978 0.657117 1.958 0.676529 1.94996C0.695942 1.94192 0.716747 1.93778 0.737759 1.93778C1.20925 1.93778 1.66144 1.75048 1.99484 1.41708C2.32824 1.08368 2.51554 0.631496 2.51554 0.16C2.51547 0.119061 2.5311 0.079656 2.55921 0.0498931C2.58732 0.0201303 2.62577 0.00227432 2.66665 0V0C2.68766 0 2.70846 0.00413852 2.72788 0.0121793C2.74729 0.02022 2.76493 0.0320055 2.77978 0.0468629C2.79464 0.0617203 2.80643 0.0793586 2.81447 0.0987706C2.82251 0.118183 2.82665 0.138988 2.82665 0.16V0.16C2.82665 0.631496 3.01395 1.08368 3.34735 1.41708C3.68074 1.75048 4.13293 1.93778 4.60442 1.93778C4.62544 1.93778 4.64624 1.94192 4.66565 1.94996C4.68507 1.958 4.7027 1.96978 4.71756 1.98464C4.73242 1.9995 4.74421 2.01714 4.75225 2.03655C4.76029 2.05596 4.76443 2.07677 4.76443 2.09778C4.76215 2.13865 4.74429 2.1771 4.71453 2.20521C4.68477 2.23332 4.64536 2.24895 4.60442 2.24889V2.24889C4.13293 2.24889 3.68074 2.43619 3.34735 2.76959C3.01395 3.10299 2.82665 3.55517 2.82665 4.02667C2.82665 4.0691 2.80979 4.1098 2.77978 4.1398C2.74978 4.16981 2.70908 4.18667 2.66665 4.18667V4.18667Z" fill="#40B6E0" fill-opacity="0.6"/>
<path fill-rule="evenodd" clip-rule="evenodd" d="M11.591 1.88446C13.4132 1.61779 14.7199 2.01779 15.2799 2.90668C15.8399 3.84002 15.5377 5.16446 14.471 6.64002C14.2322 6.93839 13.9831 7.22761 13.7241 7.50718C13.6497 7.50241 13.575 7.5 13.5 7.5C13.4946 7.5 13.4891 7.50002 13.4837 7.50004C13.484 7.16448 13.4534 6.82846 13.3916 6.49628C13.514 6.35694 13.6338 6.21521 13.751 6.07113C14.5866 4.94224 14.871 3.97335 14.5332 3.40446C14.2488 2.97779 13.6443 2.75557 12.7555 2.75557C12.428 2.75819 12.1012 2.78493 11.7777 2.83557L11.1377 2.96891C10.7164 2.68423 10.259 2.45704 9.77768 2.29335C10.3716 2.114 10.9776 1.97736 11.591 1.88446ZM12.1059 7.78964C12.5601 7.38596 12.9895 6.95409 13.3916 6.49628C13.3745 6.40465 13.3551 6.3133 13.3333 6.22235C12.9959 4.81507 12.1135 3.59939 10.88 2.84262C9.64648 2.08585 8.16292 1.84995 6.75552 2.18679C5.70564 2.43807 4.75386 2.99505 4.02056 3.78729C3.28725 4.57954 2.80536 5.57145 2.63583 6.63759C2.50712 7.44707 2.56287 8.27173 2.79475 9.05109C2.8642 9.03057 2.93269 9.01345 3 8.99999C5.46248 8.5075 8.12828 9.18823 8.96312 9.96441C9.15393 9.85606 9.34254 9.74346 9.52879 9.62668C9.93415 9.39889 10.3279 9.15247 10.7087 8.88842C10.8052 8.76092 10.9108 8.63947 11.0251 8.52513C11.339 8.21122 11.7064 7.9631 12.1059 7.78964ZM10.0437 10.4483C10.0203 10.4619 9.99677 10.4754 9.97323 10.4889C9.90096 10.534 9.82835 10.5784 9.75541 10.6223C9.45282 11.3072 8.97949 12.1649 8.40531 12.9392C9.10965 12.8902 9.79529 12.7051 10.4251 12.3968L10 12V11C10 10.8141 10.0148 10.6296 10.0437 10.4483ZM1.56434 7.87557C0.812008 8.88273 0.432385 9.81535 0.445263 10.6028C0.812916 10.2463 1.21692 9.91038 1.62407 9.63659C1.77864 9.2703 2.0148 8.86867 2.32879 8.44446C2.38013 8.38029 2.41293 8.33053 2.44604 8.28032L2.44604 8.28031C2.48172 8.2262 2.51774 8.17156 2.57768 8.09779C2.51543 7.61684 2.51543 7.12986 2.57768 6.64891C2.20714 7.02959 1.86824 7.43983 1.56434 7.87557Z" fill="#40B6E0" fill-opacity="0.6"/>
<g opacity="0.8">
<path d="M1.63956 11.3489C1.45668 11.5461 1.35885 11.7644 1.37144 11.9887C1.3932 12.3879 1.75972 12.7225 2.31991 12.9269C2.46228 12.9679 2.60572 13.0053 2.75093 13.0364C2.84579 13.0566 2.94122 13.0729 3.03665 13.0864C3.1271 13.0997 3.21796 13.109 3.30922 13.1183L3.36066 13.1236C3.51037 13.1382 3.66009 13.1365 3.81038 13.1314C3.90044 13.1287 3.98994 13.1192 4.07999 13.1098L4.08238 13.1095C4.41953 13.0752 4.74982 12.9998 5.06981 12.8777C5.31097 12.7861 5.54012 12.6662 5.75267 12.511C5.92927 12.3827 6.08698 12.232 6.22468 12.0554C6.31418 11.9401 6.39198 11.8162 6.45818 11.6841C6.45803 11.6748 6.45773 11.6655 6.45723 11.6563C6.44878 11.504 6.39028 11.3612 6.29003 11.2314C6.25978 11.2142 6.22938 11.197 6.19888 11.1802C5.85257 10.9895 5.49372 10.8376 5.11256 10.7549C4.96743 10.7234 4.82001 10.7015 4.67314 10.6812C4.56914 10.6672 4.46457 10.6582 4.36 10.6537C4.20285 10.6475 4.04571 10.6447 3.88857 10.6452C3.79142 10.6458 3.69428 10.6525 3.5977 10.6627C3.4617 10.6762 3.3257 10.6913 3.19027 10.7127C2.89998 10.76 2.61427 10.8325 2.34626 10.9647C2.15826 11.0575 1.9714 11.1554 1.78911 11.2583C1.73842 11.287 1.68863 11.3173 1.63956 11.3489Z" fill="#BBE6FB"/>
<path d="M6.23486 12.2437C6.23706 12.238 6.24096 12.2332 6.24676 12.2292C6.24286 12.2341 6.23891 12.2389 6.23486 12.2437Z" fill="#BBE6FB"/>
</g>
<path opacity="0.8" d="M2.15621 11.0605C2.13833 11.1691 2.12938 11.273 2.13032 11.334C2.14803 12.3246 2.90175 13.0249 3.81433 13.0249C4.72691 13.0249 5.44805 12.2256 5.43095 11.2339C5.42905 11.1169 5.41405 10.9643 5.3593 10.8187C5.27805 10.7943 5.19579 10.773 5.11249 10.7549C4.96736 10.7234 4.81994 10.7015 4.67307 10.6812C4.56907 10.6672 4.4645 10.6582 4.35993 10.6537C4.20278 10.6475 4.04564 10.6447 3.8885 10.6452C3.79135 10.6458 3.69421 10.6525 3.59763 10.6627C3.46163 10.6762 3.32563 10.6913 3.1902 10.7127C2.89991 10.76 2.6142 10.8325 2.34619 10.9647C2.28269 10.9961 2.21932 11.028 2.15621 11.0605Z" fill="#D3EFFC"/>
<path d="M2.57926 10.8655C2.485 10.9178 2.43187 11.19 2.43415 11.3143C2.44901 12.099 3.06388 12.7352 3.80788 12.7352C4.55304 12.7352 5.14159 12.0416 5.12734 11.2569C5.12419 11.0771 5.08099 10.8401 4.83744 10.705C4.78267 10.6965 4.72783 10.6888 4.67307 10.6812C4.56907 10.6672 4.4645 10.6582 4.35993 10.6537C4.20278 10.6475 4.04564 10.6447 3.88849 10.6452C3.79135 10.6458 3.69421 10.6525 3.59763 10.6627C3.46163 10.6762 3.32563 10.6913 3.1902 10.7127C2.98261 10.7465 2.77737 10.7932 2.57926 10.8655Z" fill="#1287B1"/>
<path fill-rule="evenodd" clip-rule="evenodd" d="M4.15553 11.4351L4.31092 11.1452L4.31138 11.4813L4.55768 11.2776L4.4394 11.5881L4.73904 11.5023L4.52011 11.7406L4.8267 11.7858L4.54144 11.9146L4.80815 12.0839L4.49923 12.0844L4.68662 12.3515L4.40044 12.2237L4.47929 12.5483L4.26036 12.3109L4.21861 12.6437L4.09987 12.3337L3.94403 12.6241L3.94356 12.288L3.69773 12.4912L3.81555 12.1807L3.51638 12.2661L3.73484 12.0287L3.42871 11.983L3.71397 11.8543L3.4468 11.6853L3.75617 11.6849L3.56879 11.4173L3.85497 11.5456L3.77612 11.2205L3.99459 11.458L4.03633 11.1251L4.15553 11.4351Z" fill="white"/>
<path d="M6.6669 11.0221C6.9389 10.7779 7.11375 10.4658 7.2452 10.1198L7.2439 10.121C7.24265 10.1221 7.24145 10.1232 7.2406 10.1249C7.21935 10.1566 7.1983 10.1886 7.17725 10.2206C7.14005 10.2772 7.10275 10.3339 7.06405 10.3893C6.9486 10.5535 6.82635 10.7104 6.67945 10.8421C6.62804 10.8876 6.57319 10.9287 6.51089 10.9557C6.49374 10.9633 6.47589 10.968 6.45814 10.9727C6.45344 10.974 6.44869 10.9752 6.44404 10.9765C6.44309 10.9756 6.44254 10.9738 6.44204 10.9723L6.44174 10.9714C6.55659 10.8589 6.65435 10.7313 6.73835 10.5912C6.82235 10.4517 6.89205 10.3043 6.9486 10.1429C6.9457 10.1467 6.9439 10.1489 6.94265 10.1504C6.9417 10.1515 6.9406 10.153 6.9406 10.153C6.82805 10.3206 6.70805 10.4815 6.56574 10.6216C6.49774 10.6879 6.42689 10.7481 6.34519 10.7931C6.30634 10.8139 6.26634 10.8314 6.21834 10.8364C6.22159 10.8332 6.22344 10.8312 6.22484 10.8296C6.22564 10.8288 6.22689 10.8274 6.22689 10.8274C6.30974 10.7448 6.38919 10.6576 6.46059 10.5625C6.53319 10.4658 6.59659 10.3639 6.6389 10.2469C6.6463 10.2271 6.6522 10.2064 6.65815 10.1857C6.66045 10.1776 6.6628 10.1695 6.6652 10.1614C6.6566 10.1643 6.65205 10.1688 6.64805 10.1738C6.54004 10.3223 6.42344 10.4629 6.29719 10.5951C6.22519 10.6705 6.14974 10.7408 6.06459 10.7988C6.01659 10.8319 5.96634 10.8589 5.90919 10.8691C5.88119 10.8741 5.85489 10.8713 5.82859 10.855C5.92119 10.7431 6.00404 10.6261 6.08059 10.504C6.15659 10.3819 6.22689 10.2565 6.28689 10.1249C6.28234 10.1271 6.28004 10.1294 6.27719 10.1322C6.25459 10.1621 6.23219 10.1921 6.20984 10.222C6.16834 10.2776 6.12694 10.3331 6.08459 10.3876C6.01374 10.4781 5.93834 10.5636 5.85259 10.6379C5.81774 10.6683 5.78059 10.6964 5.73659 10.7099C5.70859 10.7178 5.68173 10.7127 5.66173 10.6913C5.64638 10.6744 5.65283 10.6557 5.65903 10.6378C5.66063 10.6331 5.66228 10.6284 5.66343 10.6238C5.66458 10.6193 5.66688 10.6148 5.66918 10.6109C5.67738 10.5959 5.68558 10.581 5.69378 10.5661C5.71454 10.5282 5.73529 10.4904 5.75659 10.4528C5.76794 10.433 5.78079 10.4144 5.79494 10.3939C5.80009 10.3865 5.80539 10.3788 5.81089 10.3707C5.79684 10.3822 5.78329 10.3935 5.77004 10.4046C5.73738 10.4318 5.70658 10.4575 5.67488 10.4815C5.62288 10.5209 5.56973 10.5591 5.50743 10.5777C5.48458 10.5844 5.46173 10.5873 5.44173 10.5732C5.59468 10.4282 5.69783 10.2451 5.80089 10.0622C5.81259 10.0415 5.82429 10.0207 5.83604 10C5.80954 10.0288 5.78384 10.0583 5.75829 10.0877C5.75239 10.0945 5.74649 10.1013 5.74059 10.108C5.63718 10.2278 5.53033 10.3448 5.41088 10.4466C5.36633 10.4843 5.32058 10.522 5.26403 10.5372C5.25483 10.5398 5.24468 10.5392 5.23328 10.5385C5.22763 10.5381 5.22168 10.5378 5.21543 10.5378C5.24873 10.4641 5.28143 10.392 5.31378 10.3207C5.34818 10.245 5.38218 10.1701 5.41603 10.0951C5.39948 10.1169 5.38368 10.1392 5.36798 10.1614C5.34728 10.1906 5.32668 10.2197 5.30458 10.2475C5.23943 10.3279 5.16518 10.396 5.07033 10.4331C5.01143 10.4556 4.95145 10.4618 4.88916 10.4421C4.89598 10.4316 4.90279 10.4212 4.90956 10.4108C4.92946 10.3804 4.94897 10.3506 4.96688 10.3195C4.99088 10.2784 5.01318 10.2363 5.03433 10.1929C5.04823 10.1636 5.06073 10.1335 5.07398 10.1015C5.07983 10.0876 5.08578 10.0732 5.09203 10.0585C5.07778 10.0759 5.06433 10.0928 5.05123 10.1093C5.02693 10.1399 5.00373 10.1691 4.97888 10.1969C4.92345 10.2604 4.85888 10.3128 4.78402 10.3471C4.70573 10.3836 4.62459 10.3938 4.5423 10.3639C4.51487 10.3533 4.50516 10.3381 4.51602 10.3088C4.52573 10.2807 4.53887 10.2543 4.55259 10.2284C4.5604 10.2143 4.56901 10.2013 4.5776 10.1883C4.58346 10.1794 4.58931 10.1706 4.59487 10.1614C4.5822 10.1707 4.57044 10.1807 4.55872 10.1906C4.55196 10.1963 4.54521 10.202 4.5383 10.2076C4.4703 10.2616 4.40002 10.3128 4.31258 10.3251C4.26344 10.3324 4.20915 10.3133 4.20858 10.243C4.20801 10.2188 4.2103 10.1935 4.21601 10.1699C4.22165 10.1477 4.22852 10.1262 4.23597 10.1029C4.23986 10.0908 4.2439 10.0782 4.24801 10.0647L4.23772 10.0799C4.22255 10.1031 4.20761 10.1265 4.1927 10.1498C4.16215 10.1976 4.1317 10.2453 4.09944 10.2914C4.06801 10.3353 4.03258 10.3752 3.99601 10.414C3.97772 10.4343 3.96515 10.4269 3.9583 10.3999C3.94924 10.3633 3.95569 10.3275 3.96206 10.2922C3.96332 10.2851 3.96459 10.2781 3.96572 10.2711C3.97046 10.2404 3.97683 10.2103 3.98353 10.1786C3.98652 10.1644 3.98958 10.15 3.99258 10.135C3.9863 10.1451 3.9823 10.1513 3.9783 10.1569C3.96572 10.1744 3.95327 10.192 3.9408 10.2096C3.90512 10.26 3.8694 10.3104 3.83086 10.3583C3.80858 10.3864 3.77829 10.4089 3.74743 10.4264C3.70972 10.4472 3.67886 10.4303 3.67143 10.3859C3.66572 10.3516 3.66629 10.3156 3.66858 10.2801C3.67049 10.2571 3.67498 10.2338 3.67946 10.2106C3.68165 10.1993 3.68384 10.1879 3.68572 10.1766C3.67893 10.1909 3.6729 10.2056 3.66684 10.2203C3.66118 10.2341 3.6555 10.248 3.64915 10.2616C3.64717 10.2659 3.6452 10.2702 3.64323 10.2745C3.62134 10.3226 3.59947 10.3707 3.56172 10.4078C3.53543 10.4331 3.51201 10.4343 3.48858 10.4067C3.47143 10.3859 3.45543 10.36 3.44629 10.3336C3.43569 10.3047 3.42858 10.2741 3.42164 10.2442C3.41885 10.2322 3.41609 10.2203 3.41314 10.2087C3.41257 10.2124 3.41206 10.2164 3.41154 10.2206C3.41048 10.2289 3.40933 10.2379 3.40743 10.2469C3.39657 10.3116 3.38057 10.3746 3.34857 10.432C3.32914 10.4646 3.30457 10.4905 3.26857 10.4989C3.24 10.5057 3.21143 10.5123 3.18286 10.5188C3.14 10.5287 3.09714 10.5385 3.05429 10.549C2.75028 10.6233 2.45485 10.7279 2.16856 10.8623C1.86284 11.0063 1.57255 11.1835 1.29598 11.3855C1.13769 11.5013 0.982262 11.6228 0.83483 11.755C0.719399 11.858 0.605113 11.9609 0.493112 12.0683C0.424732 12.1341 0.358287 12.2023 0.291855 12.2705C0.2628 12.3003 0.233749 12.3301 0.204538 12.3597C0.195538 12.3689 0.186834 12.378 0.1782 12.3871C0.169838 12.3959 0.161543 12.4046 0.153109 12.4132C0.144823 12.4222 0.136537 12.4313 0.128251 12.4404C0.119965 12.4496 0.11168 12.4587 0.103394 12.4677C0.113108 12.4672 0.119965 12.4632 0.127394 12.4587C0.283967 12.3653 0.435969 12.2635 0.582257 12.151C0.702439 12.0585 0.822035 11.9646 0.941611 11.8707C1.02558 11.8048 1.10954 11.7389 1.19369 11.6735C1.38512 11.5233 1.57941 11.377 1.78913 11.2583C1.97141 11.1554 2.15827 11.0575 2.34628 10.9647C2.61428 10.8325 2.9 10.7599 3.19029 10.7127C3.32571 10.6913 3.46171 10.6761 3.59772 10.6626C3.69429 10.6525 3.79143 10.6458 3.88858 10.6452C4.04572 10.6446 4.20287 10.6474 4.36001 10.6536C4.46459 10.6581 4.56916 10.6671 4.67316 10.6812C4.82002 10.7014 4.96745 10.7234 5.11258 10.7549C5.49373 10.8376 5.85259 10.9894 6.19889 11.1801C6.25664 11.2121 6.31379 11.2449 6.37094 11.2777C6.44164 11.3184 6.51229 11.3589 6.58404 11.3978C6.6269 11.4209 6.67435 11.4423 6.72175 11.4496C6.82575 11.4659 6.92975 11.4496 7.03145 11.426C7.2612 11.3736 7.46235 11.2561 7.64461 11.0986C7.74291 11.0142 7.83146 10.9186 7.91376 10.8151C7.93741 10.7856 7.95931 10.7552 7.98141 10.7245C7.98756 10.7159 7.99381 10.7073 8.00006 10.6986C7.99261 10.6992 7.98806 10.7037 7.98406 10.7082C7.90976 10.7914 7.83091 10.8708 7.74521 10.9399C7.62061 11.0401 7.49035 11.1278 7.33205 11.1492C7.2766 11.1571 7.22175 11.1503 7.16745 11.1278C7.4149 10.954 7.58061 10.7054 7.72691 10.4376C7.72176 10.4388 7.71836 10.4416 7.71546 10.4449C7.60236 10.5625 7.48345 10.6739 7.35375 10.7706C7.1852 10.8961 7.01035 11.0086 6.80005 11.0316C6.75605 11.0367 6.7126 11.0322 6.6669 11.0221Z" fill="#27282E"/>
<path d="M5.36037 13.109C5.34427 13.0669 5.32792 13.0242 5.31147 12.9807C5.31772 12.9791 5.32392 12.9773 5.33012 12.9756C5.34597 12.9711 5.36157 12.9667 5.37722 12.9655C5.42062 12.9627 5.46007 12.9812 5.49777 13.0026C5.57377 13.0465 5.63777 13.1084 5.69892 13.1736C5.83948 13.3227 5.95948 13.4903 6.07433 13.663C6.09423 13.6927 6.11353 13.7224 6.13278 13.7521C6.14563 13.7719 6.15848 13.7917 6.17148 13.8115C6.17323 13.8064 6.17208 13.8036 6.17033 13.8008C6.15203 13.7654 6.13358 13.73 6.11518 13.6947C6.07098 13.6098 6.02683 13.5251 5.98408 13.4397C5.90238 13.2777 5.82238 13.1157 5.76008 12.9441C5.74293 12.8952 5.72923 12.844 5.72122 12.7928C5.71432 12.7529 5.73833 12.7337 5.77493 12.745C5.79833 12.7523 5.82233 12.7624 5.84348 12.7759C5.92408 12.8277 5.99263 12.8957 6.06063 12.9655C6.08198 12.9876 6.10278 13.0108 6.12363 13.0339C6.13403 13.0455 6.14443 13.057 6.15493 13.0684C6.15663 13.0628 6.15548 13.06 6.15378 13.0572C6.13938 13.0321 6.12473 13.0072 6.11013 12.9823C6.07893 12.9293 6.04788 12.8764 6.01948 12.8221C6.00258 12.7896 5.99188 12.7539 5.98123 12.7185C5.97858 12.7097 5.97593 12.7009 5.97323 12.6921C5.97033 12.6826 5.97548 12.6657 5.98293 12.6584C5.98623 12.6542 5.99643 12.6569 6.00538 12.6592C6.00733 12.6597 6.00918 12.6602 6.01093 12.6606C6.01548 12.6617 6.02063 12.6646 6.02523 12.6679C6.03468 12.6756 6.04418 12.6832 6.05368 12.6907C6.07738 12.7094 6.10088 12.728 6.12293 12.7489C6.28178 12.8987 6.42808 13.0631 6.57463 13.2277L6.58408 13.2383C6.61299 13.2706 6.64159 13.3031 6.67014 13.3356C6.68334 13.3506 6.69659 13.3657 6.70979 13.3806C6.71149 13.3761 6.71034 13.3733 6.70864 13.3711C6.69129 13.3468 6.67374 13.3225 6.65624 13.2983C6.62304 13.2524 6.58973 13.2063 6.55723 13.1596C6.46923 13.0341 6.38408 12.9059 6.31148 12.7692C6.28063 12.7118 6.25208 12.6539 6.23948 12.5881C6.23093 12.5459 6.24748 12.52 6.28693 12.5161C6.30523 12.5144 6.32408 12.5155 6.34233 12.5194C6.39833 12.5307 6.44978 12.5571 6.49948 12.5858L6.57323 12.6286C6.56458 12.619 6.55478 12.6105 6.54518 12.6022C6.53953 12.5973 6.53393 12.5925 6.52863 12.5875C6.51528 12.5753 6.50188 12.563 6.48853 12.5508C6.42808 12.4956 6.36758 12.4404 6.30863 12.3833C6.27778 12.3546 6.25148 12.3203 6.23663 12.277C6.22808 12.2511 6.23323 12.2337 6.25663 12.2241C6.27608 12.2168 6.29778 12.2106 6.31893 12.2084C6.37778 12.2022 6.43608 12.2151 6.49263 12.2331C6.63434 12.277 6.76579 12.3479 6.89494 12.4227C6.91044 12.4313 6.92549 12.4406 6.94159 12.4506C6.95159 12.4568 6.96204 12.4632 6.97324 12.4699C6.97124 12.4666 6.97009 12.4643 6.96929 12.4628C6.96849 12.4612 6.96749 12.4598 6.96749 12.4598C6.95194 12.4433 6.93629 12.4268 6.92069 12.4104C6.87039 12.3576 6.82019 12.3048 6.77264 12.2494C6.74864 12.2219 6.73149 12.1853 6.71779 12.1499C6.70634 12.1217 6.72349 12.1032 6.75094 12.1122C6.78124 12.1229 6.81264 12.1347 6.84124 12.1504C6.96749 12.2236 7.08524 12.313 7.20294 12.4024C7.23609 12.4277 7.26979 12.4536 7.30234 12.4795C7.27879 12.454 7.25339 12.4303 7.22794 12.4065C7.21519 12.3945 7.20239 12.3826 7.18979 12.3704C7.18094 12.3616 7.17204 12.3529 7.16314 12.3442C7.07424 12.2567 6.98514 12.169 6.89834 12.079C6.87094 12.0509 6.84864 12.0143 6.82809 11.9789C6.81149 11.9513 6.82294 11.9288 6.85264 11.9232C6.87094 11.9192 6.89094 11.9164 6.90864 11.9187C6.96579 11.9271 7.02234 11.9355 7.07894 11.9479C7.11539 11.9563 7.15184 11.9667 7.18849 11.977C7.20809 11.9826 7.22779 11.9882 7.24749 11.9935C7.24179 11.9884 7.23549 11.985 7.22924 11.9822C7.19494 11.9627 7.16054 11.9433 7.12614 11.9239C7.04074 11.8757 6.95524 11.8274 6.87094 11.7769C6.83649 11.7566 6.80529 11.7295 6.77444 11.7028C6.76429 11.694 6.75424 11.6853 6.74409 11.6768C6.73779 11.6712 6.73324 11.656 6.73609 11.6492C6.73894 11.6425 6.75209 11.6357 6.76009 11.6374C6.76464 11.6382 6.76919 11.6389 6.77379 11.6396C6.81069 11.6456 6.84844 11.6517 6.88349 11.6627C6.92689 11.6768 6.97004 11.6935 7.01489 11.7109C7.03614 11.7191 7.05784 11.7275 7.08009 11.7359C7.06759 11.7265 7.05589 11.7174 7.04459 11.7087C7.02544 11.6938 7.00759 11.68 6.98924 11.6672C6.89034 11.5986 6.78924 11.5345 6.66924 11.521C6.61148 11.5154 6.55833 11.5266 6.51893 11.575C6.49933 11.5998 6.48508 11.6291 6.47083 11.6583C6.46768 11.6649 6.46448 11.6714 6.46123 11.6779C6.39433 11.8124 6.31548 11.9384 6.22463 12.0554C6.08693 12.232 5.92923 12.3827 5.75263 12.511C5.54007 12.6662 5.31092 12.7861 5.06977 12.8777C4.74977 12.9998 4.41948 13.0752 4.08233 13.1095L4.07995 13.1098C3.9899 13.1192 3.90039 13.1287 3.81033 13.1314C3.66004 13.1365 3.51033 13.1382 3.36061 13.1236C3.34345 13.1218 3.3263 13.12 3.30917 13.1183C3.21791 13.109 3.12706 13.0997 3.03661 13.0864C2.94117 13.0729 2.84575 13.0566 2.75089 13.0364C2.51717 12.9863 2.28803 12.9199 2.06059 12.8485C1.92288 12.8052 1.78402 12.7748 1.64173 12.7664C1.54345 12.7607 1.44459 12.7619 1.3463 12.7652C1.28154 12.7678 1.21653 12.7735 1.1516 12.7791C1.11684 12.7822 1.08211 12.7852 1.04744 12.7877C1.01708 12.7901 0.986712 12.7928 0.956352 12.7955C0.891286 12.8014 0.826215 12.8072 0.76115 12.8091C0.645148 12.8131 0.528577 12.8147 0.412005 12.7979C0.310861 12.7832 0.211431 12.7596 0.11543 12.7214C0.0931491 12.7122 0.0706748 12.7023 0.0482323 12.6924C0.0321107 12.6852 0.0160054 12.6781 0 12.6713C0.0691438 12.7332 0.14343 12.7838 0.22686 12.8198C0.339432 12.8693 0.457719 12.8946 0.578863 12.9059C0.696009 12.9177 0.81315 12.9199 0.930296 12.9171C0.938402 12.9169 0.946507 12.9167 0.954617 12.9165C1.1397 12.9122 1.32522 12.9078 1.50916 12.9385C1.54702 12.9451 1.5838 12.9591 1.62108 12.9734L1.62402 12.9745C1.6463 12.9835 1.66002 13.0049 1.65487 13.0319C1.64802 13.0617 1.64059 13.0915 1.62802 13.1179C1.58002 13.2141 1.51316 13.2951 1.44573 13.375C1.42523 13.3997 1.40423 13.4236 1.38273 13.4481C1.37186 13.4605 1.36086 13.473 1.34973 13.4858C1.35228 13.4852 1.35395 13.4851 1.35502 13.485L1.35659 13.4847C1.37817 13.4667 1.39964 13.4484 1.42112 13.4301C1.46732 13.3908 1.51357 13.3515 1.56116 13.3143C1.6743 13.2254 1.78916 13.1376 1.91774 13.0752C1.95431 13.0572 1.99431 13.0448 2.03431 13.0353C2.07945 13.0234 2.12002 13.0493 2.12574 13.0921C2.12859 13.1185 2.12859 13.1466 2.12345 13.1725C2.10647 13.265 2.0648 13.3459 2.0229 13.4273L2.02174 13.4296C2.00692 13.4582 1.99083 13.4865 1.97457 13.5151C1.97201 13.5196 1.96944 13.5241 1.96688 13.5286L1.97088 13.5319C1.97254 13.5301 1.97411 13.528 1.9757 13.5259C1.97793 13.523 1.98021 13.5199 1.98288 13.5173C2.00096 13.4963 2.01891 13.4752 2.03686 13.454C2.08472 13.3976 2.13259 13.3413 2.18288 13.2873C2.24745 13.2192 2.32003 13.1629 2.4086 13.1348C2.49488 13.1078 2.57717 13.1095 2.64689 13.177C2.72403 13.2513 2.73432 13.2676 2.69032 13.3699C2.6436 13.4788 2.57719 13.5743 2.51102 13.6695C2.50678 13.6756 2.50255 13.6817 2.49831 13.6878C2.48003 13.7131 2.46174 13.7384 2.44288 13.7643C2.44917 13.7631 2.45317 13.7598 2.4566 13.7564C2.49554 13.7196 2.53441 13.6825 2.5733 13.6454C2.65086 13.5714 2.72849 13.4974 2.80689 13.4251C2.85146 13.384 2.89946 13.3446 2.95546 13.3221C2.98689 13.3098 3.00575 13.3188 3.01432 13.3531C3.02175 13.3795 3.02689 13.4076 3.02746 13.4352C3.02917 13.5286 3.01832 13.6214 3.00403 13.7131C3.00103 13.7299 2.999 13.7468 2.99696 13.7637C2.99628 13.7693 2.9956 13.7749 2.99489 13.7806C3.00117 13.7738 3.0046 13.7665 3.00746 13.7598C3.00929 13.7554 3.01112 13.7511 3.01295 13.7468C3.06197 13.6307 3.11104 13.5145 3.17604 13.4082C3.196 13.3758 3.22106 13.3474 3.24593 13.3192C3.24739 13.3176 3.24886 13.3159 3.25032 13.3143C3.25604 13.3069 3.27204 13.3019 3.27889 13.3058C3.28575 13.3098 3.29032 13.3255 3.29089 13.3362C3.29305 13.3976 3.27746 13.4561 3.2618 13.5149C3.26083 13.5185 3.25986 13.5221 3.25889 13.5258C3.19603 13.7621 3.11409 13.9907 3.03198 14.2198L3.02975 14.2261C3.01491 14.2665 3.00001 14.3071 2.98517 14.3481C2.99317 14.3414 2.99832 14.3324 3.00289 14.3239C3.13661 14.0635 3.27204 13.8036 3.42175 13.5539C3.46575 13.4808 3.51433 13.411 3.56461 13.3429C3.59261 13.3053 3.6229 13.3058 3.65718 13.3373C3.69318 13.3688 3.71433 13.4127 3.73261 13.4571C3.77833 13.5651 3.80747 13.6788 3.83318 13.7941C3.83991 13.8235 3.84584 13.853 3.85179 13.8825C3.85596 13.9032 3.86014 13.924 3.86461 13.9448C3.8629 13.8756 3.85833 13.8076 3.85318 13.7395C3.84633 13.6304 3.84061 13.5224 3.85433 13.4144C3.85481 13.4109 3.85524 13.4073 3.85569 13.4037C3.85895 13.3769 3.86248 13.3479 3.88461 13.3351C3.94119 13.3024 4.00119 13.2822 4.06633 13.3036C4.12976 13.3238 4.16119 13.3778 4.18405 13.4397C4.21547 13.5258 4.2229 13.6169 4.22519 13.7074C4.22805 13.8475 4.21662 13.987 4.19719 14.1254C4.18349 14.217 4.16921 14.3081 4.15494 14.3991C4.15405 14.4055 4.15268 14.4118 4.15135 14.4178C4.15011 14.4235 4.14888 14.429 4.14805 14.4348C4.14618 14.4439 4.1447 14.4538 4.14329 14.4633C4.14297 14.4654 4.14265 14.4676 4.14233 14.4696C4.14633 14.4674 4.14862 14.464 4.14976 14.4606C4.23833 14.1934 4.32233 13.9257 4.34348 13.6399C4.35205 13.5258 4.35205 13.4116 4.28119 13.3075C4.46519 13.4425 4.59891 13.6158 4.68748 13.8295C4.77548 14.041 4.81434 14.2632 4.80519 14.5C4.80691 14.4969 4.80805 14.4952 4.80877 14.4942C4.80948 14.4931 4.80977 14.4921 4.80977 14.4921C4.83377 14.3988 4.83434 14.3031 4.82577 14.2075C4.81605 14.0967 4.79491 13.9881 4.76634 13.8813C4.71434 13.6906 4.64348 13.5078 4.56234 13.33L4.55964 13.3241C4.54573 13.2935 4.53209 13.2636 4.51491 13.2276C4.52318 13.2294 4.53096 13.2309 4.53831 13.2322C4.55177 13.2347 4.56382 13.2369 4.57491 13.2406C4.64005 13.2631 4.69205 13.3086 4.74062 13.3587C4.85549 13.4763 4.94634 13.6146 5.03377 13.7569C5.03832 13.7645 5.04307 13.7721 5.04777 13.7797C5.05247 13.7873 5.05722 13.7949 5.06177 13.8025C5.06177 13.7936 5.05912 13.7864 5.05652 13.7794L5.05547 13.7766C5.04662 13.7547 5.03757 13.7327 5.02857 13.7108C5.00272 13.6479 4.97679 13.5849 4.95434 13.5207C4.92291 13.4324 4.8972 13.3418 4.9012 13.2445C4.90406 13.1815 4.93891 13.1382 4.99491 13.1376C5.03207 13.1376 5.06922 13.1404 5.10462 13.1494C5.21147 13.1759 5.28977 13.2484 5.35262 13.3424C5.42122 13.4431 5.46462 13.5573 5.49892 13.6765C5.54232 13.8267 5.56577 13.9808 5.58007 14.1439C5.58242 14.1379 5.58487 14.1328 5.58707 14.1281C5.59027 14.1214 5.59302 14.1156 5.59432 14.1096C5.59562 14.1025 5.59707 14.0953 5.59852 14.0881C5.60307 14.0657 5.60762 14.043 5.60632 14.0213C5.60177 13.9504 5.59547 13.8801 5.58347 13.8109C5.55607 13.654 5.50747 13.5049 5.45377 13.357C5.42372 13.2747 5.39242 13.1929 5.36037 13.109Z" fill="#27282E"/>
<path d="M12.875 16H14.125V14.75H12.875V16ZM13.5 8.5C12.837 8.5 12.2011 8.76339 11.7322 9.23223C11.2634 9.70107 11 10.337 11 11H12.25C12.25 10.312 12.813 9.75 13.5 9.75C14.188 9.75 14.75 10.313 14.75 11C14.75 12.25 12.875 12.094 12.875 14.125H14.125C14.125 12.719 16 12.562 16 11C16 10.337 15.7366 9.70107 15.2678 9.23223C14.7989 8.76339 14.163 8.5 13.5 8.5Z" fill="#AFB1B3"/>
</g>
<defs>
<clipPath id="clip0_2212_72402">
<rect width="16" height="16" fill="white"/>
</clipPath>
</defs>
</svg>
