<svg width="16" height="16" viewBox="0 0 16 16" fill="none" xmlns="http://www.w3.org/2000/svg">
<g clip-path="url(#clip0_2212_72699)">
<path d="M2.66665 4.18667C2.62577 4.18439 2.58732 4.16654 2.55921 4.13677C2.5311 4.10701 2.51547 4.06761 2.51554 4.02667V4.02667C2.51554 3.55517 2.32824 3.10299 1.99484 2.76959C1.66144 2.43619 1.20925 2.24889 0.737759 2.24889C0.69682 2.24895 0.657415 2.23332 0.627652 2.20521C0.597889 2.1771 0.580033 2.13865 0.577759 2.09778C0.577759 2.07677 0.581897 2.05596 0.589938 2.03655C0.597979 2.01714 0.609764 1.9995 0.624622 1.98464C0.639479 1.96978 0.657117 1.958 0.676529 1.94996C0.695942 1.94192 0.716747 1.93778 0.737759 1.93778C1.20925 1.93778 1.66144 1.75048 1.99484 1.41708C2.32824 1.08368 2.51554 0.631496 2.51554 0.16C2.51547 0.119061 2.5311 0.079656 2.55921 0.0498931C2.58732 0.0201303 2.62577 0.00227432 2.66665 0V0C2.68766 0 2.70846 0.00413852 2.72788 0.0121793C2.74729 0.02022 2.76493 0.0320055 2.77978 0.0468629C2.79464 0.0617203 2.80643 0.0793586 2.81447 0.0987706C2.82251 0.118183 2.82665 0.138988 2.82665 0.16V0.16C2.82665 0.631496 3.01395 1.08368 3.34735 1.41708C3.68074 1.75048 4.13293 1.93778 4.60442 1.93778C4.62544 1.93778 4.64624 1.94192 4.66565 1.94996C4.68507 1.958 4.7027 1.96978 4.71756 1.98464C4.73242 1.9995 4.74421 2.01714 4.75225 2.03655C4.76029 2.05596 4.76443 2.07677 4.76443 2.09778C4.76215 2.13865 4.74429 2.1771 4.71453 2.20521C4.68477 2.23332 4.64536 2.24895 4.60442 2.24889V2.24889C4.13293 2.24889 3.68074 2.43619 3.34735 2.76959C3.01395 3.10299 2.82665 3.55517 2.82665 4.02667C2.82665 4.0691 2.80979 4.1098 2.77978 4.1398C2.74978 4.16981 2.70908 4.18667 2.66665 4.18667V4.18667Z" fill="#40B6E0" fill-opacity="0.6"/>
<path fill-rule="evenodd" clip-rule="evenodd" d="M11.591 1.88446C13.4132 1.61779 14.7199 2.01779 15.2799 2.90668C15.8399 3.84002 15.5377 5.16446 14.471 6.64002C14.2322 6.93839 13.9831 7.22761 13.7241 7.50718C13.6497 7.50241 13.575 7.5 13.5 7.5C13.4946 7.5 13.4891 7.50002 13.4837 7.50004C13.484 7.16448 13.4534 6.82846 13.3916 6.49628C13.514 6.35694 13.6338 6.21521 13.751 6.07113C14.5866 4.94224 14.871 3.97335 14.5332 3.40446C14.2488 2.97779 13.6444 2.75557 12.7555 2.75557C12.428 2.75819 12.1012 2.78493 11.7777 2.83557L11.1377 2.96891C10.7164 2.68423 10.2591 2.45704 9.77769 2.29335C10.3716 2.114 10.9776 1.97736 11.591 1.88446ZM12.1059 7.78963C12.5601 7.38595 12.9895 6.95409 13.3916 6.49628C13.3745 6.40465 13.3551 6.3133 13.3333 6.22235C12.996 4.81507 12.1135 3.59939 10.88 2.84262C9.6465 2.08585 8.16294 1.84995 6.75554 2.18679C5.70566 2.43807 4.75388 2.99505 4.02057 3.78729C3.34677 4.51524 2.88524 5.41178 2.68326 6.37957C2.73985 6.43202 2.80734 6.49699 2.88281 6.57413C3.09148 6.78744 3.36531 7.09813 3.63873 7.49915C4.18382 8.29862 4.75 9.49224 4.75 11C4.75 11.2051 4.74064 11.401 4.72298 11.5878C6.42489 11.2164 8.05098 10.5533 9.5288 9.62668C9.93416 9.39889 10.3279 9.15248 10.7087 8.88844C10.8052 8.76093 10.9108 8.63948 11.0251 8.52513C11.339 8.21122 11.7064 7.9631 12.1059 7.78963ZM10.0437 10.4483C10.0203 10.4619 9.99678 10.4754 9.97325 10.4889C8.61121 11.3383 7.12924 11.9732 5.57943 12.3734C5.44077 12.3039 5.30476 12.2283 5.17182 12.1467C5.00711 12.0457 4.84842 11.9363 4.6963 11.8191C4.6574 12.1039 4.59864 12.3663 4.5242 12.6076C4.87898 12.5415 5.23092 12.4634 5.57943 12.3734C6.40052 12.7851 7.31474 12.9842 8.23761 12.9483C9.00068 12.9187 9.74541 12.7295 10.4252 12.3968L10 12V11C10 10.8141 10.0148 10.6296 10.0437 10.4483ZM2.54015 7.69441C2.36647 7.47767 2.20646 7.30915 2.08691 7.19243L2.08692 7.19242C2.20646 7.30914 2.36648 7.47766 2.54014 7.69439L2.54015 7.69441ZM2.57349 7.73641L2.57349 7.73639C2.72706 7.93164 2.8898 8.16371 3.04368 8.43022C2.8898 8.16372 2.72706 7.93165 2.57349 7.73641Z" fill="#40B6E0" fill-opacity="0.6"/>
<path d="M3.75 11C3.75 13.5 2.125 14 2.125 14C2.125 14 1.875 13.75 1.875 13V7C1.875 7 3.75 8.5 3.75 11Z" fill="#12924F"/>
<path d="M0 11C0 13.5 1.625 14 1.625 14C1.625 14 1.875 13.75 1.875 13V7C1.875 7 0 8.5 0 11Z" fill="#10AA50"/>
<path d="M1.625 14L1.75 15H2L2.125 14C2.125 14 1.875 13.75 1.875 13C1.875 13.75 1.625 14 1.625 14Z" fill="#B8C4C2"/>
<path d="M12.875 16H14.125V14.75H12.875V16ZM13.5 8.5C12.837 8.5 12.2011 8.76339 11.7322 9.23223C11.2634 9.70107 11 10.337 11 11H12.25C12.25 10.312 12.813 9.75 13.5 9.75C14.188 9.75 14.75 10.313 14.75 11C14.75 12.25 12.875 12.094 12.875 14.125H14.125C14.125 12.719 16 12.562 16 11C16 10.337 15.7366 9.70107 15.2678 9.23223C14.7989 8.76339 14.163 8.5 13.5 8.5Z" fill="#AFB1B3"/>
</g>
<defs>
<clipPath id="clip0_2212_72699">
<rect width="16" height="16" fill="white"/>
</clipPath>
</defs>
</svg>
