<svg width="16" height="16" viewBox="0 0 16 16" fill="none" xmlns="http://www.w3.org/2000/svg">
<g clip-path="url(#clip0_2207_72832)">
<path d="M2.66665 4.18667C2.62577 4.18439 2.58732 4.16654 2.55921 4.13677C2.5311 4.10701 2.51547 4.06761 2.51554 4.02667C2.51554 3.55517 2.32824 3.10299 1.99484 2.76959C1.66144 2.43619 1.20925 2.24889 0.737759 2.24889C0.69682 2.24895 0.657415 2.23332 0.627652 2.20521C0.597889 2.1771 0.580033 2.13865 0.577759 2.09778C0.577759 2.07677 0.581897 2.05596 0.589938 2.03655C0.597979 2.01714 0.609764 1.9995 0.624622 1.98464C0.639479 1.96978 0.657117 1.958 0.676529 1.94996C0.695942 1.94192 0.716747 1.93778 0.737759 1.93778C1.20925 1.93778 1.66144 1.75048 1.99484 1.41708C2.32824 1.08368 2.51554 0.631496 2.51554 0.16C2.51547 0.119061 2.5311 0.079656 2.55921 0.0498931C2.58732 0.0201303 2.62577 0.00227432 2.66665 0V0C2.68766 0 2.70846 0.00413852 2.72788 0.0121793C2.74729 0.02022 2.76493 0.0320055 2.77978 0.0468629C2.79464 0.0617203 2.80643 0.0793586 2.81447 0.0987706C2.82251 0.118183 2.82665 0.138988 2.82665 0.16C2.82665 0.631496 3.01395 1.08368 3.34735 1.41708C3.68074 1.75048 4.13293 1.93778 4.60442 1.93778C4.62544 1.93778 4.64624 1.94192 4.66565 1.94996C4.68507 1.958 4.7027 1.96978 4.71756 1.98464C4.73242 1.9995 4.7442 2.01714 4.75225 2.03655C4.76029 2.05596 4.76443 2.07677 4.76443 2.09778C4.76215 2.13865 4.74429 2.1771 4.71453 2.20521C4.68477 2.23332 4.64536 2.24895 4.60442 2.24889C4.13293 2.24889 3.68074 2.43619 3.34735 2.76959C3.01395 3.10299 2.82665 3.55517 2.82665 4.02667C2.82665 4.0691 2.80979 4.1098 2.77978 4.1398C2.74978 4.16981 2.70908 4.18667 2.66665 4.18667Z" fill="#40B6E0" fill-opacity="0.6"/>
<path fill-rule="evenodd" clip-rule="evenodd" d="M15.2798 2.90668C14.7198 2.01779 13.4131 1.61779 11.5909 1.88446C10.9775 1.97736 10.3715 2.114 9.77755 2.29335C10.2589 2.45704 10.7163 2.68423 11.1376 2.96891L11.7776 2.83557C12.1011 2.78493 12.4279 2.75819 12.7553 2.75557C13.6442 2.75557 14.2487 2.97779 14.5331 3.40446C14.8709 3.97335 14.5864 4.94224 13.7509 6.07113C13.6337 6.21521 13.5138 6.35694 13.3915 6.49628C13.3744 6.40465 13.355 6.3133 13.3332 6.22235C12.9958 4.81507 12.1134 3.59939 10.8799 2.84262C9.64636 2.08585 8.1628 1.84995 6.7554 2.18679C5.70552 2.43807 4.75374 2.99505 4.02043 3.78729C3.28713 4.57954 2.80524 5.57145 2.63571 6.63759C2.46619 7.70373 2.61664 8.79619 3.06804 9.77682C3.39866 10.495 3.87985 11.1296 4.47521 11.6396C4.40574 11.6536 4.33615 11.667 4.26644 11.68C2.87978 11.8845 1.88422 11.68 1.54644 11.1111C1.20867 10.5422 1.49311 9.57335 2.32867 8.44446C2.38 8.38029 2.41281 8.33053 2.44592 8.28032L2.44592 8.28031C2.4816 8.2262 2.51762 8.17156 2.57755 8.09779C2.51531 7.61684 2.51531 7.12986 2.57755 6.64891C2.20701 7.02959 1.86811 7.43983 1.56422 7.87557C0.461999 9.35113 0.159777 10.6667 0.719777 11.6C1.01426 11.995 1.40746 12.3056 1.85992 12.5007C2.31238 12.6957 2.80818 12.7683 3.29755 12.7111C3.68155 12.7125 4.06503 12.6828 4.44422 12.6222C4.82605 12.5532 5.20466 12.4702 5.5793 12.3734C6.40038 12.7851 7.3146 12.9842 8.23747 12.9483C9.00057 12.9187 9.74534 12.7295 10.4251 12.3968L10 12V11C10 10.814 10.0148 10.6296 10.0438 10.4482C10.0202 10.4619 9.9967 10.4754 9.97311 10.4889C8.61107 11.3383 7.12911 11.9732 5.5793 12.3734C5.44063 12.3039 5.30463 12.2283 5.17168 12.1467C4.92547 11.9956 4.69272 11.826 4.47521 11.6396C6.26701 11.28 7.97932 10.5981 9.52867 9.62668C9.93412 9.39884 10.3279 9.15236 10.7088 8.88824C10.8053 8.7608 10.9108 8.63942 11.0251 8.52513C11.339 8.21128 11.7063 7.9632 12.1056 7.78974C12.5599 7.38603 12.9894 6.95413 13.3915 6.49628C13.4533 6.82846 13.4839 7.16448 13.4836 7.50004C13.489 7.50002 13.4945 7.5 13.5 7.5C13.5749 7.5 13.6496 7.50241 13.7239 7.50717C13.9829 7.2276 14.2321 6.93839 14.4709 6.64002C15.5376 5.16446 15.8398 3.84002 15.2798 2.90668Z" fill="#40B6E0" fill-opacity="0.6"/>
<path d="M12.875 16H14.125V14.75H12.875V16ZM13.5 8.5C12.837 8.5 12.2011 8.76339 11.7322 9.23223C11.2634 9.70107 11 10.337 11 11H12.25C12.25 10.312 12.813 9.75 13.5 9.75C14.188 9.75 14.75 10.313 14.75 11C14.75 12.25 12.875 12.094 12.875 14.125H14.125C14.125 12.719 16 12.562 16 11C16 10.337 15.7366 9.70107 15.2678 9.23223C14.7989 8.76339 14.163 8.5 13.5 8.5Z" fill="#AFB1B3"/>
</g>
<defs>
<clipPath id="clip0_2207_72832">
<rect width="16" height="16" fill="white"/>
</clipPath>
</defs>
</svg>
