<svg width="16" height="16" viewBox="0 0 16 16" fill="none" xmlns="http://www.w3.org/2000/svg">
<g clip-path="url(#clip0_2212_72604)">
<path d="M2.66665 4.18667C2.62577 4.18439 2.58732 4.16654 2.55921 4.13677C2.5311 4.10701 2.51547 4.06761 2.51554 4.02667V4.02667C2.51554 3.55517 2.32824 3.10299 1.99484 2.76959C1.66144 2.43619 1.20925 2.24889 0.737759 2.24889C0.69682 2.24895 0.657415 2.23332 0.627652 2.20521C0.597889 2.1771 0.580033 2.13865 0.577759 2.09778C0.577759 2.07677 0.581897 2.05596 0.589938 2.03655C0.597979 2.01714 0.609764 1.9995 0.624622 1.98464C0.639479 1.96978 0.657117 1.958 0.676529 1.94996C0.695942 1.94192 0.716747 1.93778 0.737759 1.93778C1.20925 1.93778 1.66144 1.75048 1.99484 1.41708C2.32824 1.08368 2.51554 0.631496 2.51554 0.16C2.51547 0.119061 2.5311 0.079656 2.55921 0.0498931C2.58732 0.0201303 2.62577 0.00227432 2.66665 0V0C2.68766 0 2.70846 0.00413852 2.72788 0.0121793C2.74729 0.02022 2.76493 0.0320055 2.77978 0.0468629C2.79464 0.0617203 2.80643 0.0793586 2.81447 0.0987706C2.82251 0.118183 2.82665 0.138988 2.82665 0.16V0.16C2.82665 0.631496 3.01395 1.08368 3.34735 1.41708C3.68074 1.75048 4.13293 1.93778 4.60442 1.93778C4.62544 1.93778 4.64624 1.94192 4.66565 1.94996C4.68507 1.958 4.7027 1.96978 4.71756 1.98464C4.73242 1.9995 4.74421 2.01714 4.75225 2.03655C4.76029 2.05596 4.76443 2.07677 4.76443 2.09778C4.76215 2.13865 4.74429 2.1771 4.71453 2.20521C4.68477 2.23332 4.64536 2.24895 4.60442 2.24889V2.24889C4.13293 2.24889 3.68074 2.43619 3.34735 2.76959C3.01395 3.10299 2.82665 3.55517 2.82665 4.02667C2.82665 4.0691 2.80979 4.1098 2.77978 4.1398C2.74978 4.16981 2.70908 4.18667 2.66665 4.18667V4.18667Z" fill="#40B6E0" fill-opacity="0.6"/>
<path fill-rule="evenodd" clip-rule="evenodd" d="M11.591 1.88446C13.4132 1.61779 14.7198 2.01779 15.2798 2.90668C15.8398 3.84002 15.5376 5.16446 14.471 6.64002C14.2322 6.93839 13.983 7.2276 13.724 7.50717C13.6497 7.50241 13.575 7.5 13.5 7.5C13.4945 7.5 13.4891 7.50002 13.4836 7.50004C13.484 7.16448 13.4533 6.82846 13.3915 6.49628C13.5139 6.35694 13.6337 6.21521 13.751 6.07113C14.5865 4.94224 14.871 3.97335 14.5332 3.40446C14.2487 2.97779 13.6443 2.75557 12.7554 2.75557C12.428 2.75819 12.1011 2.78493 11.7776 2.83557L11.1376 2.96891C10.7164 2.68423 10.259 2.45704 9.77762 2.29335C10.3715 2.114 10.9775 1.97736 11.591 1.88446ZM12.1058 7.78969C12.56 7.38599 12.9894 6.95411 13.3915 6.49628C13.3745 6.40465 13.3551 6.3133 13.3332 6.22235C12.9959 4.81507 12.1134 3.59939 10.8799 2.84262C9.64643 2.08585 8.16287 1.84995 6.75547 2.18679C5.70559 2.43807 4.75381 2.99505 4.0205 3.78729C3.2872 4.57954 2.80531 5.57145 2.63578 6.63759C2.53563 7.26744 2.54716 7.90648 2.66644 8.52622C3.00568 8.40939 3.49532 8.28 4 8.28C4.92 8.28 5.79005 8.71 5.79005 8.71C5.79005 8.71 6.29336 8.6325 6.52005 8.59C7.00005 8.5 7.43005 8.18 7.43005 8.18L8.88005 7.16003L9.00005 8.93C9.00005 8.93 8.99169 9.52357 8.88005 9.88077C8.86368 9.93314 8.84245 9.98888 8.81836 10.0455C9.05865 9.91255 9.29554 9.7729 9.52873 9.62668C9.93414 9.39887 10.3279 9.15242 10.7088 8.88834C10.8052 8.76087 10.9108 8.63945 11.0251 8.52513C11.339 8.21125 11.7064 7.96315 12.1058 7.78969ZM10.0437 10.4483C10.0203 10.4619 9.99674 10.4754 9.97318 10.4889C9.43268 10.826 8.87329 11.1293 8.29826 11.3975C8.24916 11.5261 8.18749 11.6732 8.11005 11.84C7.72005 12.68 6.91005 12.77 6.91005 12.77C6.91005 12.77 6.89094 12.7904 6.85624 12.8256C7.3072 12.9246 7.77127 12.9664 8.23754 12.9483C9.00062 12.9187 9.74537 12.7295 10.4251 12.3968L10 12V11C10 10.814 10.0148 10.6296 10.0437 10.4483ZM4 11.84L3.99998 12.6789L4.00001 12.6789L4 11.84ZM1.47995 8.59C1.36342 8.56815 1.24985 8.53275 1.14465 8.49166C1.2684 8.28992 1.40834 8.08435 1.56429 7.87557C1.86818 7.43983 2.20708 7.02959 2.57762 6.64891C2.51538 7.12986 2.51538 7.61684 2.57762 8.09779C2.51769 8.17156 2.48166 8.2262 2.44599 8.28031L2.44598 8.28032C2.41288 8.33053 2.38007 8.38029 2.32873 8.44446C2.26492 8.53068 2.20431 8.61597 2.14695 8.70022C2.00476 8.67805 1.6575 8.62329 1.47995 8.59Z" fill="#40B6E0" fill-opacity="0.6"/>
<path fill-rule="evenodd" clip-rule="evenodd" d="M7.99955 9C6.97459 9.71749 6.27901 9.55808 5.98827 9.70561C5.83902 9.78137 5.75851 9.9045 5.71559 10.0065C5.42634 9.56223 4.91065 9.27803 4.07579 9.27803L4.05382 9.27827L4.03185 9.27803L4.00003 9.27833L3.96815 9.27803L3.94618 9.27827L3.92421 9.27803C3.08947 9.27803 2.57372 9.56229 2.28441 10.0065C2.24143 9.90462 2.16092 9.78089 2.01173 9.70567C1.72105 9.55814 1.02541 9.71755 0.000446458 9.00006C0.000446458 9.00006 -0.0101213 9.14848 0.0715719 9.37005C0.153265 9.59162 0.453499 10.0528 0.513879 10.604C0.521775 10.6763 0.534955 10.7563 0.554369 10.8397L0.757415 10.8567L0.605012 11.0188C0.675484 11.2289 0.788584 11.4422 0.961648 11.597L1.31609 11.4098L1.18595 11.7449C1.39066 11.8389 1.65236 11.8636 1.98483 11.7686C1.96702 11.8315 1.95117 11.9049 1.94939 11.9778C1.94393 12.1987 1.83872 12.6843 3.1261 12.896C3.1261 12.896 3.31442 12.9374 3.39487 13.1307C3.39487 13.1307 3.41387 13.2393 3.99136 13.2456V13.2458H3.9935L3.99944 13.2457H4.00804C4.58554 13.2394 4.60454 13.1309 4.60454 13.1309C4.68498 12.9375 4.87336 12.8961 4.87336 12.8961C6.16063 12.6844 6.05483 12.1988 6.04996 11.9779C6.04818 11.905 6.03286 11.8317 6.01452 11.7687C6.18431 11.8172 6.33559 11.834 6.47024 11.8276L6.45148 11.583L6.58536 11.8146L6.58833 11.814L6.58963 11.6165L6.71769 11.7827C6.94746 11.7083 7.11381 11.5511 7.23243 11.3651L7.01692 11.1306L7.33057 11.1827C7.40021 11.0285 7.44385 10.8673 7.46861 10.724L7.23588 10.6359L7.48381 10.6199C7.48381 10.6193 7.48392 10.6185 7.48404 10.6179L7.32552 10.5318L7.498 10.5126C7.5791 10.0022 7.85083 9.5791 7.92783 9.37059C8.00953 9.14973 7.99896 9.00059 7.99896 9.00059" fill="url(#paint0_linear_2212_72604)"/>
<path fill-rule="evenodd" clip-rule="evenodd" d="M7.99866 9.00059L7.99955 9C7.99955 9 8.01012 9.14843 7.92842 9.36999C7.85136 9.5785 7.57962 10.0017 7.49858 10.512L7.32605 10.5312L7.48457 10.6173L7.48433 10.6192L7.2364 10.6352L7.46914 10.7234C7.44438 10.8667 7.40074 11.028 7.3311 11.1821L7.01745 11.1298L7.23296 11.3644C7.11446 11.5504 6.94798 11.7077 6.71834 11.7821L6.59028 11.6158L6.58897 11.8133L6.58601 11.8139L6.45213 11.5824L6.47089 11.827C6.33671 11.8339 6.18609 11.8166 6.01718 11.7686C5.94576 11.6102 5.88657 11.4258 5.87719 11.3441C5.80772 10.7756 5.86531 10.6118 5.86531 10.6118C5.9945 10.1547 7.1575 9.9501 7.55231 9.61579C7.82957 9.38104 7.95104 9.12895 7.99878 9.00059H7.99866ZM2.07709 11.5238C2.04004 11.6125 2.05453 11.611 1.98328 11.7685C1.65152 11.8635 1.39035 11.8388 1.18594 11.7449L1.31608 11.4099L0.961642 11.5971C0.788578 11.4422 0.675478 11.229 0.605006 11.0188L0.757409 10.8567L0.554363 10.8398C0.536214 10.762 0.522693 10.6833 0.513873 10.604C0.453493 10.0528 0.1532 9.59085 0.0715659 9.36999C-0.0100679 9.14914 0.0004405 9 0.0004405 9L0.00180594 9.00089C0.0628149 9.15764 0.150003 9.30288 0.25965 9.43043C0.440313 9.63627 0.59705 9.73405 0.766967 9.80684L1.358 10.0524C1.45376 10.0877 1.83414 10.2543 1.96701 10.3799C2.09988 10.5055 2.15249 10.5663 2.1573 10.7938C2.1621 11.0213 2.13931 11.1759 2.13693 11.2236C2.13456 11.2714 2.11419 11.4351 2.07709 11.5238V11.5238Z" fill="url(#paint1_linear_2212_72604)"/>
<path fill-rule="evenodd" clip-rule="evenodd" d="M4.60523 11.0981L5.34866 10.8428C5.3992 10.8232 5.4505 10.8057 5.50243 10.7902L5.50623 10.7889L5.50635 10.789C5.56275 10.7727 5.62093 10.7597 5.65875 10.7618C5.75386 10.7678 5.76823 10.866 5.76823 10.866C5.76823 10.866 5.6955 10.802 5.54779 10.8687C5.5656 10.9254 5.56358 10.9904 5.54927 11.0587C5.49732 11.3052 5.29481 11.5145 4.98092 11.5145C4.75395 11.5145 4.55821 11.4077 4.46713 11.2535C4.35938 11.2416 4.21362 11.2287 4.23915 11.2212C4.26468 11.2136 4.48257 11.14 4.60523 11.0981V11.0981Z" fill="#308B6F"/>
<path fill-rule="evenodd" clip-rule="evenodd" d="M5.53452 10.9612C5.53452 10.9612 5.4989 10.8977 5.38164 10.9259C5.26438 10.9542 4.49109 11.2287 4.49109 11.2287C4.49109 11.2287 4.61387 11.5134 5.03433 11.4851C5.47349 11.4556 5.56711 11.0053 5.53398 10.9606" fill="#C42649"/>
<path fill-rule="evenodd" clip-rule="evenodd" d="M3.97714 12.538C2.96856 12.5087 2.50322 12.0648 2.43186 11.9903C2.41961 11.9869 2.40775 11.9822 2.39647 11.9764C2.33639 11.9445 2.30006 11.9019 2.2886 11.8497C2.26918 11.7606 2.33016 11.6803 2.33342 11.6775L2.3491 11.6558C2.34862 11.6564 2.31359 11.7717 2.32755 11.8339C2.33538 11.8691 2.3792 11.903 2.42372 11.9267C2.49895 11.9666 2.69683 11.94 2.94737 11.9061C3.23027 11.868 3.61202 11.8171 4.02998 11.8319C4.44795 11.8165 4.8297 11.868 5.11254 11.9061C5.36308 11.94 5.5609 11.9667 5.63618 11.9267C5.68071 11.903 5.72452 11.8691 5.73236 11.8339C5.74637 11.771 5.71128 11.6558 5.71081 11.6558L5.72648 11.6776C5.72909 11.6809 5.79072 11.7619 5.77131 11.8497C5.75985 11.902 5.72357 11.9445 5.66343 11.9764C5.65215 11.9823 5.6403 11.987 5.62805 11.9904C5.5568 12.0649 5.09075 12.5087 4.08282 12.5381V12.5397C4.06521 12.5397 4.04759 12.5395 4.02998 12.5393L3.97655 12.5397V12.5381L3.97714 12.538Z" fill="#308B6F"/>
<path fill-rule="evenodd" clip-rule="evenodd" d="M3.94251 12.4792C3.84939 12.4727 3.75655 12.4626 3.66418 12.4491C3.651 12.436 3.62577 12.4065 3.63046 12.3776C3.63676 12.3387 3.70586 12.2173 3.70586 12.2173L3.70657 12.2143L3.82312 12.0214L3.93681 12.251C3.9643 12.3165 4.00889 12.4472 3.94251 12.4786V12.4792ZM3.55352 12.4317C3.44566 12.4127 3.33888 12.388 3.23363 12.3577C3.2277 12.337 3.21909 12.2778 3.27151 12.1551L3.2778 12.1403L3.34204 12.0092L3.47426 12.2078C3.51226 12.2702 3.58071 12.3937 3.55352 12.4317V12.4317ZM3.12985 12.3252C3.03924 12.2949 2.95092 12.2582 2.8656 12.2153C2.85331 12.1699 2.89249 12.0975 2.91826 12.0567L2.82683 12.1938L2.93886 12.025L3.05665 12.173C3.0804 12.2078 3.13057 12.284 3.12985 12.324V12.3252ZM2.62616 11.9927C2.70779 11.9878 2.7892 11.9797 2.87017 11.9682C2.87611 12.0201 2.81632 12.1277 2.79441 12.1646L2.78937 12.1722C2.71548 12.1335 2.65765 12.0699 2.6261 11.9927H2.62616ZM2.93928 11.9574L3.2838 11.9191C3.30399 11.9539 3.25744 12.0751 3.23227 12.135L3.17468 12.2527L3.1748 12.2528H3.17456L2.93928 11.9574ZM3.42148 11.908L3.75775 11.8905C3.80525 11.9309 3.75181 12.051 3.73003 12.0932L3.59674 12.3138L3.51285 12.1878C3.46535 12.1133 3.376 11.9563 3.42142 11.908H3.42148ZM3.91425 11.8884L4.01945 11.8906C4.05457 11.8893 4.0897 11.8886 4.12484 11.8884C4.1379 11.9022 4.15155 11.9207 4.15654 11.9421C4.16735 11.988 4.11468 12.1291 4.11468 12.1291V12.1295L4.01951 12.3219L3.92452 12.1299V12.1292C3.92452 12.1292 3.87192 11.9881 3.88267 11.9422C3.88771 11.9208 3.90131 11.9023 3.91437 11.8885L3.91425 11.8884ZM4.2814 11.8904L4.61773 11.908C4.66208 11.9546 4.57759 12.1056 4.52986 12.1822L4.44223 12.3138L4.31031 12.0954C4.29012 12.0554 4.23313 11.9315 4.2814 11.8904V11.8904ZM4.75535 11.9191L5.03183 11.9487C5.04727 12.0211 4.86441 12.2533 4.86441 12.2533L4.80825 12.1387C4.78343 12.0794 4.73492 11.9552 4.75481 11.9191H4.75535ZM5.16898 11.9682L5.4124 11.9927C5.38085 12.0699 5.32302 12.1335 5.24913 12.1722L5.24616 12.1678C5.22609 12.1342 5.16185 12.0217 5.16898 11.9683V11.9682ZM5.17373 12.2145C5.08839 12.2575 5.00005 12.2942 4.90941 12.3244C4.9087 12.2829 4.96047 12.2049 4.98422 12.1713L5.10029 12.0255L5.12415 12.0612C5.1498 12.1026 5.1853 12.1709 5.17373 12.2145V12.2145ZM4.80563 12.357C4.69544 12.389 4.58638 12.4131 4.48503 12.431C4.45737 12.3921 4.52938 12.2648 4.56679 12.2031L4.69633 12.0086L4.76164 12.1428L4.76651 12.1543C4.81893 12.2769 4.81104 12.3361 4.80451 12.357H4.80563ZM4.3752 12.449L4.09616 12.4792C4.02878 12.4473 4.0758 12.3129 4.10317 12.2486L4.21597 12.022L4.33293 12.2155L4.33352 12.2179C4.33352 12.2179 4.40263 12.3387 4.40892 12.3782C4.41355 12.4071 4.38838 12.4365 4.37526 12.4496L4.3752 12.449Z" fill="#FFFFFE"/>
<path fill-rule="evenodd" clip-rule="evenodd" d="M3.95643 9.6156C4.01604 9.65325 3.90965 9.69089 3.73528 9.7201C3.56091 9.74931 3.36089 9.66577 3.36089 9.6156C3.36089 9.56544 3.60336 9.47757 3.70975 9.46504C3.81614 9.45251 3.95649 9.6156 3.95649 9.6156H3.95643ZM4.51035 9.49413C4.57186 9.50274 4.60695 9.54163 4.5718 9.57131C4.53666 9.601 4.42694 9.64897 4.29965 9.62309C4.17236 9.5972 4.12837 9.53243 4.18548 9.49366C4.2426 9.45489 4.51035 9.49366 4.51035 9.49366V9.49413ZM4.29662 9.73458C4.4593 9.72508 4.33011 9.90391 4.23428 9.90854C4.13846 9.91317 4.0237 9.89447 4.04287 9.83331C4.06205 9.77216 4.2965 9.73452 4.2965 9.73452L4.29662 9.73458ZM3.81311 9.87493C3.86239 9.94262 3.67152 9.92332 3.64438 9.89749C3.61725 9.87167 3.6369 9.83236 3.68167 9.82013C3.72643 9.8079 3.81311 9.87493 3.81311 9.87493ZM4.97083 9.63793C5.02284 9.66049 4.95884 9.68127 4.91633 9.6745C4.87382 9.66773 4.70948 9.62012 4.77633 9.59732C4.84318 9.57452 4.97083 9.63787 4.97083 9.63787V9.63793ZM3.11326 9.64167C3.14437 9.63929 3.21377 9.62991 3.17304 9.6628C3.13232 9.69569 3.02711 9.76629 2.97683 9.76629C2.92654 9.76629 2.93616 9.72164 2.9792 9.68631C3.02224 9.65099 3.11326 9.64167 3.11326 9.64167Z" fill="#46A093"/>
<path fill-rule="evenodd" clip-rule="evenodd" d="M4.4037 11.3052C4.4037 11.3052 4.45933 11.6709 5.12695 11.6745C5.12695 11.6745 4.57065 11.6339 4.4037 11.3052ZM3.62596 11.3052C3.62596 11.3052 3.57033 11.6709 2.90271 11.6745C2.90271 11.6745 3.45901 11.6339 3.62596 11.3052Z" fill="#308B6F"/>
<path fill-rule="evenodd" clip-rule="evenodd" d="M5.15458 11.0454C5.15458 11.0454 4.65564 11.1654 4.67357 11.2536C4.6915 11.3418 4.84948 11.4159 5.00022 11.3842C5.15096 11.3525 5.24364 11.1866 5.27303 11.1372C5.30242 11.0878 5.31251 10.989 5.15458 11.0455" fill="#F6305C"/>
<path fill-rule="evenodd" clip-rule="evenodd" d="M4.84587 11.14C4.84587 11.14 4.68439 11.1789 4.68071 11.2495C4.67702 11.3201 4.91819 11.1683 4.97863 11.1436C5.03906 11.1189 4.98219 11.0942 4.84581 11.14" fill="#FFFFFE"/>
<path fill-rule="evenodd" clip-rule="evenodd" d="M3.56318 11.2534C3.47211 11.4076 3.27642 11.5144 3.04939 11.5144C2.7355 11.5144 2.53287 11.3051 2.48098 11.0586C2.46673 10.9909 2.46531 10.926 2.48253 10.8686C2.33481 10.802 2.26208 10.866 2.26208 10.866C2.26208 10.866 2.27645 10.7671 2.37156 10.7618C2.40932 10.7597 2.46756 10.7727 2.52397 10.789L2.52409 10.7889L2.52789 10.7902C2.59474 10.8098 2.65838 10.8338 2.68225 10.8429L3.42568 11.0981L3.79175 11.2212C3.81728 11.2287 3.67153 11.2416 3.56377 11.2535L3.56318 11.2534Z" fill="#308B6F"/>
<path fill-rule="evenodd" clip-rule="evenodd" d="M2.49577 10.9612C2.49577 10.9612 2.5314 10.8977 2.64865 10.9259C2.76591 10.9542 3.5392 11.2287 3.5392 11.2287C3.5392 11.2287 3.41643 11.5134 2.99597 11.4851C2.55681 11.4556 2.46318 11.0053 2.49631 10.9606" fill="#C42649"/>
<path fill-rule="evenodd" clip-rule="evenodd" d="M2.87576 11.0454C2.87576 11.0454 3.37471 11.1654 3.35678 11.2536C3.33885 11.3418 3.18086 11.4159 3.03012 11.3842C2.87938 11.3525 2.7867 11.1866 2.75732 11.1372C2.72793 11.0878 2.71784 10.989 2.87576 11.0455" fill="#F6305C"/>
<path fill-rule="evenodd" clip-rule="evenodd" d="M3.18454 11.14C3.18454 11.14 3.34602 11.1789 3.34959 11.2495C3.35315 11.3201 3.11211 11.1683 3.05173 11.1436C2.99135 11.1189 3.04817 11.0942 3.18454 11.14Z" fill="#FFFFFE"/>
<path fill-rule="evenodd" clip-rule="evenodd" d="M2.53186 11.2888L3.2443 11.5122C3.2443 11.5122 2.87585 11.665 2.53186 11.2887" fill="#83E883"/>
<path fill-rule="evenodd" clip-rule="evenodd" d="M5.51347 11.2888L4.80103 11.5122C4.80103 11.5122 5.16954 11.665 5.51347 11.2887" fill="#82E782"/>
<path d="M12.875 16H14.125V14.75H12.875V16ZM13.5 8.5C12.837 8.5 12.2011 8.76339 11.7322 9.23223C11.2634 9.70107 11 10.337 11 11H12.25C12.25 10.312 12.813 9.75 13.5 9.75C14.188 9.75 14.75 10.313 14.75 11C14.75 12.25 12.875 12.094 12.875 14.125H14.125C14.125 12.719 16 12.562 16 11C16 10.337 15.7366 9.70107 15.2678 9.23223C14.7989 8.76339 14.163 8.5 13.5 8.5Z" fill="#AFB1B3"/>
</g>
<defs>
<linearGradient id="paint0_linear_2212_72604" x1="4.00003" y1="9" x2="4.00003" y2="13.2453" gradientUnits="userSpaceOnUse">
<stop stop-color="#A5FFAF"/>
<stop offset="1" stop-color="#64E178"/>
</linearGradient>
<linearGradient id="paint1_linear_2212_72604" x1="3.99996" y1="11.8284" x2="3.99996" y2="9" gradientUnits="userSpaceOnUse">
<stop stop-color="#23C386"/>
<stop offset="1" stop-color="#139E83"/>
</linearGradient>
<clipPath id="clip0_2212_72604">
<rect width="16" height="16" fill="white"/>
</clipPath>
</defs>
</svg>
