<svg width="16" height="16" viewBox="0 0 16 16" fill="none" xmlns="http://www.w3.org/2000/svg">
<g clip-path="url(#clip0_2212_72814)">
<path d="M2.66665 4.18667C2.62577 4.18439 2.58732 4.16654 2.55921 4.13677C2.5311 4.10701 2.51547 4.06761 2.51554 4.02667V4.02667C2.51554 3.55517 2.32824 3.10299 1.99484 2.76959C1.66144 2.43619 1.20925 2.24889 0.737759 2.24889C0.69682 2.24895 0.657415 2.23332 0.627652 2.20521C0.597889 2.1771 0.580033 2.13865 0.577759 2.09778C0.577759 2.07677 0.581897 2.05596 0.589938 2.03655C0.597979 2.01714 0.609764 1.9995 0.624622 1.98464C0.639479 1.96978 0.657117 1.958 0.676529 1.94996C0.695942 1.94192 0.716747 1.93778 0.737759 1.93778C1.20925 1.93778 1.66144 1.75048 1.99484 1.41708C2.32824 1.08368 2.51554 0.631496 2.51554 0.16C2.51547 0.119061 2.5311 0.079656 2.55921 0.0498931C2.58732 0.0201303 2.62577 0.00227432 2.66665 0V0C2.68766 0 2.70846 0.00413852 2.72788 0.0121793C2.74729 0.02022 2.76493 0.0320055 2.77978 0.0468629C2.79464 0.0617203 2.80643 0.0793586 2.81447 0.0987706C2.82251 0.118183 2.82665 0.138988 2.82665 0.16V0.16C2.82665 0.631496 3.01395 1.08368 3.34735 1.41708C3.68074 1.75048 4.13293 1.93778 4.60442 1.93778C4.62544 1.93778 4.64624 1.94192 4.66565 1.94996C4.68507 1.958 4.7027 1.96978 4.71756 1.98464C4.73242 1.9995 4.74421 2.01714 4.75225 2.03655C4.76029 2.05596 4.76443 2.07677 4.76443 2.09778C4.76215 2.13865 4.74429 2.1771 4.71453 2.20521C4.68477 2.23332 4.64536 2.24895 4.60442 2.24889V2.24889C4.13293 2.24889 3.68074 2.43619 3.34735 2.76959C3.01395 3.10299 2.82665 3.55517 2.82665 4.02667C2.82665 4.0691 2.80979 4.1098 2.77978 4.1398C2.74978 4.16981 2.70908 4.18667 2.66665 4.18667V4.18667Z" fill="#40B6E0" fill-opacity="0.6"/>
<path fill-rule="evenodd" clip-rule="evenodd" d="M11.591 1.88446C13.4133 1.61779 14.7199 2.01779 15.2799 2.90668C15.8399 3.84002 15.5377 5.16446 14.471 6.64002C14.2322 6.93839 13.9831 7.22761 13.7241 7.50718C13.6497 7.50241 13.575 7.5 13.5 7.5C13.4946 7.5 13.4891 7.50002 13.4837 7.50004C13.484 7.16448 13.4534 6.82846 13.3916 6.49628C13.514 6.35694 13.6338 6.21521 13.751 6.07113C14.5866 4.94224 14.871 3.97335 14.5333 3.40446C14.2488 2.97779 13.6444 2.75557 12.7555 2.75557C12.428 2.75819 12.1012 2.78493 11.7777 2.83557L11.1377 2.96891C10.7164 2.68423 10.2591 2.45704 9.7777 2.29335C10.3716 2.114 10.9776 1.97736 11.591 1.88446ZM12.1059 7.78962C12.5601 7.38595 12.9895 6.95408 13.3916 6.49628C13.3746 6.40465 13.3551 6.3133 13.3333 6.22235C12.996 4.81507 12.1135 3.59939 10.88 2.84262C9.6465 2.08585 8.16294 1.84995 6.75554 2.18679C5.70566 2.43807 4.75388 2.99505 4.02057 3.78729C3.28727 4.57954 2.80538 5.57145 2.63585 6.63759C2.56376 7.09096 2.54954 7.54909 2.59171 8.00135C2.64193 8.00045 2.69231 8 2.74282 8C3.58705 8 4.39672 8.12661 5.03049 8.35758C5.34308 8.47151 5.66535 8.62967 5.92852 8.85288C6.18435 9.06986 6.50002 9.45345 6.50002 10V11.0845C7.55843 10.7135 8.57453 10.225 9.52881 9.62668C9.93416 9.3989 10.3278 9.15249 10.7087 8.88845C10.8052 8.76093 10.9108 8.63948 11.0251 8.52513C11.339 8.21121 11.7064 7.96309 12.1059 7.78962ZM10.0437 10.4483C10.0203 10.4619 9.99679 10.4754 9.97325 10.4889C8.8834 11.1686 7.71676 11.7109 6.50002 12.1055V12.7348C7.06096 12.8981 7.64752 12.9712 8.23761 12.9483C9.00068 12.9187 9.74541 12.7295 10.4252 12.3968L10 12V11C10 10.8141 10.0148 10.6296 10.0437 10.4483ZM1.56436 7.87557C1.5048 7.9553 1.44758 8.03457 1.3927 8.11333C1.76225 8.0483 2.15871 8.01037 2.56611 8.00185C2.51573 7.55215 2.51959 7.09791 2.5777 6.64891C2.20716 7.02959 1.86826 7.43983 1.56436 7.87557Z" fill="#40B6E0" fill-opacity="0.6"/>
<path d="M2.92347 13.4779C2.9812 13.4511 3.03236 13.4119 3.07337 13.3632V13.3763C3.16948 13.2471 3.21318 13.0864 3.19569 12.9263C3.20525 12.7717 3.16381 12.6182 3.07774 12.4895C3.04054 12.4377 2.99121 12.3959 2.93408 12.3677C2.87694 12.3396 2.81376 12.3258 2.75008 12.3278C2.68439 12.3248 2.61897 12.338 2.55956 12.3662C2.50015 12.3944 2.44856 12.4367 2.40932 12.4895C2.31556 12.6149 2.27054 12.7702 2.28262 12.9263C2.27046 13.0818 2.3138 13.2366 2.40495 13.3632C2.44596 13.4119 2.49712 13.4511 2.55485 13.4779C2.61258 13.5048 2.67548 13.5187 2.73916 13.5187C2.80283 13.5187 2.86574 13.5048 2.92347 13.4779Z" fill="#40B6E0" fill-opacity="0.6"/>
<path fill-rule="evenodd" clip-rule="evenodd" d="M2.7428 9C4.25387 9 5.5 9.45902 5.5 10V15C5.5 15.5443 4.26826 16 2.7572 16C1.24613 16 0 15.5436 0 15V10C0 9.45639 1.23174 9 2.7428 9ZM2.75523 10.5C3.85419 10.5 4.75 10.2721 4.75 10C4.75 9.72951 3.84372 9.5 2.74477 9.5C1.64581 9.5 0.75 9.7282 0.75 10C0.75 10.2718 1.65628 10.5 2.75523 10.5ZM4.33158 12.0438V13.5205H5V13.8525H3.92528V12.0438H4.33158ZM0.985094 12.6555C1.05185 12.7119 1.12703 12.7576 1.2079 12.7909C1.34607 12.8457 1.47111 12.9291 1.57488 13.0355C1.64923 13.1197 1.68834 13.2292 1.6841 13.3414C1.68739 13.4185 1.67203 13.4953 1.63933 13.5653C1.60663 13.6353 1.55755 13.6963 1.49624 13.7433C1.34321 13.8426 1.16294 13.8914 0.980726 13.8831C0.819075 13.8879 0.658674 13.8534 0.513266 13.7826V13.3763C0.645528 13.5043 0.822918 13.5749 1.00694 13.5729C1.07637 13.5767 1.14523 13.5584 1.20353 13.5205C1.22515 13.5051 1.24278 13.4848 1.25494 13.4613C1.2671 13.4377 1.27344 13.4116 1.27343 13.3851C1.27343 13.3579 1.26712 13.3312 1.25498 13.3069C1.24285 13.2826 1.22524 13.2615 1.20353 13.2453C1.12146 13.1821 1.03196 13.1293 0.937038 13.088C0.639961 12.9569 0.50016 12.7822 0.50016 12.5594C0.498254 12.4845 0.513389 12.4102 0.544421 12.3421C0.575452 12.274 0.621568 12.2138 0.67928 12.1662C0.829059 12.052 1.01587 11.9975 1.20353 12.0133C1.35228 12.0085 1.50058 12.0322 1.64041 12.0832V12.4589C1.51201 12.3712 1.35894 12.3268 1.20353 12.3322C1.13888 12.3289 1.07481 12.3457 1.02004 12.3802C0.998424 12.3956 0.980796 12.4159 0.968634 12.4395C0.956473 12.463 0.950133 12.4891 0.950144 12.5157C0.943226 12.565 0.955757 12.6152 0.985094 12.6555ZM3.62384 12.922C3.62825 13.1167 3.57833 13.3088 3.47967 13.4768C3.38717 13.6362 3.24192 13.7582 3.069 13.8219L3.59325 14.3069H3.07337L2.70202 13.87C2.54777 13.8671 2.39703 13.8234 2.26515 13.7433C2.13728 13.6642 2.03431 13.5506 1.96807 13.4156C1.89666 13.2734 1.86069 13.116 1.86322 12.9569C1.8589 12.7826 1.89793 12.61 1.97681 12.4545C2.0484 12.3139 2.15917 12.1971 2.29573 12.1181C2.44144 12.0379 2.60561 11.9972 2.77192 12.0001C2.92498 11.9991 3.07564 12.0383 3.2088 12.1137C3.34021 12.1912 3.44641 12.305 3.51462 12.4414C3.59 12.5902 3.62752 12.7552 3.62384 12.922Z" fill="#40B6E0" fill-opacity="0.6"/>
<path d="M12.875 16H14.125V14.75H12.875V16ZM13.5 8.5C12.837 8.5 12.2011 8.76339 11.7322 9.23223C11.2634 9.70107 11 10.337 11 11H12.25C12.25 10.312 12.813 9.75 13.5 9.75C14.188 9.75 14.75 10.313 14.75 11C14.75 12.25 12.875 12.094 12.875 14.125H14.125C14.125 12.719 16 12.562 16 11C16 10.337 15.7366 9.70107 15.2678 9.23223C14.7989 8.76339 14.163 8.5 13.5 8.5Z" fill="#AFB1B3"/>
</g>
<defs>
<clipPath id="clip0_2212_72814">
<rect width="16" height="16" fill="white"/>
</clipPath>
</defs>
</svg>
