<svg width="16" height="16" viewBox="0 0 16 16" fill="none" xmlns="http://www.w3.org/2000/svg">
<g clip-path="url(#clip0_2215_72761)">
<path d="M2.66665 4.18667C2.62577 4.18439 2.58732 4.16654 2.55921 4.13677C2.5311 4.10701 2.51547 4.06761 2.51554 4.02667V4.02667C2.51554 3.55517 2.32824 3.10299 1.99484 2.76959C1.66144 2.43619 1.20925 2.24889 0.737759 2.24889C0.69682 2.24895 0.657415 2.23332 0.627652 2.20521C0.597889 2.1771 0.580033 2.13865 0.577759 2.09778C0.577759 2.07677 0.581897 2.05596 0.589938 2.03655C0.597979 2.01714 0.609764 1.9995 0.624622 1.98464C0.639479 1.96978 0.657117 1.958 0.676529 1.94996C0.695942 1.94192 0.716747 1.93778 0.737759 1.93778C1.20925 1.93778 1.66144 1.75048 1.99484 1.41708C2.32824 1.08368 2.51554 0.631496 2.51554 0.16C2.51547 0.119061 2.5311 0.079656 2.55921 0.0498931C2.58732 0.0201303 2.62577 0.00227432 2.66665 0V0C2.68766 0 2.70846 0.00413852 2.72788 0.0121793C2.74729 0.02022 2.76493 0.0320055 2.77978 0.0468629C2.79464 0.0617203 2.80643 0.0793586 2.81447 0.0987706C2.82251 0.118183 2.82665 0.138988 2.82665 0.16V0.16C2.82665 0.631496 3.01395 1.08368 3.34735 1.41708C3.68074 1.75048 4.13293 1.93778 4.60442 1.93778C4.62544 1.93778 4.64624 1.94192 4.66565 1.94996C4.68507 1.958 4.7027 1.96978 4.71756 1.98464C4.73242 1.9995 4.74421 2.01714 4.75225 2.03655C4.76029 2.05596 4.76443 2.07677 4.76443 2.09778C4.76215 2.13865 4.74429 2.1771 4.71453 2.20521C4.68477 2.23332 4.64536 2.24895 4.60442 2.24889V2.24889C4.13293 2.24889 3.68074 2.43619 3.34735 2.76959C3.01395 3.10299 2.82665 3.55517 2.82665 4.02667C2.82665 4.0691 2.80979 4.1098 2.77978 4.1398C2.74978 4.16981 2.70908 4.18667 2.66665 4.18667V4.18667Z" fill="#40B6E0" fill-opacity="0.6"/>
<path fill-rule="evenodd" clip-rule="evenodd" d="M11.591 1.88446C13.4132 1.61779 14.7199 2.01779 15.2799 2.90668C15.8399 3.84002 15.5377 5.16446 14.471 6.64002C14.2322 6.93839 13.9831 7.22761 13.7241 7.50718C13.6497 7.50241 13.575 7.5 13.5 7.5L13.4837 7.50004C13.484 7.16448 13.4534 6.82846 13.3916 6.49628C13.514 6.35694 13.6338 6.21521 13.751 6.07113C14.5866 4.94224 14.871 3.97335 14.5332 3.40446C14.2488 2.97779 13.6443 2.75557 12.7555 2.75557C12.428 2.75819 12.1012 2.78493 11.7777 2.83557L11.1377 2.96891C10.7164 2.68423 10.259 2.45704 9.77768 2.29335C10.3716 2.114 10.9776 1.97736 11.591 1.88446ZM8.00005 10.4664C8.52439 10.2166 9.03487 9.93638 9.52879 9.62668C9.93414 9.3989 10.3278 9.15249 10.7087 8.88845C10.8051 8.76093 10.9108 8.63948 11.0251 8.52513C11.339 8.21121 11.7064 7.96309 12.1059 7.78962C12.5601 7.38595 12.9895 6.95408 13.3916 6.49628C13.3745 6.40465 13.3551 6.3133 13.3333 6.22235C12.9959 4.81507 12.1135 3.59939 10.88 2.84262C9.64649 2.08585 8.16293 1.84995 6.75553 2.18679C5.70565 2.43807 4.75387 2.99505 4.02056 3.78729C3.28725 4.57954 2.80537 5.57145 2.63584 6.63759C2.56382 7.09051 2.54955 7.54817 2.59157 8H8.00005V10.4664ZM8.00005 11.5329C8.68023 11.2327 9.33971 10.884 9.97324 10.4889L10.0437 10.4483C10.0148 10.6296 9.99999 10.8141 9.99999 11V12L10.4251 12.3968C9.7454 12.7295 9.00067 12.9187 8.2376 12.9483C8.15833 12.9514 8.07913 12.9528 8.00005 12.9524V11.5329ZM1.47302 8H2.56589C2.51572 7.55091 2.51965 7.09729 2.57768 6.64891C2.20714 7.02959 1.86824 7.43983 1.56435 7.87557C1.53327 7.91718 1.50283 7.95865 1.47302 8Z" fill="#40B6E0" fill-opacity="0.6"/>
<path d="M12.875 16H14.125V14.75H12.875V16ZM13.5 8.5C12.837 8.5 12.2011 8.76339 11.7322 9.23223C11.2634 9.70107 11 10.337 11 11H12.25C12.25 10.312 12.813 9.75 13.5 9.75C14.188 9.75 14.75 10.313 14.75 11C14.75 12.25 12.875 12.094 12.875 14.125H14.125C14.125 12.719 16 12.562 16 11C16 10.337 15.7366 9.70107 15.2678 9.23223C14.7989 8.76339 14.163 8.5 13.5 8.5Z" fill="#AFB1B3"/>
<path fill-rule="evenodd" clip-rule="evenodd" d="M7 9H0V15H7V9ZM1 11H2V12H1V11ZM1 13H2V14H1V13ZM4 13H3V14H4V13ZM3 11H4V12H3V11ZM6 13H5V14H6V13ZM5 11H6V12H5V11Z" fill="#9AA7B0" fill-opacity="0.8"/>
</g>
<defs>
<clipPath id="clip0_2215_72761">
<rect width="16" height="16" fill="white"/>
</clipPath>
</defs>
</svg>
