<svg width="16" height="16" viewBox="0 0 16 16" fill="none" xmlns="http://www.w3.org/2000/svg">
<g clip-path="url(#clip0_2526_72365)">
<path fill-rule="evenodd" clip-rule="evenodd" d="M4 5.5V10.5L8 11.5L12 10V6L8 4.5L4 5.5ZM4.6 10.0315L5.69995 10.3065V5.69348L4.6 5.96847V10.0315ZM7.4 10.7315L6.29995 10.4565V5.54348L7.4 5.26847V10.7315Z" fill="#B99BF8"/>
<path fill-rule="evenodd" clip-rule="evenodd" d="M7.53333 4.61667V1H1V7.53333H4V6.44444H2.08889V2.08889H6.44444V4.88889L7.53333 4.61667ZM12 7.53333H15V1H8.46667V4.675L9.55556 5.08333V2.08889H13.9111V6.44444H12V7.53333ZM8.46667 11.325V15H15V8.46667H12V9.55556H13.9111V13.9111H9.55556V10.9167L8.46667 11.325ZM4 8.46667H1V15H7.53333V11.3833L6.44444 11.1111V13.9111H2.08889V9.55556H4V8.46667Z" fill="#9AA7B0" fill-opacity="0.8"/>
</g>
<defs>
<clipPath id="clip0_2526_72365">
<rect width="16" height="16" fill="white"/>
</clipPath>
</defs>
</svg>
