<svg width="16" height="16" viewBox="0 0 16 16" fill="none" xmlns="http://www.w3.org/2000/svg">
<g clip-path="url(#clip0_2526_72374)">
<path fill-rule="evenodd" clip-rule="evenodd" d="M4 10.5V5.5L8 4.5L12 6V7.83772C11.6414 8.00779 11.3111 8.23916 11.0251 8.52513C10.4287 9.12151 10.0698 9.91095 10.0092 10.7466L8 11.5L4 10.5ZM5.69995 10.3065L4.6 10.0315V5.96847L5.69995 5.69348V10.3065ZM6.29995 10.4565L7.4 10.7315V5.26847L6.29995 5.54348V10.4565Z" fill="#B99BF8"/>
<path fill-rule="evenodd" clip-rule="evenodd" d="M4 7.53333H1V1H7.53333V4.61667L6.44444 4.88889V2.08889H2.08889V6.44444H4V7.53333ZM4 8.46667H1V15H7.53333V11.3833L6.44444 11.1111V13.9111H2.08889V9.55556H4V8.46667ZM8.46667 11.325V15H11.875V13.9111H9.55556V10.9167L8.46667 11.325ZM12 7.53333H13.018C13.1768 7.51126 13.3378 7.5 13.5 7.5C13.6622 7.5 13.8232 7.51126 13.982 7.53333H15V1H8.46667V4.675L9.55556 5.08333V2.08889H13.9111V6.44444H12V7.53333Z" fill="#9AA7B0" fill-opacity="0.8"/>
<path d="M12.875 16H14.125V14.75H12.875V16ZM13.5 8.5C12.837 8.5 12.2011 8.76339 11.7322 9.23223C11.2634 9.70107 11 10.337 11 11H12.25C12.25 10.312 12.813 9.75 13.5 9.75C14.188 9.75 14.75 10.313 14.75 11C14.75 12.25 12.875 12.094 12.875 14.125H14.125C14.125 12.719 16 12.562 16 11C16 10.337 15.7366 9.70107 15.2678 9.23223C14.7989 8.76339 14.163 8.5 13.5 8.5Z" fill="#AFB1B3"/>
</g>
<defs>
<clipPath id="clip0_2526_72374">
<rect width="16" height="16" fill="white"/>
</clipPath>
</defs>
</svg>
