<svg width="16" height="16" viewBox="0 0 16 16" fill="none" xmlns="http://www.w3.org/2000/svg">
<path fill-rule="evenodd" clip-rule="evenodd" d="M8 1L14 4.4641V8.25606C13.5308 8.09023 13.026 8 12.5 8C10.9398 8 9.56504 8.79401 8.75777 10H8.6V6H10V5H6V6H7.4V10L6 10.006V11H8.25606C8.09023 11.4692 8 11.974 8 12.5C8 13.2451 8.18108 13.9479 8.50164 14.5668L8 14.8564L2 11.3923V4.4641L8 1Z" fill="#62B543" fill-opacity="0.7"/>
<path fill-rule="evenodd" clip-rule="evenodd" d="M12.5 16C14.433 16 16 14.433 16 12.5C16 10.567 14.433 9 12.5 9C10.567 9 9 10.567 9 12.5C9 14.433 10.567 16 12.5 16ZM10.7322 11.4393L11.4393 10.7322L12.5 11.7929L13.5607 10.7323L14.2678 11.4394L13.2071 12.5L14.2678 13.5607L13.5607 14.2678L12.5 13.2071L11.4393 14.2678L10.7322 13.5607L11.7929 12.5L10.7322 11.4393Z" fill="#E05555"/>
</svg>
