<svg width="16" height="16" viewBox="0 0 16 16" fill="none" xmlns="http://www.w3.org/2000/svg">
<path fill-rule="evenodd" clip-rule="evenodd" d="M8 1L14 4.4641V9.12602C13.6804 9.04375 13.3453 9 13 9C11.8053 9 10.7329 9.52376 10 10.3542V10H8.6V6H10V5H6V6H7.4V10L6 10.006V11H9.53513C9.19479 11.5883 9 12.2714 9 13C9 13.4098 9.06162 13.8052 9.17609 14.1774L8 14.8564L2 11.3923V4.4641L8 1Z" fill="#62B543" fill-opacity="0.7"/>
<path d="M16 13C16 14.6569 14.6569 16 13 16C11.3431 16 10 14.6569 10 13C10 11.3431 11.3431 10 13 10C14.6569 10 16 11.3431 16 13Z" fill="#62B543"/>
</svg>
