<svg width="16" height="17" viewBox="0 0 16 17" fill="none" xmlns="http://www.w3.org/2000/svg">
<path fill-rule="evenodd" clip-rule="evenodd" d="M7.9844 4.00391L6.6964 2.71491C6.3044 2.32391 5.5324 2.00391 4.9784 2.00391H1.0504C1.0234 2.00391 1.0004 2.02591 1.0004 2.05491V13.0039H4V8.00391H15.0004V4.00391H7.9844Z" fill="#9AA7B0" fill-opacity="0.8"/>
<path fill-rule="evenodd" clip-rule="evenodd" d="M12 13.0039V14.0039H14V11.0039H12V12.0039H14V13.0039H12ZM11 13.0039H9V14.0039H11V13.0039ZM11 12.0039V11.0039H9V12.0039H11ZM8 13.0039H6V12.0039H8V11.0039H6V14.0039H8V13.0039ZM6 15.0039H5V11.0039V9.00391H15V11.0039V15.0039H14H6Z" fill="#9AA7B0"/>
<rect x="12" y="11.0039" width="2" height="1" fill="#EFBF6F"/>
<rect x="12" y="13.0039" width="2" height="1" fill="#EFBF6F"/>
<rect x="9" y="13.0039" width="2" height="1" fill="#EFBF6F"/>
</svg>
