<svg width="16" height="16" viewBox="0 0 16 16" fill="none" xmlns="http://www.w3.org/2000/svg">
<path fill-rule="evenodd" clip-rule="evenodd" d="M7 1L3 5H7V1Z" fill="#B99BF8" fill-opacity="0.7"/>
<path fill-rule="evenodd" clip-rule="evenodd" d="M8 1V6H3V15H8.75777C8.40738 14.4765 8.16391 13.8755 8.05859 13.228L8 13.25L5 12.5V8.75L8 8L10.0075 8.7528C10.721 8.2772 11.5781 8 12.5 8C12.669 8 12.8358 8.00932 13 8.02746V1H8ZM5.45 12.1487L6.27496 12.3549V8.89511L5.45 9.10135V12.1487ZM7.55 12.6737L6.72496 12.4674V8.78261L7.55 8.57635V12.6737Z" fill="#B99BF8" fill-opacity="0.7"/>
<path fill-rule="evenodd" clip-rule="evenodd" d="M12.5 16C14.433 16 16 14.433 16 12.5C16 10.567 14.433 9 12.5 9C10.567 9 9 10.567 9 12.5C9 14.433 10.567 16 12.5 16ZM10.7322 11.4393L11.4393 10.7322L12.5 11.7929L13.5607 10.7323L14.2678 11.4394L13.2071 12.5L14.2678 13.5607L13.5607 14.2678L12.5 13.2071L11.4393 14.2678L10.7322 13.5607L11.7929 12.5L10.7322 11.4393Z" fill="#E05555"/>
</svg>
