<svg width="16" height="16" viewBox="0 0 16 16" fill="none" xmlns="http://www.w3.org/2000/svg">
<path fill-rule="evenodd" clip-rule="evenodd" d="M7 1L3 5H7V1Z" fill="#B99BF8" fill-opacity="0.7"/>
<path fill-rule="evenodd" clip-rule="evenodd" d="M8 1V6H3V15H11.875V13.75L10.3822 12.3567L8 13.25L5 12.5V8.75L8 8L10.6358 8.98842C10.7512 8.82413 10.8812 8.66901 11.0251 8.52513C11.5625 7.98776 12.2566 7.64317 13 7.53588V1H8ZM5.45 12.1487L6.27496 12.3549V8.89511L5.45 9.10135V12.1487ZM7.55 12.6737L6.72496 12.4674V8.78261L7.55 8.57635V12.6737Z" fill="#B99BF8" fill-opacity="0.7"/>
<path d="M12.875 16H14.125V14.75H12.875V16ZM13.5 8.5C12.837 8.5 12.2011 8.76339 11.7322 9.23223C11.2634 9.70107 11 10.337 11 11H12.25C12.25 10.312 12.813 9.75 13.5 9.75C14.188 9.75 14.75 10.313 14.75 11C14.75 12.25 12.875 12.094 12.875 14.125H14.125C14.125 12.719 16 12.562 16 11C16 10.337 15.7366 9.70107 15.2678 9.23223C14.7989 8.76339 14.163 8.5 13.5 8.5Z" fill="#AFB1B3"/>
</svg>
