<svg width="16" height="16" viewBox="0 0 16 16" fill="none" xmlns="http://www.w3.org/2000/svg">
<g clip-path="url(#clip0_2174_72392)">
<path d="M2.66665 4.18667C2.62577 4.18439 2.58732 4.16654 2.55921 4.13677C2.5311 4.10701 2.51547 4.06761 2.51554 4.02667C2.51554 3.55517 2.32824 3.10299 1.99484 2.76959C1.66144 2.43619 1.20925 2.24889 0.737759 2.24889C0.69682 2.24895 0.657415 2.23332 0.627652 2.20521C0.597889 2.1771 0.580033 2.13865 0.577759 2.09778C0.577759 2.07677 0.581897 2.05596 0.589938 2.03655C0.597979 2.01714 0.609764 1.9995 0.624622 1.98464C0.639479 1.96978 0.657117 1.958 0.676529 1.94996C0.695942 1.94192 0.716747 1.93778 0.737759 1.93778C1.20925 1.93778 1.66144 1.75048 1.99484 1.41708C2.32824 1.08368 2.51554 0.631496 2.51554 0.16C2.51547 0.119061 2.5311 0.079656 2.55921 0.0498931C2.58732 0.0201303 2.62577 0.00227432 2.66665 0V0C2.68766 0 2.70846 0.00413852 2.72788 0.0121793C2.74729 0.02022 2.76493 0.0320055 2.77978 0.0468629C2.79464 0.0617203 2.80643 0.0793586 2.81447 0.0987706C2.82251 0.118183 2.82665 0.138988 2.82665 0.16C2.82665 0.631496 3.01395 1.08368 3.34735 1.41708C3.68074 1.75048 4.13293 1.93778 4.60442 1.93778C4.62544 1.93778 4.64624 1.94192 4.66565 1.94996C4.68507 1.958 4.7027 1.96978 4.71756 1.98464C4.73242 1.9995 4.7442 2.01714 4.75225 2.03655C4.76029 2.05596 4.76443 2.07677 4.76443 2.09778C4.76215 2.13865 4.74429 2.1771 4.71453 2.20521C4.68477 2.23332 4.64536 2.24895 4.60442 2.24889C4.13293 2.24889 3.68074 2.43619 3.34735 2.76959C3.01395 3.10299 2.82665 3.55517 2.82665 4.02667C2.82665 4.0691 2.80979 4.1098 2.77978 4.1398C2.74978 4.16981 2.70908 4.18667 2.66665 4.18667Z" fill="#40B6E0" fill-opacity="0.6"/>
<path d="M13.8757 15.0222C13.8427 15.0222 13.811 15.0091 13.7877 14.9858C13.7643 14.9624 13.7512 14.9308 13.7512 14.8978C13.7512 14.5182 13.6005 14.1542 13.3321 13.8858C13.0637 13.6175 12.6997 13.4667 12.3201 13.4667C12.2871 13.4667 12.2555 13.4536 12.2321 13.4302C12.2088 13.4069 12.1957 13.3752 12.1957 13.3422C12.1957 13.3092 12.2088 13.2776 12.2321 13.2542C12.2555 13.2309 12.2871 13.2178 12.3201 13.2178C12.6997 13.2178 13.0637 13.067 13.3321 12.7986C13.6005 12.5302 13.7512 12.1662 13.7512 11.7867C13.7512 11.7537 13.7643 11.722 13.7877 11.6987C13.811 11.6753 13.8427 11.6622 13.8757 11.6622C13.9087 11.6622 13.9403 11.6753 13.9637 11.6987C13.987 11.722 14.0001 11.7537 14.0001 11.7867C14.0001 12.1662 14.1509 12.5302 14.4193 12.7986C14.6877 13.067 15.0517 13.2178 15.4312 13.2178C15.4642 13.2178 15.4959 13.2309 15.5192 13.2542C15.5426 13.2776 15.5557 13.3092 15.5557 13.3422C15.5557 13.3752 15.5426 13.4069 15.5192 13.4302C15.4959 13.4536 15.4642 13.4667 15.4312 13.4667C15.2433 13.4667 15.0572 13.5037 14.8836 13.5756C14.7099 13.6475 14.5522 13.7529 14.4193 13.8858C14.2864 14.0187 14.181 14.1765 14.1091 14.3501C14.0371 14.5238 14.0001 14.7099 14.0001 14.8978C14.0001 14.9308 13.987 14.9624 13.9637 14.9858C13.9403 15.0091 13.9087 15.0222 13.8757 15.0222Z" fill="#40B6E0" fill-opacity="0.6"/>
<path fill-rule="evenodd" clip-rule="evenodd" d="M11.591 1.88446C13.4132 1.61779 14.7199 2.01779 15.2799 2.90668C15.8399 3.84002 15.5377 5.16446 14.471 6.64002C14.1571 7.03222 13.8253 7.40859 13.4768 7.76804C13.4981 7.34379 13.4699 6.91695 13.3916 6.49628C13.514 6.35694 13.6338 6.21521 13.751 6.07113C14.5866 4.94224 14.871 3.97335 14.5332 3.40446C14.2488 2.97779 13.6443 2.75557 12.7555 2.75557C12.428 2.75819 12.1012 2.78493 11.7777 2.83557L11.1377 2.96891C10.7164 2.68423 10.259 2.45704 9.77768 2.29335C10.3716 2.114 10.9776 1.97736 11.591 1.88446ZM4.47533 11.6396C3.87997 11.1296 3.39878 10.495 3.06817 9.77682C2.61676 8.79619 2.46631 7.70373 2.63583 6.63759C2.80536 5.57145 3.28725 4.57954 4.02056 3.78729C4.75386 2.99505 5.70564 2.43807 6.75552 2.18679C8.16292 1.84995 9.64648 2.08585 10.88 2.84262C12.1135 3.59939 12.9959 4.81507 13.3333 6.22235C13.3551 6.3133 13.3745 6.40465 13.3916 6.49628C12.291 7.74947 10.9852 8.80828 9.52879 9.62668C7.97944 10.5981 6.26713 11.28 4.47533 11.6396ZM4.47533 11.6396C4.69284 11.826 4.92559 11.9956 5.17181 12.1467C5.30475 12.2283 5.44076 12.3039 5.57942 12.3734C5.20478 12.4702 4.82618 12.5532 4.44434 12.6222C4.06515 12.6828 3.68167 12.7125 3.29768 12.7111C2.8083 12.7683 2.3125 12.6957 1.86004 12.5007C1.40758 12.3056 1.01438 11.995 0.719899 11.6C0.159899 10.6667 0.462121 9.35113 1.56434 7.87557C1.86824 7.43983 2.20714 7.02959 2.57768 6.64891C2.51543 7.12986 2.51543 7.61684 2.57768 8.09779C2.51774 8.17156 2.48172 8.2262 2.44604 8.28032C2.41293 8.33053 2.38013 8.38029 2.32879 8.44446C1.49323 9.57335 1.20879 10.5422 1.54657 11.1111C1.88434 11.68 2.8799 11.8845 4.26657 11.68C4.33627 11.667 4.40586 11.6536 4.47533 11.6396ZM5.57942 12.3734C7.12923 11.9732 8.61119 11.3383 9.97323 10.4889C11.2652 9.74964 12.4442 8.83315 13.4768 7.76804C13.4492 8.31796 13.3385 8.86352 13.1456 9.38564C12.7716 10.3983 12.1056 11.2773 11.232 11.9115C10.3584 12.5456 9.31631 12.9065 8.23759 12.9483C7.31472 12.9842 6.4005 12.7851 5.57942 12.3734Z" fill="#40B6E0" fill-opacity="0.6"/>
</g>
<defs>
<clipPath id="clip0_2174_72392">
<rect width="16" height="16" fill="white"/>
</clipPath>
</defs>
</svg>
