<svg width="16" height="16" viewBox="0 0 16 16" fill="none" xmlns="http://www.w3.org/2000/svg">
<path fill-rule="evenodd" clip-rule="evenodd" d="M13 3C13 1.91803 10.5077 1 7.48561 1C4.46349 1 2 1.91279 2 3V13C2 14.0872 4.49227 15 7.51439 15C10.5365 15 13 14.0885 13 13V3ZM11.5 3C11.5 3.54426 9.70837 4 7.51047 4C5.31256 4 3.5 3.54361 3.5 3C3.5 2.45639 5.29163 2 7.48953 2C9.68744 2 11.5 2.45902 11.5 3ZM8.10544 10.9975V7.00334H9.55934C9.9186 6.98152 10.2762 7.06689 10.5869 7.24863C10.7015 7.32282 10.7948 7.42551 10.8578 7.54665C10.9207 7.66778 10.9511 7.80319 10.9459 7.9396C10.9479 8.14798 10.8701 8.34924 10.7285 8.50212C10.5787 8.66607 10.3847 8.78322 10.1698 8.83948V8.85032C10.4266 8.87273 10.6674 8.98412 10.8508 9.16524C10.9339 9.24894 10.9992 9.34855 11.043 9.4581C11.0867 9.56765 11.1079 9.68489 11.1053 9.80282C11.1121 9.96842 11.0802 10.1333 11.0121 10.2844C10.944 10.4355 10.8416 10.5687 10.713 10.6733C10.4042 10.9028 10.0247 11.0167 9.64059 10.9952L8.10544 10.9975ZM9.00533 7.67033V8.61741H9.40072C9.55845 8.62617 9.71409 8.57813 9.83945 8.482C9.89275 8.43645 9.9349 8.37929 9.96266 8.3149C9.99043 8.25052 10.0031 8.18063 9.99961 8.1106C9.99961 7.81657 9.78038 7.66981 9.34192 7.67033H9.00533ZM9.00533 9.28517V10.3383H9.49048C9.66539 10.3487 9.83843 10.2975 9.9795 10.1936C10.0378 10.146 10.0842 10.0855 10.1149 10.0169C10.1457 9.94821 10.16 9.87333 10.1567 9.79817C10.1599 9.72613 10.1458 9.65438 10.1155 9.58893C10.0852 9.5235 10.0396 9.46629 9.98259 9.42213C9.84064 9.3231 9.66944 9.27485 9.49667 9.28517H9.00533ZM3.9 10.9975V7.0033H5.31212C6.73016 7.0033 7.43919 7.65223 7.43919 8.95008C7.45203 9.22525 7.40702 9.50006 7.30706 9.75675C7.2071 10.0134 7.05441 10.2463 6.85887 10.4403C6.6504 10.6307 6.40635 10.7779 6.14076 10.8735C5.87517 10.9691 5.59328 11.0112 5.31134 10.9975H3.9ZM4.79989 7.73605V10.2678H5.24557C5.41462 10.2769 5.5837 10.2504 5.7418 10.1898C5.89991 10.1293 6.04351 10.0362 6.16325 9.91651C6.39523 9.65427 6.51475 9.3113 6.49597 8.96169C6.50462 8.79718 6.47957 8.63265 6.42235 8.47817C6.36514 8.32369 6.27697 8.18253 6.16325 8.06335C6.03846 7.94914 5.89191 7.86128 5.73236 7.80504C5.57282 7.7488 5.40357 7.72534 5.23474 7.73605H4.79989Z" fill="#40B6E0" fill-opacity="0.6"/>
</svg>
