<svg width="16" height="16" viewBox="0 0 16 16" fill="none" xmlns="http://www.w3.org/2000/svg">
<path opacity="0.7" fill-rule="evenodd" clip-rule="evenodd" d="M7 6H1V11H7V6ZM4 8L2 7V8L4 9L6 8V7L4 8Z" fill="#40B6E0"/>
<path opacity="0.7" d="M12 4.5H15V6.5H12V4.5Z" fill="#40B6E0"/>
<path d="M16 13C16 14.6569 14.6569 16 13 16C11.3431 16 10 14.6569 10 13C10 11.3431 11.3431 10 13 10C14.6569 10 16 11.3431 16 13Z" fill="#62B543"/>
<path fill-rule="evenodd" clip-rule="evenodd" d="M15 2V1H1V2V3V5H2H3V3H13V3.5L15 3.5V3V2ZM9 13H3V12H2H1V13V14V15L9.53513 15C9.19479 14.4117 9 13.7286 9 13ZM11 9.53513V9.5H10V9H9V8.5H8V9.5H9V10H10V10.3542C10.286 10.0302 10.6236 9.75287 11 9.53513ZM9 6.5H8V7.5H9V7H10V6.5H11V5.5H10V6H9V6.5Z" fill="#9AA7B0" fill-opacity="0.8"/>
</svg>
