<svg width="16" height="16" viewBox="0 0 16 16" fill="none" xmlns="http://www.w3.org/2000/svg">
<path opacity="0.7" fill-rule="evenodd" clip-rule="evenodd" d="M7 6H1V11H7V6ZM4 8L2 7V8L4 9L6 8V7L4 8Z" fill="#40B6E0"/>
<path opacity="0.7" d="M12 4.5H15V6.5H12V4.5Z" fill="#40B6E0"/>
<path fill-rule="evenodd" clip-rule="evenodd" d="M15 2V1H1V2V3V5H2H3V3H13V3.5L15 3.5V3V2ZM9.67133 9C9.4247 9.19958 9.19958 9.4247 9 9.67133V9.5H8V8.5H9V9H9.67133ZM8.75778 15L1 15V14V13V12H2H3V13L8.02746 13C8.10865 13.7344 8.36658 14.4156 8.75778 15ZM9 6.5H8V7.5H9V7H10V6.5H11V5.5H10V6H9V6.5Z" fill="#9AA7B0" fill-opacity="0.8"/>
<path fill-rule="evenodd" clip-rule="evenodd" d="M13.8787 14.5858C13.4835 14.8476 13.0095 15 12.5 15C11.1193 15 10 13.8807 10 12.5C10 11.9905 10.1524 11.5165 10.4142 11.1213L13.8787 14.5858ZM14.5858 13.8787C14.8476 13.4835 15 13.0095 15 12.5C15 11.1193 13.8807 10 12.5 10C11.9905 10 11.5165 10.1524 11.1213 10.4142L14.5858 13.8787ZM16 12.5C16 14.433 14.433 16 12.5 16C10.567 16 9 14.433 9 12.5C9 10.567 10.567 9 12.5 9C14.433 9 16 10.567 16 12.5Z" fill="#E05555"/>
</svg>
