<svg width="16" height="16" viewBox="0 0 16 16" fill="none" xmlns="http://www.w3.org/2000/svg">
<circle cx="3.5" cy="12.5" r="1.5" fill="#40B6E0" fill-opacity="0.7"/>
<circle cx="12.5" cy="3.5" r="1.5" fill="#40B6E0" fill-opacity="0.7"/>
<path fill-rule="evenodd" clip-rule="evenodd" d="M14 12H16L13 9L10 12H12V16H14V12Z" fill="#40B6E0"/>
<path fill-rule="evenodd" clip-rule="evenodd" d="M11 14.3264C10.0908 14.7583 9.07361 15 8 15C6.97998 15 6.01092 14.7818 5.13693 14.3896C5.39788 14.1634 5.61148 13.884 5.76091 13.5683C6.45277 13.8467 7.20849 14 8 14C9.09287 14 10.1175 13.7078 11 13.1973V14.3264ZM14.8522 9.43795C14.9491 8.97385 15 8.49287 15 8C15 6.97998 14.7818 6.01092 14.3896 5.13693C14.1634 5.39788 13.884 5.61148 13.5683 5.76091C13.8467 6.45277 14 7.20849 14 8C14 8.18883 13.9913 8.37562 13.9742 8.56L14.8522 9.43795ZM10.2391 2.43173C9.54723 2.15326 8.79151 2 8 2C4.68629 2 2 4.68629 2 8C2 8.79151 2.15326 9.54723 2.43173 10.2391C2.11603 10.3885 1.83663 10.6021 1.61039 10.8631C1.21817 9.98908 1 9.02002 1 8C1 4.13401 4.13401 1 8 1C9.02002 1 9.98908 1.21817 10.8631 1.61039C10.6021 1.83663 10.3885 2.11603 10.2391 2.43173Z" fill="#40B6E0" fill-opacity="0.7"/>
<path fill-rule="evenodd" clip-rule="evenodd" d="M4 10.5V5.5L8 4.5L12 6V8.58584L9.73735 10.8485L8 11.5L4 10.5ZM5.69995 10.3065L4.6 10.0315V5.96847L5.69995 5.69348V10.3065ZM6.29995 10.4565L7.4 10.7315V5.26847L6.29995 5.54348V10.4565Z" fill="#B99BF8" fill-opacity="0.7"/>
</svg>
