<svg width="13" height="13" viewBox="0 0 13 13" fill="none" xmlns="http://www.w3.org/2000/svg">
<path d="M9.97074 7.7649H4.65074L5.91074 4.6449H7.97074L8.41074 3.7049H6.53074L5.91074 2.7649L6.53074 1.8449H8.41074L7.97074 0.904902H5.91074L4.53074 2.7649L5.09074 3.7049L1.35074 8.4049C1.21741 8.5649 1.11074 8.75824 1.03074 8.9849C0.950739 9.21157 0.910739 9.43157 0.910739 9.6449C0.910739 10.1116 1.05741 10.5249 1.35074 10.8849C1.65741 11.2449 2.03074 11.4582 2.47074 11.5249L5.87074 11.8449C8.21741 12.0449 9.58407 12.1449 9.97074 12.1449C10.3574 12.1449 10.7174 12.0449 11.0507 11.8449C11.3841 11.6449 11.6507 11.3782 11.8507 11.0449C12.0507 10.7116 12.1507 10.3516 12.1507 9.9649C12.1507 9.57824 12.0507 9.21824 11.8507 8.8849C11.6507 8.53824 11.3841 8.2649 11.0507 8.0649C10.7174 7.8649 10.3574 7.7649 9.97074 7.7649ZM2.79074 10.5849C2.53741 10.5849 2.31741 10.4916 2.13074 10.3049C1.94407 10.1182 1.85074 9.89824 1.85074 9.6449C1.85074 9.39157 1.94407 9.17157 2.13074 8.9849C2.31741 8.79824 2.53074 8.7049 2.77074 8.7049C3.02407 8.7049 3.24407 8.79824 3.43074 8.9849C3.61741 9.17157 3.71074 9.39157 3.71074 9.6449C3.71074 9.89824 3.61741 10.1182 3.43074 10.3049C3.24407 10.4916 3.03074 10.5849 2.79074 10.5849ZM9.97074 11.2049C9.62407 11.2049 9.32407 11.0849 9.07074 10.8449C8.83074 10.6049 8.71074 10.3116 8.71074 9.9649C8.71074 9.61824 8.83074 9.3249 9.07074 9.0849C9.32407 8.83157 9.62407 8.7049 9.97074 8.7049C10.3174 8.7049 10.6107 8.83157 10.8507 9.0849C11.0907 9.3249 11.2107 9.61824 11.2107 9.9649C11.2107 10.3116 11.0907 10.6049 10.8507 10.8449C10.6107 11.0849 10.3174 11.2049 9.97074 11.2049Z" fill="#519ABA"/>
</svg>
