<svg width="16" height="17" viewBox="0 0 16 17" fill="none" xmlns="http://www.w3.org/2000/svg">
<path d="M11.44 9.24391H6.12001L7.38 6.12391H9.44001L9.88001 5.18391H8L7.38 4.24391L8 3.32391H9.88001L9.44001 2.38391H7.38L6 4.24391L6.56001 5.18391L2.82 9.88391C2.68667 10.0439 2.58 10.2372 2.5 10.4639C2.42 10.6906 2.38 10.9106 2.38 11.1239C2.38 11.5906 2.52667 12.0039 2.82 12.3639C3.12667 12.7239 3.50001 12.9372 3.94001 13.0039L7.34 13.3239C9.68667 13.5239 11.0533 13.6239 11.44 13.6239C11.8267 13.6239 12.1867 13.5239 12.52 13.3239C12.8533 13.1239 13.12 12.8572 13.32 12.5239C13.52 12.1906 13.62 11.8306 13.62 11.4439C13.62 11.0572 13.52 10.6972 13.32 10.3639C13.12 10.0172 12.8533 9.74391 12.52 9.54391C12.1867 9.34391 11.8267 9.24391 11.44 9.24391ZM4.26 12.0639C4.00667 12.0639 3.78667 11.9706 3.6 11.7839C3.41334 11.5972 3.32 11.3772 3.32 11.1239C3.32 10.8706 3.41334 10.6506 3.6 10.4639C3.78667 10.2772 4 10.1839 4.24001 10.1839C4.49334 10.1839 4.71334 10.2772 4.90001 10.4639C5.08667 10.6506 5.18001 10.8706 5.18001 11.1239C5.18001 11.3772 5.08667 11.5972 4.90001 11.7839C4.71334 11.9706 4.50001 12.0639 4.26 12.0639ZM11.44 12.6839C11.0933 12.6839 10.7933 12.5639 10.54 12.3239C10.3 12.0839 10.18 11.7906 10.18 11.4439C10.18 11.0972 10.3 10.8039 10.54 10.5639C10.7933 10.3106 11.0933 10.1839 11.44 10.1839C11.7867 10.1839 12.08 10.3106 12.32 10.5639C12.56 10.8039 12.68 11.0972 12.68 11.4439C12.68 11.7906 12.56 12.0839 12.32 12.3239C12.08 12.5639 11.7867 12.6839 11.44 12.6839Z" fill="#40B6E0"/>
</svg>
