<svg width="16" height="16" viewBox="0 0 16 16" fill="none" xmlns="http://www.w3.org/2000/svg">
<path fill-rule="evenodd" clip-rule="evenodd" d="M15 2V1H1V2V3V5H2H3L3 3H13V5H14H15V3V2ZM11.875 15V13.75L11.0714 13L3 13V12H2H1V13V14V15H11.875Z" fill="#9AA7B0" fill-opacity="0.8"/>
<rect opacity="0.8" x="7" y="8" width="2" height="1" fill="#9AA7B0"/>
<path opacity="0.7" fill-rule="evenodd" clip-rule="evenodd" d="M6 6H0V11H6V6ZM3 8L1 7V8L3 9L5 8V7L3 8Z" fill="#40B6E0"/>
<path d="M12.875 16H14.125V14.75H12.875V16ZM13.5 8.5C12.837 8.5 12.2011 8.76339 11.7322 9.23223C11.2634 9.70107 11 10.337 11 11H12.25C12.25 10.312 12.813 9.75 13.5 9.75C14.188 9.75 14.75 10.313 14.75 11C14.75 12.25 12.875 12.094 12.875 14.125H14.125C14.125 12.719 16 12.562 16 11C16 10.337 15.7366 9.70107 15.2678 9.23223C14.7989 8.76339 14.163 8.5 13.5 8.5Z" fill="#AFB1B3"/>
<path opacity="0.7" fill-rule="evenodd" clip-rule="evenodd" d="M10 6H16V8.55051C15.9917 8.54201 15.9833 8.53355 15.9749 8.52513C15.6889 8.23916 15.3586 8.00779 15 7.83772V7L13.9436 7.52821C13.7972 7.50952 13.6491 7.5 13.5 7.5C13.113 7.5 12.7325 7.56411 12.3729 7.68645L11 7V8L11.4 8.19999C11.2683 8.29879 11.1429 8.40733 11.0251 8.52513C10.3687 9.1815 10 10.0717 10 11V6Z" fill="#40B6E0"/>
</svg>
