<svg width="16" height="16" viewBox="0 0 16 16" fill="none" xmlns="http://www.w3.org/2000/svg">
<path fill-rule="evenodd" clip-rule="evenodd" d="M15 1L15 2L15 3L15 5L14 5L13 5L13 3L3 3L3 5L2 5L1 5L1 3L1 2L1 0.999999L15 1ZM15 15L15 12L14 12L13 12L13 13L3 13L3 12L2 12L1 12L0.999999 13L1 14L0.999999 15L13 15L14 15L15 15Z" fill="#9AA7B0" fill-opacity="0.8"/>
<rect opacity="0.7" x="4" y="4" width="2" height="2" fill="#62B543"/>
<rect opacity="0.7" x="4" y="7" width="2" height="2" fill="#62B543"/>
<rect opacity="0.7" x="7" y="5.5" width="2" height="2" fill="#62B543"/>
<rect opacity="0.7" x="10" y="7" width="2" height="2" fill="#62B543"/>
<rect opacity="0.7" x="7" y="8.5" width="2" height="2" fill="#62B543"/>
<rect opacity="0.7" x="4" y="10" width="2" height="2" fill="#62B543"/>
</svg>
