<svg width="16" height="16" viewBox="0 0 16 16" fill="none" xmlns="http://www.w3.org/2000/svg">
<rect opacity="0.7" x="4" y="4" width="2" height="2" fill="#62B543"/>
<rect opacity="0.7" x="4" y="7" width="2" height="2" fill="#62B543"/>
<rect opacity="0.7" x="7" y="5.5" width="2" height="2" fill="#62B543"/>
<path opacity="0.7" fill-rule="evenodd" clip-rule="evenodd" d="M12 7H10V9H10.6277C10.7451 8.83141 10.8779 8.67238 11.0251 8.52513C11.3111 8.23916 11.6414 8.00779 12 7.83772V7Z" fill="#62B543"/>
<rect opacity="0.7" x="7" y="8.5" width="2" height="2" fill="#62B543"/>
<rect opacity="0.7" x="4" y="10" width="2" height="2" fill="#62B543"/>
<path fill-rule="evenodd" clip-rule="evenodd" d="M15 2V1H1V2V3V5H2H3V3H13L13 5H14H15L15 3V2ZM11.875 15V13.75L11.0714 13L3 13L3 12H2H1V13V14V15H11.875Z" fill="#9AA7B0" fill-opacity="0.8"/>
<path d="M12.875 16H14.125V14.75H12.875V16ZM13.5 8.5C12.837 8.5 12.2011 8.76339 11.7322 9.23223C11.2634 9.70107 11 10.337 11 11H12.25C12.25 10.312 12.813 9.75 13.5 9.75C14.188 9.75 14.75 10.313 14.75 11C14.75 12.25 12.875 12.094 12.875 14.125H14.125C14.125 12.719 16 12.562 16 11C16 10.337 15.7366 9.70107 15.2678 9.23223C14.7989 8.76339 14.163 8.5 13.5 8.5Z" fill="#AFB1B3"/>
</svg>
