<svg width="16" height="16" viewBox="0 0 16 16" fill="none" xmlns="http://www.w3.org/2000/svg">
<g clip-path="url(#clip0_321_39)">
<path opacity="0.8" d="M8.4 2H14V7.6L7.6 14L2 8.4L8.4 2ZM11.2 5.9C11.35 5.9 11.4917 5.87083 11.625 5.8125C11.7583 5.75417 11.875 5.675 11.975 5.575C12.075 5.475 12.1542 5.35833 12.2125 5.225C12.2708 5.09167 12.3 4.95 12.3 4.8C12.3 4.65 12.2708 4.50833 12.2125 4.375C12.1542 4.24167 12.075 4.125 11.975 4.025C11.875 3.925 11.7583 3.84583 11.625 3.7875C11.4917 3.72917 11.35 3.7 11.2 3.7C11.05 3.7 10.9083 3.72917 10.775 3.7875C10.6417 3.84583 10.525 3.925 10.425 4.025C10.325 4.125 10.2458 4.24167 10.1875 4.375C10.1292 4.50833 10.1 4.65 10.1 4.8C10.1 4.95 10.1292 5.09167 10.1875 5.225C10.2458 5.35833 10.325 5.475 10.425 5.575C10.525 5.675 10.6417 5.75417 10.775 5.8125C10.9083 5.87083 11.05 5.9 11.2 5.9Z" fill="#9AA7B0"/>
</g>
<defs>
<clipPath id="clip0_321_39">
<rect width="16" height="16" fill="white"/>
</clipPath>
</defs>
</svg>
